<mxfile host="app.diagrams.net" agent="Mozilla/5.0 (Windows NT 10.0; Win64; x64) AppleWebKit/537.36 (KHTML, like Gecko) Chrome/129.0.0.0 Safari/537.36" version="24.7.17">
  <diagram name="페이지-1" id="T35SIKAviXfCsTJudk0l">
    <mxGraphModel dx="840" dy="446" grid="1" gridSize="10" guides="1" tooltips="1" connect="1" arrows="1" fold="1" page="1" pageScale="1" pageWidth="827" pageHeight="1169" math="0" shadow="0">
      <root>
        <mxCell id="0" />
        <mxCell id="1" parent="0" />
        <mxCell id="86SCbqVBHxB96HFJQSEO-3" value="" style="shape=image;verticalLabelPosition=bottom;labelBackgroundColor=default;verticalAlign=top;aspect=fixed;imageAspect=0;image=data:image/png,iVBORw0KGgoAAAANSUhEUgAAAbcAAAMvCAYAAABRPZ7sAAAAAXNSR0IArs4c6QAAAARnQU1BAACxjwv8YQUAAAAJcEhZcwAADsMAAA7DAcdvqGQAAP+lSURBVHhe7N0HWNTmHwfw77GHuJEhohQHILgVQRG3Vi0ylSGKgrgKrf+2jtZFlVbFbbW4t+JeuKt1j1oE6yyIAspQlrLH3eWf3AU5pqBi9fx9+uTh8uZN8l7O5ntvkksEuXkFDMhnh3kVhRsPC9HMwhS6GgK+9OPFMHlIiLiBqJyGMO1oBh21j7/NhJD/DoUbIYQQuaPA/yWEEELkBoUbIYQQuUPhRgghRO5QuBFCCJE7FG6EEELkDoUbIYQQuUPhRgghRO5QuBFCCJE7FG6EEELkDoUbIYQQuUPhRgghRO581veWjIp6gujHsfxYsXZtW0NXV5sfI4QQ8qn5bMMt/PZ9hOw+hMaN9aCoUHyH+by8Arx8+Qq+Ph5o0kSfLyWEEPIp+WzDbePm3ailqYlBX/bmS6QYhsHh0NNsr+4xxo0dAX09HX7Ku+Me23J29hAsq/sLQv/XhS8lhBDyvn224bYqeAuaGRrAtocVX1JMLBbjwOETuHfvX76kJFVVFVi0NoGjwyAoKyvxpW/GMDnYP7IuJmmfwPMlffjSN2Ni1uDLLlsw8PwVfGtGzzEjhJA3oQtKyqGgoADHoV9ilOewcoehXw1E5KPH+PP8VX6OGsaIkJ+RByE9eY8QQqrkow+3I8fO4ll8Ij9WFjeNq/O+cQHXrKlBuYOpSXO0tTDD4ydxfO3yvYrYgqnuA9C5ZQt07O+DlVdTUDqfGPFLhO+YCc9+bdHc0BAmlnb49rdLeCGW1ozd5glrxyDcQRRWuVvCquvXOJounfameQkh5HP10YebVi1N7DtwstyA48q4aVyd96GgoACJic8lf99EUVERIrGIHysrL+xXDOw1GdfqD8G0VWswd5QRLk/2xtpIvgKLYQpwb7k9eo07DGH3iQjauB4Bbo1xa+5QeK1/LKnT0MYf86fawxC6GDQ5CPMXeKODRtXmJYSQz9Uncc7t7J9Xcefuv3B2HAiDxnqSsqJgszBvhT69rCVl1VH6nFtM7DPs2XcEubl5UFdXwzBnO0kvrSIXLl5DTNwzTBo/ii8pxjCJ2OJoghl1NuKfTY6oL5CeJyu8FwTbjj8heqL0nBt3gUnizWM4k94O7v2/gDJbjwutc/9rjiFx8/BsnycacGVPVqO36XoMDgvD962ly6rqvIQQ8jn6JM65ceHFhVhRD+5dg608J06eRRtzU8wL+EHylxt/a4XhuMbO7uRu9zrYOEpmTnC15EdYAoEa9Ls4YdQAYyiJ8pD6NAr/sDPeSVIGHkSj7C/wir3LvIQQIu8+mQtKZAPufQcbJyMzC8bNjaCqqir5y42/tefxiCkwhJ5u6SspdaDXhH/Jy3t0FIGj+6C1fj0YtLKEw6RFuJhQtY/lXeYlhBB59kntCYsC7n0HG8fMtCVCj52R/MaN+8uNv7X6DdkYS0RqGj/+WjrSkvmXLEZ8CwvtnbAlux9+OXQHz9JS8Tj8LFZ4tuBrVOxd5iWEEHn3yX3N50LtfQcbZ9DAXujU3gIvnqdI/nLjb03DDG3bZ+DoiUvIY2ROaSaexbHr/GvO89v465EhPH6YCnvrFmigxp03y0fUwwd8BVkFKBTyLznVmpcQQj4vdAyLp6ioBBubrnAbbi/5y42/LYGgFbymeiBr1XhMWn8F0S/SkHDvOAJ91iFW9hoVbROYN36Gk7v2IiwmHdnpsbix1R8zd7ziK/B0m6Gl+iOc2HEA12/FIJ0LzKrOSwghn6HPNtzU1dSQnZ3Lj1UfNy+3jIrUH7oCJ1fZ4sGcgTA31IVxj6mIdl2HAFu+AkugZIWpWwOhf9Ib3U100FDPHF6hFvhxeje+Bk+tP6au9UbhNjf0svbBvqfVmJcQQj5DdOPkUjdOrgqRmEF8fCJc2V5e+7ZmfGn5GFEOUuJTIWioj4YainxpSUxBJpLiEpCtpgPDxnWgUsEl/GK2XnoGoNWg1us6VZ2XEEI+J59tuHEqeuRNVRh/0RQtWhjxY4QQQj4mn3W4EUIIkU90QQkhhBC5Q+FGCCFE7lC4EUIIkTsUboQQQuQOhRshhBC5Q+FGCCFE7lC4EUIIkTsUboQQQuQOhRshhBC5Q+FGCCFE7lC4EUIIkTsUboQQQuQO3Tj5A8ouzMafT67hr/gIPM9Kk5Tp1KqPLo3boZeRFTSVNSVlhBBC3g2F2wcgEouwMWI31t3cBYb9z6ppB+jX1pVMS8hIwrXYWxCw/43t7IYx7YZDUaH8574RQgipGgq3GpZRkAX/47Pxb3I0/Lt5wd68H5QUlPipUkKxEIfunsGKK5vRStsYKwYFoLZKLX7qhyHOfoks5Trsej+uh51+rO36FNC2I58zCrcaxPXYvI9MQWp2GlY7/Azd2o34KeVLyniBiQdnoYFmfWywW1ilHlzG6RkYFvQ3uv+0HzN6vt1hTYa5jV87WGKR8To83DsCjfineec9u4wdv63G3kvhiEpSRhOzTug30h/jHdqigVLN7zAraldNu7dmOCbvS+XHStJ3X43No1vyY2+PYfJwdvYQLKv7C0L/10VSVnq9AtV6aGZihg4DvDCqbzOoVeP9/1fbjpCPheKMGTPn8K/Je7YhPARno69g87CFr4PtIduDuxoTxvbkHr8eGHa/05ANtFqqmrD9ogvW3NjJ7tkYdNSzkMxTEYZJx+FZ7lh+Kgq3xR0x3q4VVN9qJ6YBTVUl6FkPRp+W9aDALkP0dB98etpjj6gvRvp6w22gObSy7mLfLz9hf5YtnHs1ect1VUfZdn0IsaEzEXDBECN87WDZujVayw4W7WBu8D7OjRYgfNMErBO54IcBX0hKSq/XpGk9CJ9dQPD0ABxS6A237vpQrvI2ePttx8SswZct/ZEyeAy6an+YbU7I+0Y9txqSVZiN3htd8a3NGLi0GcSXAjtuHcK28INIz82QjNdTrw3P9g7w6GAvGefs/ec4ll3aiHNjQlCrkotMmKRtcGw+C039B2LfqjQsfRICl/rvZ2d0c44JevwxCn+fnYbWqsXLTNnridaeWVjy7AA8Gsrnjk/y3k96I+La92hVQ4HKMDnYP7IuJmmfwPMlfSRl5a2XYURICBmBzmOTEXD3DMY2q/ltzjxZjd6m6zE4LAzft5bPz5jIP/opQA25GHNd8tfBvL/kbxEuxE56b0H/Ft0lA/daNtg4RfMULaMicUd24GRjd3jMdINrvaPYHfqcnyLF9ewO+nXBsDV3EXN8NtxszdHS1Ar2owNwNDqXr1Vcb/DycH48F3GPH0PJuCWMVCRFrzWw/w0RkSsxSOaUYG70Efzi6whb8+Zo3e1LjFt4HE+ypd+ZitsQxvZUvoGzlRF0/E+i8K8F6N91BLbHlvxuxcTvwuiuPRF4Ob9Mu4oUr88YZpb9MWbuXjzIKLmcytr0PhS/rzuIPhyAsUO7wKRVRwz0WYQLCYV8rWKvIrZgqvsAdG7ZAh37+2Dl1RRUpTUCgSL0v3JBH+FV3LpbwJcWv7+ebVrAwtYB4wIPIjq3eIllP9OqtTd2myesHYNwB1FY5W4Jq65f42j6+9tuhHwoFG415K/42+hq2K7MxSNVwc3DzcstoyIME41DO86hpYcDOqhZw8G1MY7tOISnjOyOSIyM+AiEHZqOMb8moZvfEgQv/hqW+SFwt3HF1piiutJ6Ucn5kjGBQB0dbftB9cgCzNp3F6kynXuBch3oGRqgnpr0G73o3zVwtPHGCZWe8F+6Dku/6YuCEA/YjtuD55K2SJd9Y5Mfvj9eGwP/txzrPc2h1K4b2r3Ygy2hTyTLKRIXuhkhCW1g1ZFL1ZLt4kjX54H9+VaYtCgYv47pisy9ozBg9BbEiKXtfHOb3gdp2/4O+QFTD6ij/9dBWDXPHQ2uz4LT2M2I5dvCyQv7FQN7Tca1+kMwbdUazB1lhMuTvbE2kq/wJqJCFEIZKirS/12FD3+HQ3cPHBZaY/yCYCyc2APCw16wsVuJB8Ki9ZbedlVrb0Mbf8yfag9D6GLQ5CDMX+CNDhqSSYR8UijcakhSZir060gv938b3LzcMirC3NuP7TdM4GbfEYoCNgwd3WB0YRsORfMVZCTcVIXvvmB87dwfvQd5YNrWUASancGcJWeQXcHOvumoNdjhVx/7R3VEC/NeGDU1CNvO/IPk/OL6DJOCA3Nn4YnTdoSu9INTv17oP+w7bDgQhNZHp2LF1eK6L5QdsHrnz/BxscNXnQ0AZSu4eDbH5T1H8JhvA8PE4djeP2HoPgw2apKiErj17f95Fm51/x2hm77HsIH9MHTcz9i68Rd0y7mCa7HVa1Olkv7EugXzMX/+rzLDGlx+UXL+xBwbzFn/A1z62aKPy3dYu2wsNM4exJ98J5phEhEybz6eDl2HQyu/ZtvTG4M8fsKOTf2RXfF3l9e4XvSDzZtxWrMPLC2U2PFkyTYItw3G4fXfwfXLPvhy+GSsOxIMm9tzMGdPyd57aW9qr2azzuhh2QJ1oAWjzj1ga9sejWUOSxPyqaBw+w9xv21TEilDWahaZphmPQnBXwXyNUtiGDFu7d+Ku21HwJ6/5kShkyPcWt3E9gN3pQWyBrnCTuZCTYGSMVw8+iHx3DVE8WWlCZQM0D/gBO5GXsbGyT1RK3IXpg3tBDPL4VhxPV1aSXQL548BfW1N8OrpM8TFPZUMzxRawdIkARH3E6T1WI26dUUr5eKdJHe4raPzKJjd2IWjRT2YJ0ex57IxPF2syr9wQhSG86HZcBo1DHoKxdPVO32LXSfWwc2ILatGmyqV/xzR9+7hfonhEVKLO5ES9W2sYS7zvjRM26A1u1WfxvMFheG4dhZwcrdDfZn3pGTmBFdLfkRWwhmsCpiDgDmzMXvaN/Ae3AU9fopC36BADOO+K7Hv78KxPDiPdIauzDYQ6DhhpKMIJy/cREElvdM3tpcQOUHhVkN0tRog4VUSP1Y+AaOAZ/cY7JuXj91zyh8u7ix7/gbCG9i3PRLqSrexefp0TJ82DT/+uAv31VTwz9Z9uCUquXPT1deFRqmwaKTfBEqPYhFfzuKLCNh5NA26wH7CHPx2IAz/3v8TC62iMdPJH4dT2HUkxSE6Nx0bRrRAq5bGMkMfLGB7JfejY/glAapKyvyrYgJzJ3h2CUfI0fuS8aijIbjRZhQc21fwzzLpKR7nN0MTg7LLeq0abapUU1fM37oNW7dtlxmCMLRJye2oqabOv+IpKUEZDF4flXwej5gCQ+jplj48rQO9JvxLWcJXeJ6QgAR2eJ6lAqP+32LLtZvYNdoEStxn+HoblDwZKhCowKCpEQqiYpHIl5Xnje0lRE5QuNWQLo3b4npchOQH2hVidyg3DgghYqsYmiqVGAxaKeJ5tBiRV8vOn39pL3Y+bY7ubesjNycbOZIhB43a28Do0Xbsv15ynpS0tDLf5l+lvYBQTxfa5eQEd4VeYX4BCl+fv5EGXa1m3eC1eBYcXh3BmZsFQL0GaARt+B1LR2rayzLDvQArfu7yCQTN4eDRCxEhh3FXHInQPTfQdYQzzGR6JCXUb8hGQgJSUivZE79jm947SZsT2XXz46+lIy2ZfynL0Bk/r1mLNWvXIfi3IMz81huDLepBsejLSX1ttseWhDS+8ywrPY39MtVYBw35cUI+ZxRuNaRHs66Svwfvnpb8LcL9FGDghlE4HXVZMl4UbN2d1V4P1g5qSHkmhpIq4DCt5MknhsnG2b07kdp7Mn5ftQLLV6x8PSz7fTUmdH2K7fsvIk8mzIQnT+NSNj/CYpg0/BF6DupdLWDMl5UgvolZprXQ5ZcwiEqFojg+Bk+EdVC3Dttz0DBHh87JuHD1IZTU1aGhoSEZ1FXScO/6Q6QVVBBSMgztR2Dgw104uusQdof3gqdDuS2SUrdAR8schB6/gByZdonjTmPpnMU485Qtew9teq80zNC2fQaOnrhU4jNB4lkcq/xi2PKpc+8vE0eOl1wek3cFJ46koVNHC2iW6qW/He7LDf+SkE8QhVsN4X6fxt0r8rerWyV3HinSsYkFJnYdgZ96TYRz6+LfvxURi4BDy7MR/68Iw+eooYFBqR1Vxhns2fMSA4d/hcaldmICgRHs3Hrhxa49OJ/DF7Jq1TqHnycE4/KjF0hNuI+TC0bh+/168J/siAbl7QgVOsB1ohViF3nDe/EunP47Ggnx0Qg7vgpj3WfgTlc/DO/Ara8Fxswaj1S2nt/GS4h6no7k6JvY9+Nw9LObhD1xYn6BlWg0BG5D47Bs8kI8HDQCXxnw5eUQCIzhNcMXouDx8F19HpFJKXgafgLzJ43EjMOvUE/nPbWJkxWHiOs3cP3a9RLDX4/KdMEqJRC0gtdUD2StGo9J668g+kUaEu4dR6DPOsRW8l4rItkGM8dDvMoX44IvIjIxDUmRF7HW1werhT6YNboVX/Md6DZDS/VHOLHjAK7fikF6qS84hHwKKNxqEHcT5JYNv5DcUqso4Ey0jWHXup9k6KBf9g4kUWEFiPpLyPbYVMsGGyv1xC4cKhwCl8Hsnrwchl+5os+rPdh96iVfAtRzXIL5bUPh1c4ABl+0g8e6AozcdxTTO5f6ERuPO3/TZvJuHJ5nhccrxmBod1MYG5ui+7Bf8bjzL2wvazIs+J8CaPVdiD922uH5Eie0a6oDw9bd4HdGD1MO7IW/2ZtvHyYQ1MNA12FsaBfC3nUItN/Q69DqG4Q/djnj5QoXtG+mj5ZWTtgs9MSOPT+hE38PxXdtk8SjNfDq1QO9Sg1frS75m7uqqD90BU6ussWDOQNhbqgL4x5TEe26DgG2fIVq0uozH6dCXJC2zAHtjXRh1M4eS1PtsevMYvSrU/n2qxK1/pi61huF29zQy9oH+57y5YR8QugOJTWsshsnc1dFcheNFB2W5ORmMdg+KxNqtQRwnqEKFfW331kxTCq2Oukh0Iz9hj+vKwoyk5D4ShW6+nWhWtF5rVIYYS7SkuKRkqcBXQNd1FEr//sQd54uJ5mtJ9SCjk5dqCm+h51sJRhGiKykBLxU1YZ+PbXic1IyymsTk38E3nWcsYuvU9rIvVlY81X5of+uGFEOUuJTIWioj4Ya7/7kB+k2SESWpi70aldykc1bEhdkIj2DDdMGtaDyXg51EvLhULh9ABU98maa9cQy4cbJfMkg5Od3D7jS4Ua4gEnGg2v/opzrMSTqt7KGqTYd0CDkU0fh9gGVfljpmq9+wZ6AfNRuoADzniW/eWenMzi1Ng96LRTgMkuVL60eCjdCyOeKwu0/Fn5KiPObCyRXTZZHv6UC3APLuV1HFTBMAeJunsdjrU7oZVqfLyWEEPlH4UYIIUTu0MkFQgghcofCjRBCiNyhcCOEECJ3KNwIIYTIHQo3QgghcofCjRBCiNyhcCOEECJ3KNwIIYTIHQo3QgghcofCjRBCiNyh2299QDn5DC4/YBARI0JyhnSza9cWoF0zRXQ3FUBDlR4rQggh7wOF2wcgEgO7Lomw81IBuIcadzBWgk5daaf5+UsxbkULwT0uy91GBW42ilCk/jQhhLwTCrcalpkLzAgpwONEEUb1VkP/dipQKvWcSqEIOB1RgC3n8vCFniLmuapAS52fSD4q4uyXyFKug9r8U78JIR8n6iPUIK7HxgVbWgaDlb61MKhj2WDjcGXcNK4OV5ebh5u3IvfWDEf/fo5YEVbIl5TFMI+x2asvW+9XXOO6ix8Jadu5dkmHAUNc4DN5JlYdi0L2R9TO8jDMbczvrotm7tvx4iNoq2RbjtmKmA/QFoZJx7EpfTFs9W2+hJCPG4VbDeIORT5he2xzPTTQqE7xps5lO8t344S48qAQCWnFKcbV4epy83DzViQn8TYuXQrFos3nkFPBjk0Utg2LQy6y9eKQyZd9DCRtf1wXNi7D4MIOjv07o3HB31jh1gE9p19E5kcdcEYY4D8dU0ZZo+jpeEzMGgxsZI1l9z98uyXb8v5z5PPjNUuMlEcXEZGQy48T8nGjcKsh2XmQnGPz7K1WItjO3y2E59JM/BySg+0X8uG7OhMLDuSgkH9YKVeXm4ebl1tGZZK3b8CxVOlrWQyTiz+3bcQjfvyjo22JYWPHYqyvL8b5T0HAqhO4st0VL5b9iM0fbaMBgaA2Oo6ejWlfGUOJO0nKYUTIz8iD8GPOZEI+QxRuNeRapLRHNqCdiuQv5/5TEYIO5sCnnxr2TKmN38fXwgY/LcS8EGPVieJvxEXzFC2jXL3d4dboENbvjeELZKSHYtP2HIwc6cwXFMuNPoJffB1ha94crbt9iXELj+NJtnTPzB16OujXBcPW3Mb9kClw720BCxtnfLvhb2Qx2Qjf8gNGDmyHVmZsOE3fh0e5JffoRcvu2aYFLGwdMC7wIKJL1alIg35D0AthuH2/ONGr1ta7iDk+G2625mhpagX70QE4Gl22d1GVtjHCJFxePRnOPdrA2KgVug4ej9+uJPNTi9c5eHm4ZDx2myesHYNwB1FY5W4Jq65f42h68TLftM7i9xCG8E3fwNnKCDr+J1H41wL07zoC22NLtS9+F0Z37YnAy2X7am/72VV3OxLyqaBwqyG3nojQzkipxDm27Rfy0NNCGQM7FAeeDttTm+2qgbbNlPgS6Tk4bl5uGRVSs4XXuE64uG47/hGV3AnG7d2Aww3GwMuuAV8iJfp3DRxtvHFCpSf8l67D0m/6oiDEA7bj9uC55HCgGBnxEfh711QEXGwKj+mB+NYmH8cnuWDUmFH46YYRhv2wAAFj2+DZ2hEYs/ahdMEs4cPf4dDdA4eF1hi/IBgLJ/aA8LAXbOxW4kFVujWZr/ASSlBTkW6HqrY17NB0jPk1Cd38liB48dewzA+Bu40rtsYUr7MqbWMYMe4ud8KQRdEwGz0Pm7ctga9FLBa6fY298UXLkq4zKlkaLg1t/DF/qj0MoYtBk4Mwf4E3OmhIJlVxe0iXd2OTH74/XhsD/7cc6z3NodSuG9q92IMtoU/4elJxoZsRktAGVh2L//0Ue9vPrurbkZBPCne1JA3vf/Bbl83MP5DLpGYyr4c+M18xey4XlCiraODm5ZZR3rIvTvuCwaB1zLPHa5m+SvqM36mM19Nysm8xsyzAtJ8XzmQfGcfumbyZw7n5TE5uArPVuR7TdOxRJokdL6qf/XA101NVn/nf2Ty2TiITPAgMLOcz/2RJ6+TkRjKLrNmy5tOYy6/LcpnT3+gzGLiGiZMsO57Z7FiHqW2/iXmSI7PsmC2MXe1ajN3GuNdlkra3C2QiZNqQkXCL2ehlyqCeG7PneTXbWsuO2RRbXCcn6wGzoLsSo+cbyqRUo23c+wyyAmM8/Urxsth5L+07ytx8Kv0citbZ5PuLxXUeLGO6wpyZGybThiqvk38PndntkSk7fy5zYYox+zksZO7x7z8n9xGzuDsYw2/PMRl8mey2fPvPrqrbsex7p4GGj3mgntuHJnMFuYDdp6gqCaGhXFhm+GaQIhZ6KvM1K6DnCG+XbGzddBwZ/IUY+Ve3YsODPhjraia7KrYrdAvnjwF9bU3w6ukzxMU9lQzPFFrB0iQBEfcT+IqAdtdOaKEknVsgaAaTdrUBkxYw4nuhAoEidBsbAkkpSOMK2GVfOJYH55HO0FUoXqtAxwkjHUU4eeEmCmQvFLm/GINbm6K1mQlMjHTQUL8Dxp/Rw087F2Ewu6rqtBWDXGHXiH/NEigZw8WjHxLPXUMUV1DltmmjpYUeorcHInDvNcS8KmTfpzY6DRkAc+03fA6lVXN7NOrWFa2UZeqx27eT80iY3tiFo5F84ZOj2HO5OTxdrKBcdL6vHNX+7Iq8aTsS8omhcKshDdl9yvP0kufMmusr4tZj/soRloqSCAkPhNg3Lx+755Q/XNxZ8eX+gBYGjvaC5r71OMDu7xkmA6c2bUGmkw8cG/NViiTFITo3HRtGtECrlsYyQx8suM3mTXTxuTs15XIOeykolPjHIpCNzqSneJzfDE0MSs4nEKjAoKkRCqJikciXSej2g3/AXASww7wZw2AKFfSesQEzemlDgdtxV6Otuvq60Ci1s2+k3wRKj2IRz226KrZNINBEv4CDWDkoDzsn2MJUzwDtBo3DgkMPq/8ThWpuD1WlsuEpsHDCiE7hCDl6XzIedTQEN9qOglOHyv+XrfZnx3vjdiTkE0PhVkM6sF+VI54IJT/QLuJhq4Y/7xTgVHiBZFxRwODGASFEbN4ZmiqVGAxaKeJ5tBiRV4vDsDyq3UbBx/QPrA95ACbxIDbsU8eoMYNRp/S3+3oN0IjtnfgdS0dq2ssyw70AK77iW6ivzfZQkpCWzo/LSE9LAhqzvTN+XKJ+GwxwdoaziwucxgRitrc2Tv4ahPOZfIhUo60paWkle4WsV2kvINTThaTDVY22Cep1gM/yk/jnaTxu/7kBE8yfYI1rH/gdKueS1MpUd3uUQyBoCUcPW0SEHMZdcSRC99yA1QgnmFbSa3sXb9yOhHxiKNxqiFVL6aY9FSENMk7rJoqY4qCBtafy4Lo4Q1JWFGzdndVeD9YOakh5JoaSKuAwTU1SryICRXO4j+2N8LVbsGXbWpxp7gPP7uyMpWmYo0PnZFy4+hBK6urQ0NCQDOoqabh3/SHSCt5hp6nOLTsTR45fQp7MDpLJu4ITR9LQqaMFNCvYKXOX1w+YMgO9k4Mxe/0DiLj5q9FW4cnTuJTNj7AYJg1/hJ6DelcLGHMFVWwbI0xH1JXTCEtgoKiujZaWQ+C7IBjfWibj9HVp76liBa9/yiHxDttDVtOhHuh7fxeO7jqE3eG94ekgeUc14o3bkZBPDIVbDdFkM4m7V+S2c3l48ar48GRPc2Xs/E4LPzrxl9WVImZ7eoeWZyP+XxGGz1FDA4M37wQNnX1gn7IUE2eHwdZ3BCwUy84jELTAmFnjkbrIG34bLyHqeTqSo29i34/D0c9uEvbEVfKzgzcQCIzhNXM8xKt8MS74IiIT05AUeRFrfX2wWuiDWaNb8TXLJzD0xBx/E/y1cA4OvKheW2vVOoefJwTj8qMXSE24j5MLRuH7/Xrwn+yIBmyAVL1tj7Fz4hAM9VuKS5HJyEh5hBv71uHgvTro1cmEr1MO3WZoqf4IJ3YcwPVbMUhnw+xdt8drenZw+yoGyyYvxMPBI/BV6UPN79GbtiMhnxoKtxrE3QTZSE8RM3fklAg4VWUB2shc+i8rKqwAUX8J2R6bapWCTaLeEIwZqccm6lB4uzTlC8vS6rsQf+y0w/MlTmjXVAeGrbvB74wephzYC38zmd8svAWtPvNxKsQFacsc0N5IF0bt7LE01R67zixGvzqVvw/uXFQn/wAMVziEgCWXJHddqWpb6zkuwfy2ofBqZwCDL9rBY10BRu47iumdi889VaVtAqWO+H7nBvZLwnIMatMYOgZm6OV/BoY/7ccSZ21JnXKp9cfUtd4o3OaGXtY+2PdUWvwu26OIQFAfg12dIMoohP3wwWhYgyFTle1IyKeEbpxcwyq7cTJ3VSR30UjRYUlObhaD7bMyoVZLAOcZqlBRf/87NIYRISc5HilCLejo1IVaOT29t8UwQmQlJSJLUxd6td/9ZE1FbWWYVGx10kOgGdszmtcVBZlJSHylCl39ulCVuUJRVlXaxjAFyEpOQmquGrT1taEpcxVjZcQFmUjPYEOtQS2oyITQu26PzNBxaDVWjPVRazGI/Tfxvr3NdiTkU0A9txrG3d1/ySgVDO+mgo1/5GF4UAYC9+Zg/Zny762lzu7AXGdpIY8NOe4qyoIq3uGjOrjLwTUbGaKpfr33GmwcgUAJWnpN3kuwcaraVhUtXTQ1qFfpDrkqbeN6kVrs+po1bVTlYOMoqGihQUOtEsHGedvtIRYWIC89HL8t3oF6o0aityY/oYZVZTsS8imgcPsAuOezjbBVxL4f1DD5K1XU0QCepkgvo+T2ha+SxYh9UPh6SEsUohvbk0uJY3A4qPiCFPJ54O4NenyiLurpWWJxji+Wf9cdanTei5BqocOS/7HwU0Kc31wguWqyPPotFeAeWPkVk58j7vBh3M3zeKzVCb1Mi+7RLx8YJg8JETcQldMQph3NoKNWc8Emz9uRfN4o3AghhMgdOixJCCFE7lC4EUIIkTsUboQQQuQOhRshhBC5Q+FGCCFE7lC4EUIIkTsUboQQQuQOhRshhBC5Q+FGCCFE7lC4EUIIkTsUboQQQuQO3VuyBokKgdt/CJGXWb1NrFFXgDZ9lKDwbs8PJYSQzxaFWw26dUKIq7sL0ahZ9VIqPlKIPmNU0KZv+U/r/lRwd5x/8eAv3HlWgHqmlujYRBPi7JfIUq6D2ir0CJePCX0uRN5QuNWgq3sK8ew+A7eZVXzSJPtJnN2ah4izBXCfp4pGRuUfNb63Zjgm70vlx9gPUbUemrQwQfu+I+E1qDk0P4JnfzHMK1ya9SWcgv4G6tRDv2V3scM1Ab92sMQi43V4uHcEGlXSTsl7vDEYazd4ohk9y6xckm0U6YZdi4aiwTtsI4a5XeJz0cZLHJ/qgi3NFmPPxLZ8rbK4R/OcnT0Ey+r+gtD/deFLizFMepWWQ0hNoHNuHwmxCDi6Kgd3LhTAeYZKhcHGyUm8jUuP68LGZRhc2MGxf2c0LvgbK9w6oOf0i8hkqv59hYlZg4GNrLGMDeH3KuMkVgfdglXQXcQkJmH78IZsoREG+E/HlFHWKHpyWEXrl7zH+8+Rz4+/TzX2nj8wyTaKTEUFjwKshtKfixgpjy4iIiFXMlYxMV4+uYibzzL58dKqthx5+TzIx4XC7SNQmM9gf1A2Yu8J4TpHFQamVTiMqW2JYWPHYqyvL8b5T0HAqhO4st0VL5b9iM2P+DpVwYiQn5EH4fver6Sl4jlaolvPFtBUEECBHQSC2ug4ejamfWUMpaKeRk2tvzL/xTo/YuV+Lh8SfR6kBlC4/cdysxjsDsxGWqIIbnPVoF1Jj+1NGvQbgl4Iw+37eXwJu/zoI/jF1xG25s3RutuXGLfwOJ5kS/cisds8Ye0YhDuIwip3S1h1/RpH0xnJ4aSDfl0wbE0Ywjd9A2crI+j4n5TMwylaZs82LWBh64BxgQcRnVu8Zwpf/iW/3CcIHsEtdxg2Rxcvd/DycEm9itZfWnF77iD6cADGDu0Ck1YdMdBnES4kFPK1pBhhEi6vngznHm1gbNQKXQePx29Xkvmpla+TEb9E+I6Z8OzXFs0NDWFiaYdvf7uEF2J+ejXawSne9sYws+yPMXP34kFGyfdX2edTVa8iNsF/SCeYtGiDfsO+QfDVZIj43nvpbV6EidmGERV8LhV5FbEFU90HoHPLFujY3wcrr6ZwR9KrhSmMw75v+sJmxErczmSq/G+AkOqicPsPZaWLsTMgG4UFDNzmqaGuzjt+a858hZdQgpqK9EIU0b9r4GjjjRMqPeG/dB2WsjuVghAP2I7bg+fszq+hjT/mT7WHIXQxaHIQ5i/wRgcNbk4xMuIjcGOTH74/XhsD/7cc6z3NJcsUPvwdDt09cFhojfELgrFwYg8ID3vBxm4lHvBfvZt9OaPUcr9Hz0bcFOlyo5KlBxsrXn9p0vn+DvkBUw+oo//XQVg1zx0Nrs+C09jNiH0dPmLcXe6EIYuiYTZ6HjZvWwJfi1gsdPsae+OldSpaJ3fxy73l9ug17jCE3SciaON6BLg1xq25Q+G1/rFk3qq2gyPd9h7Yn2+FSYuC8euYrsjcOwoDRm9BDF/vTZ9PlTwLgd+E/ajrPBurfg/AMMN7mNu/B368kMVXKLnNXxOmIzYiBi8lxzQrqCMjL+xXDOw1GdfqD8G0VWswd5QRLk/2xtpIvkIVMMJnOOI/GOOvtsaMoEloqyWoxr8BQqqHwu0/tG9hDtRqAcMDVKFZ992CrTDtLkJmLcapek4YYK3E7qxTcGDuLDxx2o7QlX5w6tcL/Yd9hw0HgtD66FSsuMpAs1ln9LBsgTrQglHnHrC1bY/GqsXteKHsgNU7f4aPix2+6mzALjMZ+3+ehXDbYBxe/x1cv+yDL4dPxrojwbC5PQdz9jyXzFevZbdSy+2CZuyOrLQ3rb+0xBwbzFn/A1z62aKPy3dYu2wsNM4exJ/S1bLicCH0JgxGzcTPo+1g030wRv+6FQdWj4GpivTMVMXrFKN+Nz8s338QW2f5wqFvfwz7Zjlmu9fCn6euIFUmbN7UDm7bc9vpVvffEbrpewwb2A9Dx/2MrRt/QbecK7gWK63zps+nSh48Recl+/Gz11fo09cBPkGHsNm7AL/NXI/Iapx7rQzDJCJk3nw8HboOh1Z+zba1NwZ5/IQdm/oj+zZf6Q0YYQKOTx4C7xu22HZ4CQboSXc91f03QEhVUbh9qu4vxuDWpmhtZgITIx001O+A8Wf08NPORRhcm50uuoXzx4C+tiZ49fQZ4uKeSoZnCq1gaZKAiPsJ0uVUolG3rmilLLOjYZd54VgenEc6Q1ehuFyg44SRjiKcvHATBe9ph1qe+jbWMJdpj4ZpG7RGFJ7G8wXQRksLPURvD0Tg3muIeVUIgUAbnYYMgLm2Ml+nfAKBGvS7OGHUAGMoifKQ+jQK/1w7iztJ7HwPosHm0WtvbIcoDOdDs+E0ahj0ZLaTeqdvsevEOrgZsWXv4fORMHaFk5UqP8K9j1roM2w4Gt28jLB0vvBdFYaD3RRwcrdDfZlzckpmTnC15EcqI0rAyR/s4HnJCluOLMOX+vQDTlLzKNz+Q85TNJCXBeyenY/sl9UMBd1+8A+YiwB2mDdjGEyhgt4zNmBGL20ocDugpDhE56Zjw4gWaNXSWGbogwXst+370TH8giqmqlQqEJKe4nF+MzQxUOELpAQCFRg0NUJBVCwS+bKaoKmmzr/iKSlBGQyKjgYKBJroF3AQKwflYecEW5jqGaDdoHFYcOghsqsQunmPjiJwdB+01q8Hg1aWcJi0CBcTyv4v8qZ2FG+nSgL1PXw+Eob60OFfFhHoNUZTPJIJ/Xf0PB4xBYbQ0y39u0sd6DXhX1YiPng0fHbEIDe3kN1WFGzkw6Bw+w/VqqcA99maUFYRYNeMPLx8Xo2Aq98GA5yd4eziAqcxgZjtrY2TvwbhfNHdUOo1QCO2J+N3LB2paS/LDPcCrKT1qqO+NttjS0JaOT2C9LQkoDHbg+TH/yuCeh3gs/wk/mH37Lf/3IAJ5k+wxrUP/A4V/y6wPIz4FhbaO2FLdj/8cugOnqWl4nH4WazwbMHXqIb6DdndfgJSUiv5PN/X55OcijIfR1oKktAYjWQ+DKFIxL/i5eYim3/5RpL3k8i2ix9/LR1pxdfqVEjdciZO/XMcUxvuxljv1fg3vxr/zgl5SxRu/zH1WgIM/0kT9fUUsWtmHpKfiPkpVcddyj1gygz0Tg7G7PUPpFfKaZijQ+dkXLj6EErq6tDQ0JAM6ippuHf9IdIKig8vAQUorMqPpdS5ZWbiyPFLyJPpCTF5V3DiSBo6dbR4yx+QV3H9b8AI0xF15TTCEhgoqmujpeUQ+C4IxreWyTh9/T5fq0ipdT6/jb8eGcLjh6mwt26BBmoCMEw+oh4+4CtUg7oFOlrmIPT4BeTIbCdx3GksnbMYZ55W9/OpxN1QnI3iX7MYRoSIU4cR26Q9Wku6dHWho6+OxIdRSOHbwl14E3f1PKr8zjTM0LZ9Bo6eKPm5I/Esjl3nX1eifqfuMNftgp+2rIRVxA8YOfsSMmSXI/F+/g0QUoTC7SOgrCqA0w+aaNpaCSFz8vHsQalv2VUgMPTEHH8T/LVwDg684AKvBcbMGo/URd7w23gJUc/TkRx9E/t+HI5+dpOwJ44PUd1maKn+CCd2HMD1WzFIL7PTKSYQGMNr5niIV/liXPBFRCamISnyItb6+mC10AezRrfia1ZDNdb/Zo+xc+IQDPVbikuRychIeYQb+9bh4L066NXJhK/DKm+d2iYwb/wMJ3ftRVhMOrLTY3Fjqz9m7njFz1R1ku00wxei4PHwXX0ekUkpeBp+AvMnjcSMw69Qjw2dKn8+b9I0A3smTcXBiGdITY7BzR3fwHdhNL78aQI6S35bqIj2PQah9om5mBB0BDdu/YXT6/3hF5IGfX4RbyIQtILXVA9krRqPSeuvIPpFGhLuHUegzzrEGvCVWAwjxO1VdrC0/RF/vir7OSo398KazWORs8wTk/Y+e/1zhff7b4AQKQq3jwR3k+SvJmnAwlYF++YV4EU1e3Dcea9O/gEYrnAIAUsuSXoMWn0X4o+ddni+xAntmurAsHU3+J3Rw5QDe+Fvxp/7UOuPqWu9UbjNDb2sfbDvqbS4Ilp95uNUiAvSljmgvZEujNrZY2mqPXadWYx+dd6i11bN9VdGoNQR3+/cAPuU5RjUpjF0DMzQy/8MDH/ajyXO2nwtVjnrFChZYerWQOif9EZ3Ex001DOHV6gFfpzejZ+perT6BuGPXc54ucIF7Zvpo6WVEzYLPbFjz0/oxN+/sUqfz5t0nIbgiXlY8OUXMGjSEn2+uwSzeWewfmRjvgLQyHEhNn5rjL/nuaBnfw8suGKC2Ys9qhxunPpDV+DkKls8mDMQ5oa6MO4xFdGu6xBgy1eQECErKQaPnzzFywK+qJQGfRdg+y8tcGKCJ5b/w9+55D3+GyCkCN1bsgZ9LDdO5g5V5STHI0WoBR2dulBTLBtC4oJMpGewO9wGtaBShUOL3Lf0rKREZGnqQq925VciVkV1118Z7jdrWclJSM1Vg7a+NjRlr/iUUd46GbYsKS4B2Wps2DSu8x7awm2nBLxU1YZ+PTUolrO88j4fJv8IvOs4Yxdfp7SRe7Ow5qviC3tEuWlIfFGIeo0bQVOpgvebl4EsRgu11d/+PTGiHKTEp0LQUB8NNcr+u+ber1CoCOUKtnll3ue/AUIo3GoQPfKGvC1GlIwH1/4te7EIr34ra5hq04EXQipC4UYIIUTu0Fc/QgghcofCjRBCiNyhcCOEECJ3KNwIIYTIHQo3QgghcofCjRBCiNyhcCOEECJ3KNwIIYTIHQo3QgghcofCjRBCiNyhcCOEECJ3KNwIIYTIHbpx8geUk8/g8gMGETEiJGdIN7t2bQHaNVNEd1MBNFTpMR+EEPI+ULh9ACIxsOuSCDsvFYB7yHAHYyXo1JV2mp+/FONWtBDc46vcbVTgZqMIRepPE0LIO6Fwq2GZucCMkAI8ThRhVG819G+nAqVSz2kTioDTEQXYci4PX+gpYp6rCrTU+YnkkyDOfoks5TqozT9lmxDy36I+Qg3iemxcsKVlMFjpWwuDOpYNNg5Xxk3j6nB1uXm4eSuT9+wyNkxzx8BupjA2boOeX41B4N4IpAo/nu8qDJOOY1P6Ytjq23xJxe6tGY7+/fq+HgYMcYHP5JlYdSwK2Vx39yPGMLcxv7sumrlvx4uPoK2SbTlmK2I+QFuq8xkT8iFRuNUg7lDkE7bHNtdDA43qFG/qXLazfDdOiCsPCpGQVpxiXB2uLjcPN29FRE/3wde2Lxb+0xhf+S3AioX+GND8FfZP6I6hc64g46MJAzFSHl1ERALbfX2DnMTbuPS4LmxchsGFHRz7d0bjgr+xwq0Dek6/iMyPOuCMMMB/OqaMskZ9voSJWYOBjayx7P6Hb7dkW95/jnx+vGZV/TMm5EOicKsh2XmQnGPz7K1WItjO3y2E59JM/BySg+0X8uG7OhMLDuSgUCidztXl5uHm5ZZRnlsbZmCv3mwcOLgQk1ztMNjJB9OX7sfp3x0QtWgxjqbyFT812pYYNnYsxvr6Ypz/FASsOoEr213xYtmP2PyIr/MREghqo+Po2Zj2lTGUuJOnHEaE/Iw8fEQdaUI+KxRuNeRapLRHNqCdiuQv5/5TEYIO5sCnnxr2TKmN38fXwgY/LcS8EGPVieJvvkXzFC1DFsPkIu7xYygZt4RR8aIlGtj/hojIlRhUiy9g5UYfwS++jrA1b47W3b7EuIXH8SS7eI/LiF8ifMdMePZri+aGhjCxtMO3v13CC7G0DnfY6aBfFwxbE4bwTd/A2coIOv4nJdM4xcs3hpllf4yZuxcP+CtBiwkRe2wexjlao3XLNug1YjZCH+Xw0yrXoN8Q9EIYbt8vTvrK3lNxe+8i5vhsuNmao6WpFexHB+BodNneRdGyerZpAQtbB4wLPIjo3JLtZ4RJuLx6Mpx7tIGxUSt0HTwev11J5qcWr3Pw8nDJeOw2T1g7BuEOorDK3RJWXb/G0fTiZb5pnRVt88K/FqB/1xHYHluqffG7MLprTwReLttXK17WbdwPmQL33hawsHHGtxv+RhaTjfAtP2DkwHZoZcZ+sZi+D4/4dlR3OxLysaFwqyG3nojQzkipxDm27Rfy0NNCGQM7FKeSDttTm+2qgbbNlPgS6Tk4bl5uGaUJBOroaNsPqkcWYNa+u0iVuR5IoFwHeoYGqKcm7T2I/l0DRxtvnFDpCf+l67D0m74oCPGA7bg9eM4w7A6sAPeW26PXuMMQdp+IoI3rEeDWGLfmDoXX+seSZXCHnTLiI3Bjkx++P14bA/+3HOs9zSVTpMv3wP58K0xaFIxfx3RF5t5RGDB6C2L4cORkXZqLH3Yrovf4X7EyaDxMHq3EcI9FiMgvuZMuV+YrvIQS1FSk2+dN76movWGHpmPMr0no5rcEwYu/hmV+CNxtXLE1pnidwoe/w6G7Bw4LrTF+QTAWTuwB4WEv2NitxAO+y8UwYtxd7oQhi6JhNnoeNm9bAl+LWCx0+xp744uWJV1nVLI0XBra+GP+VHsYQheDJgdh/gJvdNCQTKrSOiva5krtuqHdiz3YEvqErycVF7oZIQltYNWx1LcdCemy/t41FQEXm8JjeiC+tcnH8UkuGDVmFH66YYRhPyxAwNg2eLZ2BMasfVhivqpsR0I+StzVkjS8/8FvXTYz/0Auk5rJvB76zHzF7LlcUKKsooGbl1tGecvOyXrMHJrSm9FVAKNuaM0M+yaQWXv0bybuVX5xndwEZqtzPabp2KNMUm5xefbD1UxPVX3mf2fz2DoZTPTFXUzw4QdMBl8nJzeLCZ2gy2DweuYZW5aTm8gEDwKDzoFMRGbJ5W9xqsfUttvIPM4pLk+7vJCx7zWK2fhAZt62s5i/MorrZF6bxZjChJlzs7js4rQvGLRj1yHT1oyEW8xGL1MG9dyYPc+55VXlPfHrrGXHbIotrpOT9YBZ0F2J0fMNZVIk7yue2exYh6ltv4l5ItP+7JgtjF3tWozdxjjpfLmRTJAVGOPpV4qXxc57ad9R5uZT6edTtM4m318srvNgGdMV5szcMJk2VHmdFW3zXObCFGMGlguZe68/r0fM4u5gDL899/ozlN2Wr5dlOZ/5J6tonkhmkTVb1nwac/l1WS5z+ht9BgPXMHGy871xO5Z97zTQ8DEM1HP70GSuFBew+w5VJSE0lAvLDN8MUsRCT2W+ZkkCJQP0DziBu5GXsXFyT9SK3IVpQzvBzHI4VlxPl1YS3cL5Y0BfWxO8evoMcXFPJcMzhVawNElAxP0EtheoBv0uThg1wBhKojykPo3CP9fO4k4Su94H0YiVLkmiUbeuaKUs03hRGM6HZsNp1DDoKRSXq3f6FrtOrIObUXFZfZtusJC5RF7RtA3aIhLPXvd8ePcXY3BrU7Q2M4GJkQ4a6nfA+DN6+GnnIgyuzU6vwnt6bZAr7Brxr1kCJWO4ePRD4rlriOIK2GVdOJYH55HO0JVpv0DHCSMdRTh54SYKJD1BbbS00EP09kAE7r2GmFeF7HbTRqchA2CuXf7nU6Eqr1Oq9DYXCBTRyXkkTG/swtFIvvDJUey53ByeLlZQLjrfVw7trp3QQkk6XSBoBpN27AY1aQEj/sgCt2zdxoZAUgrSpEVSb9qOhHykKNxqSEN23/E8veQ5s+b6irj1mL9yhKWiJELCAyH2zcvH7jnlDxd3FvK1SxKwOzJNgy6wnzAHvx0Iw7/3/8RCq2jMdPLH4RR2B5kUh+jcdGwY0QKtWhrLDH2w4DabI9ExkuXkPTqKwNF90Fq/HgxaWcJh0iJcTCj7z0JVqdSOPOkpHuc3QxODN+/gNdVK/WhPSQkqEEMsc+hSQrcf/APmIoAd5s0YBlO2Vu8ZGzCjlzYUuB13Fd8TR1dfFxqldvaN9JtA6VEs4rlN+rr9JQ/lCQQqMGhqhIKoWCRKxjXRL+AgVg7Kw84JtjDVM0C7QeOw4NDD6v9EoYrrLFJmm7MEFk4Y0SkcIUfvS8ajjobgRttRcOpQ+f/KasrlHLJUUCixAxDIfvPivXE7EvKRonCrIR3Yr8QRT4SSH2gX8bBVw593CnAqvEAyrihgcOOAECI27wxNlUoMBq0U8TxajMirxWHIYRgRCvMLUChzGR4XdLWadYPX4llweHUEZ26yy6/XAI3YXoffsXSkpr0sM9wLsAIjvoWF9k7Ykt0Pvxy6g2dpqXgcfhYrPFvwS65E/YbQQQJSUqu5g69M/TYY4OwMZxcXOI0JxGxvbZz8NQjnM/l1VOE9FUlJSyvRC+K8SnsBoZ4uJB2u+tps7ykJaXxHV1Z6WhLQmO058uOCeh3gs/wk/nkaj9t/bsAE8ydY49oHfoeqeVlqNdZZEYGgJRw9bBERchh3xZEI3XMDViOcYFoqgN6XN25HQj5SFG41xKqldNOeipAGGad1E0VMcdDA2lN5cF2cISkrCrbuzmqvB2sHNaQ8E0NJFXCYpiap95r4JmaZ1kKXX8IgKrXTEcfH4ImwDurWYb+la5ijQ+dkXLj6EErq6tDQ0JAM6ippuHf9IdIK2J3h89v465EhPH6YCnvrFmigJmDDMx9RDx/wS6yEugU6WuYg9PgF5Mi0Qxx3GkvnLMaZpyXbVl3c5fUDpsxA7+RgzF7/QPpeq/KeeMKTp3Epmx9hMUwa/gg9B/WuFjDmCtS5ZWXiyPFLyJNpP5N3BSeOpKFTRwtosoHBCNMRdeU0whIYKKpro6XlEPguCMa3lsk4fV3ae6oY9yWEf8mp4jrfpOlQD/S9vwtHdx3C7vDe8HSQvKMa8cbtSMhHisKthmiymcTdK3LbuTy8eFV8eLKnuTJ2fqeFH534y+dKEbM9vUPLsxH/rwjD56ihgUGpnZ1CB7hOtELsIm94L96F039HIyE+GmHHV2Gs+wzc6eqH4R24cGiBMbPGI5Wt57fxEqKepyM5+ib2/Tgc/ewmYU8c2yZtE5g3foaTu/YiLCYd2emxuLHVHzN3vOJXVjGBwBheM3whCh4P39XnEZmUgqfhJzB/0kjMOPwK9XT4iu9AYOiJOf4m+GvhHBx4UcX3xKtV6xx+nhCMy49eIDXhPk4uGIXv9+vBf7IjGrABImn/zPEQr/LFuOCLiExMQ1LkRaz19cFqoQ9mjW7FL+kxdk4cgqF+S3EpMhkZKY9wY986HLxXB706mfB1yqHbDC3VH+HEjgO4fisG6WyYVX2db6BnB7evYrBs8kI8HDwCXzXmy2vAm7YjIR8rCrcaxN0E2UhPkQ2LnBIBp6osQBuZS/9lRYUVIOovIdtjUy0bbCzu/EybybtxeJ4VHq8Yg6HdudtvmaL7sF/xuPMv7Lf5ybDgfwqg1Xch/thph+dLnNCuqQ4MW3eD3xk9TDmwF/5mihAoWWHq1kDon/RGdxMdNNQzh1eoBX6c3k0y/5to9Q3CH7uc8XKFC9o300dLKydsFnpix56f0Ok93GORe6+d/AMwXOEQApZckvQQ3/SeitRzXIL5bUPh1c4ABl+0g8e6AozcdxTTOxefe9LqMx+nQlyQtswB7Y10YdTOHktT7bHrzGL0qyNtv0CpI77fuQH2KcsxqE1j6BiYoZf/GRj+tB9LnLUldcql1h9T13qjcJsbeln7YN9TaXFV1vkmAkF9DHZ1giijEPbDB6NhDYZMVbYjIR8junFyDavsxsncVZHcRSNFhyU5uVkMts/KhFotAZxnqEJFveIdFyPMRVpSPFLyNKBroIs6auV/V+HO0+Uks/WEWtDRqQs1xZLLZAoykRSXgGw1Niwa14FKNXeWDCNEVlICXqpqQ7+eGhQ/wDf6it4Tw6Riq5MeAs3YntG8rijITELiK1Xo6teFqswVirKk7U9ElqYu9GqXfyKJ+01gVnISUnPVoK2vDU3ZK0crIWa3bXoGG2oNapXYrlVZZ2UyQ8eh1Vgx1ketxSD238r79jbbkZCPCYXbB1DRI2/8BymWCTdO5ksGIT9XLeBISaV3yvJGLCxgg+YeljraYLvlCYT92h1qNfBlQt63I5F/dFjyA+CezzbCVhH7flDD5K9UUUcDeJoivYyS2y+9ShYj9kHh6yEtUYhubNilxDE4HFR8QQr5vHG3Xjs+URf19CyxOMcXy7+rmWAjRB5Qz+0/Fn5KiPObCyRXTZZHv6UC3ANLXTFJKsQdPoy7eR6PtTqhl2nRPfrlA8PkISHiBqJyGsK0oxl0+HOrNUGetyP5PFC4EUIIkTt0WJIQQojcoXAjhBAidyjcCCGEyB0KN0IIIXKHwo0QQojcoXAjhBAidyjcCCGEyB0KN0IIIXKHwo0QQojcoXAjhBAidyjcCCGEyJ3P+t6SUVFPEP04lh8r1q5ta+jqVvIgSkIIIR+1zzbcwm/fR8juQ2jcWA+KMg9fzMsrwMuXr+Dr44EmTfT50pojzn6JLOU6qP0enlxNCCFE6rMNt42bd6OWpiYGfdmbL5FiGAaHQ0+zvbrHGDd2BPT1dPgp7457ZMnZ2UOwrO4vCP1fF3b8Nn7tYIlFxuvwcO8INKJncxFCyHvx2YbbquAtaGZoANseVnxJMbFYjAOHT+DevX/5kpJUVVVg0doEjg6DoKysxJe+GcPkYP/IupikfQLPl/RhxzNwa/NSnGk4At8P+QJKFG6EEPJeULiVE24cLuDinibwYyXl5ubh5OlzsOzcAf379eBL36x0uBFCCKkZH/3VkkeOncWz+ER+rCxuGlfnfVNQUECzpgblDqYmzdHWwgyPn8Txtcv3KmILproPQOeWLdCxvw9WXk2B7DcJhknHQb8uGLw8nC8hhBDyPnz04aZVSxP7DpwsN+C4Mm4aV+d9KCgoQGLic8nfN1FUVIRILOLHysoL+xUDe03GtfpDMG3VGswdZYTLk72xNpKvICFGRnwEopLz+XFCCCHvw0cfbr1su8LCvFWZgCsKNm4aV+ddxcQ+w7KV67F2ww7JX278bTFMIkLmzcfToetwaOXXcOrXG4M8fsKOTf2RfZuvRAghpMZ8Ej/i7tPLukTAyQYbN+19OHHyLNqYm2JewA+Sv9z4WysMxzV2did3O9SXuUhEycwJrpb8CCGEkBrzydyhRDbg3newcTIys2Dc3AiqqqqSv9z4W3sej5gCQ+jplr6SUgd6TfiXhBBCaswnE26cooB738HGMTNtidBjZyS/ceP+cuNvrX5DNsYSkZrGj7+WjrRk/iUhhJAa80mFG4cLtfcdbJxBA3uhU3sLvHieIvnLjb81DTO0bZ+BoycuIY+RuT4y8SyOXedfE0IIqTGfXLjVFEVFJdjYdIXbcHvJX278bQkEreA11QNZq8Zj0voriH6RhoR7xxHosw6xBnwlQgghNeazDTd1NTVkZ+fyY9XHzcstoyL1h67AyVW2eDBnIMwNdWHcYyqiXdchwJavQAghpMbQjZNL3Ti5KkRiBvHxiXBle3nt25rxpeVjRDlIiU+FoKE+Gmoo8qWEEEJq0mcbbpyKHnlTFcZfNEWLFkb8GCGEkI/JZx1uhBBC5BNdUEIIIUTuULgRQgiROxRuhBBC5A6FGyGEELlD4UYIIUTuULgRQgiROxRuhBBC5A6FGyGEELlD4UYIIUTuULgRQgiROxRuhBBC5A6FGyGEELlDN07+kPIzIbx3GsLoaxBlvpAUKWo1gpKxFZRa9wdUtSRlhBBC3g2F24cgFqLg/O/I/TMYDPufavOuUKwnfSS3KP0Z8h9dh4D9T73XeKj0nMD2p9/+KeCEEEIo3Gock/sKOVvHQpjwAFoDvoFGR3u2u6bMT+WJCpETdgiZp5ZDSd8UGiPXQaBeh59ICCGkuuicW01ie2xcsIkzk9HQby80uriUDTYOW8ZN4+pwdbl5uHkrcm/NcPTv1/f1MMhpFL6dGYR1R+7glfjDf1eRtOe7Q0hlPp7vSdJt5IgVYYV8SVkM8xibvbht+CuuvYe2M0we/pjVF0OW/MWXvBnDpOPYlL4Ytvo2X0IIeR8o3GoQdyhSmPgQ9b1+h2JdPb60Ylwdri43DzdvRXISb+PS47qwcRkGFxcXDOraBIg7g+WjrGDtughXkqu/o2Zi1mBgI2ssu1/9eSXtiUxFxXH84UnadCkUizafQ04FwSUK24bFIRfZenHI5MvejRgvn1zEzWfVWZoYKY8uIiIhlx8nhLwPFG41JS9Tco5Nq59fyWBjd7S5YYfxctcPkoF7zZUV4epy83DzcsuokLYlho0di7G+4/D1D/OwbMtpXLu6HjaPZmPET0eRXt2eCCNCfkYehNXPto9a8vYNOJYqfS2LYXLx57aNeMSPE0LkC4VbDRE++EPyV6OTg+SvBBs46dv88Cp0PgTqWpKBe82VyQZc0TxFy6gqLVNXLFo0Hopbf8SqW2K+lF20+CXCd8yEZ7+2aG5oCBNLO3z72yW84A9hxm7zhLVjEO4gCqvcLWHV9WscTZdOe9O8sl5FbIL/kE4wadEG/YZ9g+CryRDJvK+qLIsRJuHy6slw7tEGxkat0HXwePx2JZmfWiw3+gh+8XWErXlztO72JcYtPI4n2aXa1Nsdbo0OYf3eGL5ARnooNm3PwciRznxBsaJl92zTAha2DhgXeBDRueW93y2Y6j4AnVu2QMf+Plh5NQWytbhDjgf9umDw8nC+RIqJ2YYRXYdhc3TZZRap0vsjhFSIwq2GCB9fg0pzyxLn2HJvHUH+kzBo++1FHftZkoF7zZVx015j5+Hm5ZZRXZq93OHRNBLXbiVKxhmmAPeW26PXuMMQdp+IoI3rEeDWGLfmDoXX+seSOg1t/DF/qj0MoYtBk4Mwf4E3OmhUbd7XnoXAb8J+1HWejVW/B2CY4T3M7d8DP17IkkyuyrIYRoy7y50wZFE0zEbPw+ZtS+BrEYuFbl9jb3zxjl307xo42njjhEpP+C9dh6Xf9EVBiAdsx+3Bc9keq5otvMZ1wsV12/GPqGQwxO3dgMMNxsDLrgFfIiV8+DscunvgsNAa4xcEY+HEHhAe9oKN3Uo8kOnW5oX9ioG9JuNa/SGYtmoN5o4ywuXJ3lgbyVeQECMjPgJRyfn8OE+YjtiIGLys4Dhuld8fIaRCFG41RPzqORTrNebHpPIfXYV6m4FQrC/9GQCHe82VcdNkcfNyy6i+ZjAyA+5EP+HHxajfzQ/L9x/E1lm+cOjbH8O+WY7Z7rXw56krkotANJt1Rg/LFqgDLRh17gFb2/ZorCqo0ryvPXiKzkv242evr9CnrwN8gg5hs3cBfpu5HpGSelVZVhwuhN6EwaiZ+Hm0HWy6D8boX7fiwOoxMFWRJgHDpODA3Fl44rQdoSv94NSvF/oP+w4bDgSh9dGpWHFVduevgNauvugbuQHbLxcHDCO6i53rz6Gt70hYqvCFLIZJxv6fZyHcNhiH138H1y/74Mvhk7HuSDBsbs/BnD3Sz4NhEhEybz6eDl2HQyu/ZtvQG4M8fsKOTf2R/Y7XhVTv/RFCKkLh9h9iIECBoiZUXZZAzSMYeUp1Xg8qdnOhMWYLX7M6FKHMdhYLCgogZgNDIFCDfhcnjBpgDCVRHlKfRuGfa2dxJ4mt9CAasfxc5anWvMaucLJS5Ue4eWuhz7DhaHTzMsLSq7osbbS00EP09kAE7r2GmFeF7Hza6DRkAMy1+R6w6BbOHwP62prg1dNniIt7KhmeKbSCpUkCIu4nSOsV0XOEt0s2tm46jgw+jPOvbsWGB30w1tWM/QRksMu+cCwPziOdoatQPEWg44SRjiKcvHATBdwyCsPBNh1O7naoLyiup2TmBFe2s/5Oqvv+CCHlonCrIQp1dCBKj+fHpFSbWyP3n5MQpT2TjBcqaiD2gQD75uVj95zyh4s7K76UvXxPERsJWBgbQYHf8eY9OorA0X3QWr8eDFpZwmHSIlxMqNpHX+V5DfWhw78sItBrjKZ4hKf8ZnjTsgQCTfQLOIiVg/Kwc4ItTPUM0G7QOCw49BDZfDAhKQ7RuenYMKIFWrU0lhn6YAHba7ofXfr8mhYGjvaC5r71OMDmAsNk4NSmLch08oFjyY41u+yneJzfDE0MZLpzLIFABQZNjVAQFQvJwd7n8YgpMISebukf2+tArwn/8m1V+/0RQspD4VZDlL6wQsGjG+w38eJwUu9gB1Wjjkhe6YJXh36GWKCEGweEEAnZbDBVKjEYtFLE82gxIq9W7wJ74Z3jOPKwEdqbS/eyjPgWFto7YUt2P/xy6A6epaXicfhZrPBsIZlemWrNm5wKtoNWUloKktAYjRpWfVmCeh3gs/wk/mET8fafGzDB/AnWuPaB3yH+ksd6DdCI7eH5HUtHatrLMsO9ACtpPRmq3UbBx/QPrA95ACbxIDbsU8eoMYNRR6bXJVFfm+2xJSGtzBsB0tOSgMY6YN8KW68hG2OJ7Pokk2SkI63stS8QikT8K15uLrL5l2W8xfsjhJRF4VZDlEz7Sv7m/H1Q8leC3ZnW81yJOkOmgcmVXuZfFGzdndVeD9YOakh5JoaSKuAwTU1SrypEqX9jydSFiB74M/xs+F7F89v465EhPH6YCnvrFmigJmB7L/mIevhAOr2EAhTKZml15r0birNR/GsWw4gQceowYpu0R2uuS1eFZTHCdERdOY2wBAaK6tpoaTkEvguC8a1lMk5fvy+tpGGODp2TceHqQyipq0NDQ0MyqKuk4d71h0grKBVYLIGiOdzH9kb42i3Ysm0tzjT3gWf34kOor6lzy87EkeOXkFfUU2QxeVdw4kgaOnW0gCYXiBpmaNs+A0dPlKyHxLM4dp1/LVEXOvrqSHwYhRS+HnfRTNzV8yhv60u8xfsjhJRF4VZT1LQk94rMPLMSopfSKxcl2J2jesehqOsWxBeUJGa/5B9ano34f0UYPkcNDQwq2JllxSHi+g1cv3oF50J3Yf3i72Fv1QNLUp2wepEnmhSdM9I2gXnjZzi5ay/CYtKRnR6LG1v9MXPHK+n0IrrN0FL9EU7sOIDrt2Kkv5Or6rycphnYM2kqDkY8Q2pyDG7u+Aa+C6Px5U8T0JlrS5WW9Rg7Jw7BUL+luBSZjIyUR7ixbx0O3quDXp1MJDUEghYYM2s8Uhd5w2/jJUQ9T0dy9E3s+3E4+tlNwp644p9AyDJ09oF9ylJMnB0GW98RsFAsu10FAmN4zRwP8SpfjAu+iMjENCRFXsRaXx+sFvpg1uhWfL1W8JrqgaxV4zFp/RVEv0hDwr3jCPRZh9jia4XYeopo32MQap+YiwlBR3Dj1l84vd4ffiFp0OfrlPa2748QUhKFWw3iboKspGeCtM0TSgZcJaLCChD1l5DtsalWHGycR2vg1asHevXug+H+Qdh9NQUtJ+zB9fNr4dKcv/iCJVCywtStgdA/6Y3uJjpoqGcOr1AL/Di9G1+Dp9YfU9d6o3CbG3pZ+2Df02rMy+k4DcET87Dgyy9g0KQl+nx3CWbzzmD9SOmJraosS6DUEd/v3MCG0HIMatMYOgZm6OV/BoY/7ccSZ22+FqDVdyH+2GmH50uc0K6pDgxbd4PfGT1MObAX/maKfK1S6g3BmJF6gOZQeLs05QvL0uozH6dCXJC2zAHtjXRh1M4eS1PtsevMYvSrU/x51B+6AidX2eLBnIEwN9SFcY+piHZdhwBbvgKvkeNCbPzWGH/Pc0HP/h5YcMUEsxd7VBhunLd6f4SQEujGyTWsshsnc1dFcheNFB2W5ORmMdg+KxNqtQRwnqEKFfVKAq4amIJMJMUlIFuN3Vk2rgOV0uebeGK2XnoGu4NtUOt1narOyxHlpiHxRSHqNW4ETaWy9aqyLO43cVnJSUjNVYO2vjY0lctfH3foMyc5HilCLejo1IVaOb2xt8UwQmQlJSJLUxd6tYu/LJTGiHKQEp8KQUN9NNSoOHjEeRnIYrRQuxqfZ02+P0LkHYXbh1DBI29U7H4uE26czJcMQn5+/wFHCCGfCwq3D6nUw0o1x2zFnoB81G6gAPOeJXsH2ekMTq3Ng14LBbjMKufiB0IIIRWicPuPhZ8S4vzmAslVk+XRb6kA98CqXzFJCCGEwo0QQogcoqslCSGEyB0KN0IIIXKHwo0QQojcoXAjhBAidyjcCCGEyB0KN0IIIXKHwo0QQojcoXAjhBAidyjcCCGEyB0KN0IIIXKHwo0QQojcoXtL1iBRIXD7DyHyMqu3iTXqCtCmjxIU6LmUhBDyVijcatCtE0Jc3V2IRs2ql1LxkUL0GaOCNn2V+BJCCCHVQeFWg67uKcSz+wzcZmryJW/AfhJnt+Yh4mwB3OepopFR+UeN760Zjsn7CjFk/m74dyz/KdEM8xhbRvtiZ3wfBJyeBqtKnp5dFQyTh7Ozh2BZ3V8Q+r8ufGnlGCYdx6e6YEuzxdgzsS1fWj3vYxmEkM8PnXP7SIhFwNFVObhzoQDOM1QqDDZOTuJtXLoUikWbzyGHKf+7iShsGxaHXGTrxSGTL3s3Yrx8chE3n1VnaWKkPLqIiIRcfvxtVG0ZTMwaDGxkjWXslwlCCKFw+wgU5jPYH5SN2HtCuM5RhYFp1Q5jJm/fgGOp0teyGCYXf27biEf8+GeBESE/Iw9CyjZCCIvC7T+Wm8Vgd2A20hJFcJurBu1Kemwl9HaHW6NDWL83hi+QkR6KTdtzMHKkM19QLDf6CH7xdUTPNi1gYeuAcYEHEZ1bNhFeRWzBVPcB6NyyBTr298HKqyncUdPXuMOFB/26YPDycL5EionZhhFdh2FzdMUpU9QGW/PmaN3tS4xbeBxPsqueSkxhHPZ90xc2I1bidiaD2G2esHYMwh1EYZW7Jay6fo2j6ZRyhHzOKNz+Q1npYuwMyEZhAQO3eWqoq1ON82JqtvAa1wkX123HP6KSO/K4vRtwuMEYeNk14EukhA9/h0N3DxwWWmP8gmAsnNgDwsNesLFbiQcyXZ68sF8xsNdkXKs/BNNWrcHcUUa4PNkbayP5ChJiZMRHICo5nx/nCdMRGxGDl0J+vBTRv2vgaOONEyo94b90HZayIVUQ4gHbcXvwvIJDrLIY4TMc8R+M8VdbY0bQJLTVEqChjT/mT7WHIXQxaHIQ5i/wRgcNfgZCyGeJwu0/tG9hDtRqAcMDVKFZt7oXfCigtasv+kZuwPbLxQHDiO5i5/pzaOs7EpYqfCGLYZKx/+dZCLcNxuH138H1yz74cvhkrDsSDJvbczBnz3O+XiJC5s3H06HrcGjl13Dq1xuDPH7Cjk39kX1bUuWtMUwKDsydhSdO2xG60o9ddi/0H/YdNhwIQuujU7HiauXhxggTcHzyEHjfsMW2w0swQE/6z1ezWWf0sGyBOtCCUecesLVtj8aq73YBDSHk00bh9inTc4S3Sza2bjqODL7Xk391KzY86IOxrmYosXsX3cKFY3lwHukMXYXiKQIdJ4x0FOHkhZso4JZRGI5rZwEndzvUl7nCUsnMCa6W/MjbYttw/hjQ19YEr54+Q1zcU8nwTKEVLE0SEHE/ga9YDlECTv5gB89LVthyZBm+1KcfARJCKkbh9h9ynqKBvCxg9+x8ZL988yG5srQwcLQXNPetxwE2FxgmA6c2bUGmkw8cG/NViiQ9xeP8ZmhiINOdYwkEKjBoaoSCqFgkcgXP4xFTYAg93dK/sdOBXhP+5dtKikN0bjo2jGiBVi2NZYY+WMD2Cu9Hl3P+kBcfPBo+O2KQm1vIJi0FGyGkchRu/6Fa9RTgPlsTyioC7JqRh5fPqx9wqt1Gwcf0D6wPeQAm8SA27FPHqDGDUaf079rqa7M9tiSkpfPjMtLTkoDGOmjIjdRvyMZYIlLTJJNkpCMtmX8pQygS8a94ubnI5l+WUa8BGkEbfsfS2eW/LDPcC7DiK5albjkTp/45jqkNd2Os92r8m/82XwYIIZ8LCrf/mHotAYb/pIn6eorYNTMPyU/E/JSqESiaw31sb4Sv3YIt29biTHMfeHZX5afKUDdHh86ZOHL8EvJkLtxg8q7gxJE0dOpoAU0uEDXM0LZ9Bo6eKFkPiWdx7Dr/WqIudPTVkfgwCil8PYYRI+7qeTyQjJVDg2tDMi5cfQgldXVoaGhIBnWVNNy7/hBpBaUCWUb9Tt1hrtsFP21ZCauIHzBy9qXXh2KLFaCwggtZCCGfFwq3j4CyqgBOP2iiaWslhMzJx7MHpXpDb2Do7AP7lKWYODsMtr4jYKFYNiQEAmN4zRwP8SpfjAu+iMjENCRFXsRaXx+sFvpg1uhWfL1W8JrqgaxV4zFp/RVEv0hDwr3jCPRZh1gDSRUJgUAR7XsMQu0TczEh6Ahu3PoLp9f7wy8kDfp8ndIEghYYM2s8Uhd5w2/jJUQ9T0dy9E3s+3E4+tlNwp44MRuQQtxeZQdL2x/x56uyvTPl5l5Ys3kscpZ5YtLeZxAVBZxuM7RUf4QTOw7g+q0YpJcJPkLI54TC7SPB3ST5q0kasLBVwb55BXhRnR5cvSEYM1IP0BwKb5emfGFZWn3m41SIC9KWOaC9kS6M2tljaao9dp1ZjH51igOx/tAVOLnKFg/mDIS5oS6Me0xFtOs6BNjyFXiNHBdi47fG+HueC3r298CCKyaYvdijwnDjaPVdiD922uH5Eie0a6oDw9bd4HdGD1MO7IW/GXcuTYSspBg8fvIULwuk85TWoO8CbP+lBU5M8MTyf/g7l6j1x9S13ijc5oZe1j7Y91RaTAj5PNG9JWvQx3rjZK53lJWUiCxNXejVLv/elBxGlIOU+FQIGuqjoUbF70Gcl4EsRgu11Ss+rFgaw4iQkxyPFKEWdHTqQk2mt8m1TyhUhLJy1ZdXRFyQifQMNkQb1ILKO95PkxDy6aJwq0H0yBtCCPlvULgRQgiRO3TOjRBCiNyhcCOEECJ3KNwIIYTIHQo3QgghcofCjRBCiNyhcCOEECJ3KNwIIYTIHQo3QgghcofCjRBCiNyhcCOEECJ3KNwIIYTIHQo3QgghcodunPwB5eQzuPyAQUSMCMkZ0s2uXVuAds0U0d1UAA1VekQLIYS8DxRuH4BIDOy6JMLOSwXgHhDdwVgJOnWlnebnL8W4FS0E9+gxdxsVuNkoQpH604QQ8k4o3GpYZi4wI6QAjxNFGNVbDf3bqUCp1HPahCLgdEQBtpzLwxd6ipjnqgItdX7iZ0yc/RJZynVQW+XD9Gg/9PoIITWH+gg1iOuxccGWlsFgpW8tDOpYNtg4XBk3javD1eXm4eatyL01w9G/nyNWhBXyJWUxzGNs9urL1vsV17ju4lvIOD0DA/sNxLzz2XxJzWGYdByb0hfDVt/mx29jfnddNHPfjhdv2f7q+NDrI4TULAq3GsQdinzC9tjmemigUZ3iTZ3Ldpbvxglx5UEhEtKKU4yrw9Xl5uHmrUhO4m1cuhSKRZvPIaeCHbEobBsWh1xk68Uhky+rDi5sTmxeiQuXzmHl1jPIrPEdvhgpjy4iIoHt6koYYYD/dEwZZY36fMn7wsSswcBG1lh2X/Y91dz6CCEfHoVbDcnOg+Qcm2dvtRLBdv5uITyXZuLnkBxsv5AP39WZWHAgB4VC6XSuLjcPNy+3jMokb9+AY6nS17IYJhd/btuIR/z4W3keipAj9THuf95Q3r8LJ9P58g9EIKiNjqNnY9pXxlDiTki+T4wI+Rl5EMpkW42ujxDywVG41ZBrkdIe2YB2KpK/nPtPRQg6mAOffmrYM6U2fh9fCxv8tBDzQoxVJ4p6LMXzFC2jXL3d4dboENbvjeELZKSHYtP2HIwc6cwXAIV/LUD/riOwPbZkD4yJ34XRXXsi8HI+XyIVd2QHTjZ2h8dMN7jWO4rdoc/5KVJcz+6gXxcMW3MXMcdnw83WHC1NrWA/OgBHo4vfS1XrlVY03+Dl4XyJVG70Efzi6whbc2OYWfbHmLl78YC/8pTDiF8ifMdMePZri+aGhjCxtMO3v13CC7G0Tuw2T1g7BuEOorDK3RJWXb/G0XTmjevr2aYFLGwdMC7wIKJzZdb3+v3dQfThAIwd2gUmrTpioM8iXEio+LAxIaRmUbjVkFtPRGhnpFTiHNv2C3noaaGMgR2KA0+H7anNdtVA22ZKfIn0HBw3L7eMCqnZwmtcJ1xctx3/iEoGVtzeDTjcYAy87BrwJewy23VDuxd7sCX0CV8iFRe6GSEJbWDVsbhNDBONQzvOoaWHAzqoWcPBtTGO7TiEpyUOTYqRER+BsEPTMebXJHTzW4LgxV/DMj8E7jau2BpTVLeq9UqTzheVXBy6on/XwNHGA/vzrTBpUTB+HdMVmXtHYcDoLYhhw4thCnBvuT16jTsMYfeJCNq4HgFujXFr7lB4rX8sWUZDG3/Mn2oPQ+hi0OQgzF/gjQ4a3JSy6xM+/B0O3T1wWGiN8QuCsXBiDwgPe8HGbiUevO72Sef7O+QHTD2gjv5fB2HVPHc0uD4LTmM3I5YPVULIh0XhVkNSMtjgqldy8z5KEKGDkTI/Vky3rgJ6saEni5uXW0bFFNDa1Rd9Izdgu0yvixHdxc7159DWdyQsi/MKULaC8whjXN5zBI/5kGKYOBzb+ycM3YfBRk1SJMHc24/tN0zgZt8RigIldHV0g9GFbTgUzVeQkXBTFb77gvG1c3/0HuSBaVtDEWh2BnOWnEG2TBhWtV5FGCYF+3+ehVvdf0fopu8xbGA/DB33M7Zu/AXdcq7gWixXS4z63fywfP9BbJ3lC4e+/THsm+WY7V4Lf566glR2PZrNOqOHZQvUgRaMOveArW17NC7n94UMkyxZX7htMA6v/w6uX/bBl8MnY92RYNjcnoM5e0r2ZBNzbDBn/Q9w6WeLPi7fYe2ysdA4exB/lqxGCPlAKNw+NJn9qAAMVJWE0FAuLDN8M0gRCz3LBmEJeo7wdsnG1k3HkcEHRP7VrdjwoA/GuprJrgoCgSI6OY+E6Y1dOBrJFz45ij2Xm8PTxQrK/HkmhhHj1v6tuNt2BOwtJEVQ6OQIt1Y3sf3AXWmBrEGusGvEv2YJlIzh4tEPieeuIYovk6hqvYqIwnA+NBtOo4ZBT6H4nal3+ha7TqyDm5GAfY9q0O/ihFEDjKEkykPq0yj8c+0s7iSx2/FBNCT5V1WiW7hwLA/OI52hK7M+gY4TRjqKcPLCTRTIhHJ9G2uYKxfX0zBtg9bsO3sazxcQQj4oCrca0rA28Dy95Dmz5vqKuPWYv3KEpaIkQsIDIfbNy8fuOeUPF3dWdt5GCwNHe0Fz33ocSOCCKQOnNm1BppMPHBvzVWQILJwwolM4Qo7el4xHHQ3Bjbaj4NRB5p+B8Ab2bY+EutJtbJ4+HdOnTcOPP+7CfTUV/LN1H26VOgSqq68LjVIXYDTSbwKlR7GIl2l6VetVKOkpHuc3QxODygM/79FRBI7ug9b69WDQyhIOkxbhYsJb/DN/vT7Z7i/3JUEFBk2NUBAVi0S+jKOpVuqHiUpKUGa/vNBRSUL+GxRuNaSDkSIingglP9Au4mGrhj/vFOBUeIFkXFHA4MYBIURs3hmaKpUYDFop4nm0GJFXi8OwPKrdRsHH9A+sD3kAJvEgNuxTx6gxg1GnnCv+BIKWcPSwRUTIYdwVRyJ0zw1YjXCCqUzd/Et7sfNpc3RvWx+5OdnIkQw5aNTeBkaPtmP/9ZLtSUlLK9GD4bxKewGhni60ZXKoqvUqVL8hdJCAlNSK04IR38JCeydsye6HXw7dwbO0VDwOP4sVni34GtVQX5vtsSUhrZyrRNPTkoDGOmjIjxNCPj4UbjXEqqV0056KkAYZp3UTRUxx0MDaU3lwXSw9oVYUbN2d1V4P1g5qSHkmhpIq4DBN5mRYOQSK5nAf2xvha7dgy7a1ONPcB57d2Rkr0HSoB/re34Wjuw5hd3hveDoY81O4nl82zu7didTek/H7qhVYvmLl62HZ76sxoetTbN9/EXkyISU8eRqXZH7jzTBp+CP0HNS7WqB4yVWvVyF1C3S0zEHo8QslftsnjjuNpXMW48xTtuz5bfz1yBAeP0yFvXULNFATsOvJR9TDB3xtWQWvf35RLnVzdOiciSPHL5V4v0zeFZw4koZOHS2gWc4XCELIx4HCrYZospnE3Sty27k8vHhVfHiyp7kydn6nhR+dJJfolSFme3qHlmcj/l8Rhs9RQwODN+9ADZ19YJ+yFBNnh8HWdwQsFCuZR88Obl/FYNnkhXg4eAS+kj18mXEGe/a8xMDhX6FxqR23QGAEO7deeLFrD87n8IWsWrXO4ecJwbj86AVSE+7j5IJR+H6/HvwnO6KBzDKqWq8iAoExvGb4QhQ8Hr6rzyMyKQVPw09g/qSRmHH4FerpsJW0TWDe+BlO7tqLsJh0ZKfH4sZWf8zc8Uq6kCK6zdBS/RFO7DiA67dikF6qR8mRrG/meIhX+WJc8EVEJqYhKfIi1vr6YLXQB7NGt+JrEkI+RhRuNYi7CbKRniK7c80pEXCqygK0kbn0X1ZUWAGi/hKyPTbVKgWbRL0hGDNSj03UofB2acoXlk8gqI/Brk4QZRTCfvhgNJQJltQTu3CocAhcBnNJUZbhV67o82oPdp96yZewq3ZcgvltQ+HVzgAGX7SDx7oCjNx3FNM7lzxXVdV6ldHqG4Q/djnj5QoXtG+mj5ZWTtgs9MSOPT+hk4oAAiUrTN0aCP2T3uhuooOGeubwCrXAj9O78UvgqfXH1LXeKNzmhl7WPtj3lC8vRavPfJwKcUHaMge0N9KFUTt7LE21x64zi9GvThU/G0LIf4JunFzDKrtxMndVJHfRSNFhSU5uFoPtszKhVksA5xmqUFF//zvRzNBxaDVWjPVRazGIXc/bYJhUbHXSQ6AZ26uZ1xUFmUlIfKUKXf26UJW5urCq9aqDYYTISkrAS1Vt6NdTg2Kpnh9TkImkuARkq+nAsHEdqFTQMxSz9dIz2BBrUKvCOhzp+hKRpakLvdpVOUFICPmvUc+thnF3918ySgXDu6lg4x95GB6UgcC9OVh/pvx7a6mzYeM6Swt5bMhxV1EWyNwN412JhQXISw/Hb4t3oN6okeityU94D1S0dNHUoN4bA6uq9SojEChBS88QTeqrlwk2jkBFC3rNW6G5Qd1KQ0uBrdegoValdTjS9TWhYCPkE0Lh9gFwz2cbYauIfT+oYfJXqqijATxNkV5Gye1XXyWLEfug8PWQlihEN7YnlxLH4HBQ8QUp74K73+Txibqop2eJxTm+WP5dd6i9YadOCCGfKjos+R8LPyXE+c0Fkqsmy6PfUgHugZVfMVkVDJOHhIgbiMppCNOOZtBRe7dg4251FXfzPB5rdUIv04rvo1/VeoQQ8j5RuBFCCJE7dFiSEEKI3KFwI4QQInco3AghhMgdCjdCCCFyh8KNEEKI3KFwI4QQInco3AghhMgdCjdCCCFyh8KNEEKI3KFwI4QQInco3AghhMidz/reklFRTxD9OJYfK9aubWvo6mrzY4QQQj41n224hd++j5Ddh9C4sR4UZZ4tlpdXgJcvX8HXxwNNmujzpfJNnP0SWcp1UFuFHoFDCJEPn224bdy8G7U0NTHoy958iRTDMDgceprt1T3GuLEjoK+nw095d9xjZ87OHoJldX9B6P+68KX/LYa5jV87WGKR8To83DsCjegZb4QQOfDZhtuq4C1oZmgA2x5WfEkxsViMA4dP4N69f/mSklRVVWDR2gSODoOgrKzEl74Zw+Rg/8i6mKR9As+X9OFL/1sMk4Fbm5fiTMMR+H7IF1CicCOEyAEKt3LCjcMFXNzTBH6spNzcPJw8fQ6WnTugf78efOmbfYzhRggh8uijv1ryyLGzeBafyI+VxU3j6rxvCgoKaNbUoNzB1KQ52lqY4fGTOL52+V5FbMFU9wHo3LIFOvb3wcqrKSjvm0Ru9BH84uuInm1awMLWAeMCDyI6t7gmw6TjoF8XDFtzG/dDpsC9twUsbJzx7Ya/kcVkI3zLDxg5sB1amVli2PR9eCQ7r/glwnfMhGe/tmhuaAgTSzt8+9slvBBL6xQte/Dy8BLjw9bcQfThAIwd2gUmrTpioM8iXEgolNQhhJCP3Ucfblq1NLHvwMlyA44r46Zxdd6HgoICJCY+l/x9E0VFRYjEIn6srLywXzGw12Rcqz8E01atwdxRRrg82RtrI/kKPOHD3+HQ3QOHhdYYvyAYCyf2gPCwF2zsVuKBsCikxMiIj8Dfu6Yi4GJTeEwPxLc2+Tg+yQWjxozCTzeMMOyHBQgY2wbP1o7AmLUPJXMxTAHuLbdHr3GHIew+EUEb1yPArTFuzR0Kr/WPJXWKlh2VnF9i/O+QHzD1gDr6fx2EVfPc0eD6LDiN3YxYPhQJIeRj9kkcljz751XcufsvnB0HwqCxnqSsKNgszFuhTy9rSVl1lD4sGRP7DHv2HZEcclRXV8MwZztJL60iFy5eQ0zcM0waP4ovKcYwidjiaIIZdTbin02OqM+fxyq8FwTbjj8heqL0sCTDJGOPhxn8xctwe6c7dPmrNsVJu+DWZhKw7D52u+uy9VKx1UkP41Pn45+zk9FCScCWxWB1n5b4/sU0XI4IQEdJmQiXpxmj/7+zEXfQCw2Rj8Sbx3AmvR3c+38BZbYdXOCd+19zDImbh2f7PFEfaZJlB5pdROS8rsXrip+Nm5d/hLmytE3Zf3wD0yFR+PnJMXjp0Xk5QsjH7ZP4ETcXXlyIFfXg3jXYynPi5Fm0MTfFvIAfJH+58bdWGI5r7OxO7navg42jZOYEV0t+hCO6hQvH8uA80vl1sHEEOk4Y6SjCyQs3UcAUf/fQ7tpJEmwcgaAZTNrVBkxawEhRUsSWKUK3sSGQlMJGFjeuBv0uThg1wBhKojykPo3CP2zD7iQpAw+iUfYXfsXq21i/DjaOhmkbtEYUnsbzBYQQ8hH7ZO5QIhtw7zvYOBmZWTBubgRVVVXJX278rT2PR0yBIfR0S19JqQO9JvxLTtJTPM5vhiYGKnyBlECgAoOmRiiIioXswVg15ZL1JBQUSnyIAvY/WXmPjiJwdB+01q8Hg1aWcJi0CBcT3vyxa6qp8694SkpQBgM6KkkI+RR8MuHGKQq49x1sHDPTlgg9dkbyGzfuLzf+1uo3ZGMsEalc96mEdKQl8y859bXZHlsS0tL5cRnpaUlAYx005MffBiO+hYX2TtiS3Q+/HLqDZ2mpeBx+Fis8W/A1CCFEPn1S4cbhQu19Bxtn0MBe6NTeAi+ep0j+cuNvTcMMbdtn4OiJS8iTOayIxLM4dp1/zVE3R4fOmThyvGQ9Ju8KThxJQ6eOFtB8l9+dPb+Nvx4ZwuOHqbC3boEGatw5t3xEPXzAVyCEEPn0yYVbTVFUVIKNTVe4DbeX/OXG35ZA0ApeUz2QtWo8Jq2/gugXaUi4dxyBPusQK3ONikBgDK+Z4yFe5YtxwRcRmZiGpMiLWOvrg9VCH8wa3Yqv+Za0TWDe+BlO7tqLsJh0ZKfH4sZWf8zc8YqvQAgh8umzDTd1NTVkZ+fyY9XHzcstoyL1h67AyVW2eDBnIMwNdWHcYyqiXdchwJavwNPqMx+nQlyQtswB7Y10YdTOHktT7bHrzGL0q/MOvTaWQMkKU7cGQv+kN7qb6KChnjm8Qi3w4/RufA1CCJFPdOPkUjdOrgqRmEF8fCJc2V5e+7ZmfGn5GFEOUuJTIWioj4Ya/GWN5WAYIbKSEpGlqQu92sp86fvBFGQiKS4B2Wo6MGxcByp0iy1CiJz7bMONU9Ejb6rC+IumaNHCiB8jhBDyMfmsw40QQoh8ogtKCCGEyB0KN0IIIXKHwo0QQojcoXAjhBAidyjcCCGEyB0KN0IIIXKHwo0QQojcoXAjhBAidyjcCCGEyB0KN0IIIXKHwo0QQojcoXAjhBAid+jGyR9SfiaE905DGH0NoswXkiJFrUZQMraCUuv+gKqWpIwQQsi7oXD7EMRCFJz/Hbl/BoNh/1Nt3hWK9aSP5BalP0P+o+sQsP+p9xoPlZ4T2P702z8FnBBCCIVbjWNyXyFn61gIEx5Aa8A30Ohoz3bXSj2MVFSInLBDyDy1HEr6ptAYuQ4C9Tr8REIIIdVF4VaT2B5b9jp3iDOTUd/rdyjW1eMnlE/0MhFpmydAQUsbmmN3vrEHl/v4BNYE78flG9fxT5I6jNp0Qf9Rfhg7qBVqV/Pp4oQQIk/ogpIaxB2KFCY+rFKwcbg6XF1uHm7eijAMg2cnpmBg96FYcUsB5g6TMXuGD3rpP8Ya93awnXwSL8T/7XcWJmYNBjayxrL7NdeOD7EOQsinicKtpuRlSs6xafXzKxlsbDDlhh3Gy10/SAbuNVdWhKvLzcPNyy2jXKlHMMP3N4g8j+HKiTWY8603PDzHYdryE7jBhl6tzZ74bn8qX/k/woiQn5EHYU3mzodYByHkk0ThVkOED/6Q/NXo5CD5K8GGWPo2P7wKnQ+BupZk4F5zZbIBVzRP0TJkcb22W7/PwG6tSVgwuy/0lEsefqxrPQ2zJxjj3rkLSJNZZm70Efzi64iebVrAwtYB4wIPIjq3eDrDpOOgXxcMW3MH0YcDMHZoF5i06oiBPotwIaGQryXFCJNwefVkOPdoA2OjVug6eDx+u5LMTwVit3nC2jEIdxCFVe6WsOr6NY6mS9fFiF8ifMdMePZri+aGhjCxtMO3v1163dOsajsqWwchhFC41RDh42tQaW5Z4uKR3FtHkP8kDNp+e1HHfpZk4F5zZdy019h5uHm5ZZT1HBHX/8UXw1zQTaPseTWBQAN9599gA9AJ9QXS6cKHv8OhuwcOC60xfkEwFk7sAeFhL9jYrcSD190eMTLiI/B3yA+YekAd/b8Owqp57mhwfRacxm5G7OvwEePucicMWRQNs9HzsHnbEvhaxGKh29fYGy+t09DGH/On2sMQuhg0OQjzF3ijgwY3bwHuLbdHr3GHIew+EUEb1yPArTFuzR0Kr/WPJfNWtR0VrYMQQjh0QUkNydk4CkoNDVF70Pd8CfBy91QIVDRQx2E2XyL16mAAmIIc1B2+gC8BMo4vgjAlDhpjtvAlUgxzFdOb9kR0YDz2emrzpRVjmGTs8TCDv3gZbu90hy5/oYk4aRfc2kwClt3Hbnddtl4qtjrpYXz8bNy8/CPM+R5h9h/fwHRIFH5+cgxeegK2XgxW9W6J4J5XcHd2Z0kdbh1hx25BzbI3zLWlYc48WY3epusxOCwM37eWLoth8pB48xjOpLeDe/8voMyGLxd45/7XHEPi5uHZPk/UR1qV2sEpbx2EEMKhntt/iIEABYqaUHVZAjWPYOQp1Xk9qNjNLRNsEkwhCvIBZZUq/hZOdAsXjuXBeaTz62DjCHScMNJRhJMXbqJA5vBlfRvr14HC0TBtg9aIwtN4vgDaaGmhh+jtgQjcew0xrwrZ3qI2Og0Z8DrYKiIQqEG/ixNGDTCGkigPqU+j8M+1s7iTxM73IBqxfD3Om9tBCCEVo3CrIQp1dCBKL7knVm1ujdx/TkKU9kwyXqiogdgHAuybl4/dc8ofLu4seb4LgmYwbg1EPYnjC94g6Ske5zdDEwMVvkBKIFCBQVMjFETFIpEv42iqqfOveEpKUGZjuOjiS4FAE/0CDmLloDzsnGALUz0DtBs0DgsOPUS2TEhWJO/RUQSO7oPW+vVg0MoSDpMW4WJC2X+Gb2oHIYRUhsKthih9YYWCRzckP9Auot7BDqpGHZG80gWvDv0MsUAJNw4IIRIChqZKJQaDVop4Hi1G5FV2YgmNYdJOG/dPnEVkOZcJMowI/2zyx7j5p6UXlNTXZntsSUhL5yvISE9LYheng4b8eFUJ6nWAz/KT+IftRt3+cwMmmD/BGtc+8DtU+RWajPgWFto7YUt2P/xy6A6epaXicfhZrPBswdcghJD3g8KthiiZ9pX8zfn7oOSvhECAep4rUWfINDC50sv8i4Ktu7Pa68HaQQ0pz8RQUgUcpqlJ6hURsIHYc+JPsA5fgFnbniCvVG9JFBeCX2YH47FWc+kFJerm6NA5E0eOXypRl8m7ghNH0tCpowU0+QtPqoIRpiPqymmEJTBQVNdGS8sh8F0QjG8tk3H6+n2+VpECFMpm8/Pb+OuRITx+mAp76xZooMadc8tH1MMHfIW3UWodhBDConCrKWpakntFZp5ZKbnzyGtskKh3HIq6bkF8QUliEXBoeTbi/xVh+Bw1NDAoGzwKxt5YOK89rk7ohq9+WIPDf97EndvXcXLzLLh8ORYXWy/A0tFGkroCgTG8Zo6HeJUvxgVfRGRiGpIiL2Ktrw9WC30wa3QrSb2qe4ydE4dgqN9SXIpMRkbKI9zYtw4H79VBr04mfB2WbjO0VH+EEzsO4PqtGKRzwaptAvPGz3By116ExaQjOz0WN7b6Y+aOV/xM1VTeOgghhEXhVoO4myAr6ZlIbqlVIuAqERVWgKi/hGyPTbXcYOMIBKpo53cEl4/6Q+fmckz4qhu6WPaAy4+hUHPbgj9CvoW5zM8EtPrMx6kQF6Qtc0B7I10YtbPH0lR77DqzGP3qVL3XxhEodcT3OzfAPmU5BrVpDB0DM/TyPwPDn/ZjibPM1Ztq/TF1rTcKt7mhl7UP9j3l5rXC1K2B0D/pje4mOmioZw6vUAv8OL0bP1M1lbMOQgjh0E8BalhlN07mrorkLhopOizJyc1isH1WJtRqCeA8QxUq6m8OH1F2MpIyVNBQpzZUK7mnJMMIkZWUiCxNXejVrvzKxjfhLuHPSk5Caq4atPW1oVnqx+RFxAWZSM9gA7ZBLajwhz8ZtiwpLgHZajowbFzndfnbKm8dhJDPG4Xbh1DBI29U7H4uE26czJcMQn6uXsARQggpRuH2IZV6WKnmmK3YE5CP2g0UYN6zZE8qO53BqbV50GuhAJdZqnwpIYSQqqBw+4+FnxLi/OYCyVWT5dFvqQD3wJJXTBJCCKkchRshhBC5Q1dLEkIIkTsUboQQQuQOhRshhBC5Q+FGCCFE7lC4EUIIkTsUboQQQuQOhRshhBC5Q+FGCCFE7lC4EUIIkTsUboQQQuQO3X7rA8ouzMafT67hr/gIPM9Kk5Tp1KqPLo3boZeRFTSVNSVlhBBC3g2F2wcgEouwMWI31t3cJXnkjVXTDtCvrSuZlpCRhGuxtyBg/xvb2Q1j2g2HooKiZBohhJC3Q+FWwzIKsuB/fDb+TY6Gfzcv2Jv3g5KCEj9VSigW4tDdM1hxZTNaaRtjxaAA1FapxU8lHxNx9ktkKddhPx96xh4hHzMKtxrE9di8j0xBanYaVjv8DN3ajfgp5UvKeIGJB2ehgWZ9bLBbWGEP7t6a4Zi8rxBD5u+Gf8fyn6jNMI+xZbQvdsb3QcDpabD6SJ5QLW17Kj/G/gNUrYcmLUzQvu9IeA1qDs2P+EnaDHMbv3awxCLjdXi4dwQa0VO/Cflo0QUlNYg7FBmZ8rhEsD1ke3BH7p0pMXBlHK4OV5ebh5u3IjmJt3HpUigWbT6HHKb87yaisG1YHHKRrReHTL7sYyBp++O6sHEZBhd2cOzfGY0L/sYKtw7oOf0iMit4Px8HIwzwn44po6xRny9hYtZgYCNrLLtP3xEJ+ZhQuNWQrMJsyTm2r61HluixhT29g9XXtyPwz9WSgXvNlRXh6nLzcPNyy6hM8vYNOFbcCXqNYXLx57aNeMSPf3S0LTFs7FiM9fXFOP8pCFh1Ale2u+LFsh+x+aNtNNvLFNRGx9GzMe0rYygV9doYEfIz8iCkbCPko0LhVkMuxlyX/HUw7y/5W8Sjgz1Oem9B/xbdJQP3miuTVTRP0TLK1dsdbo0OYf3eGL5ARnooNm3PwciRznxBsdzoI/jF1xG25s3RutuXGLfwOJ5kS/fMDJOOg35dMGzNbdwPmQL33hawsHHGtxv+RhaTjfAtP2DkwHZoZcaG0/R9eJRbco9etOyebVrAwtYB4wIPIrpUnYo06DcEvRCG2/fz+JKqtvUuYo7PhputOVqaWsF+dACORudK6siqStsYYRIur54M5x5tYGzUCl0Hj8dvV5L5qcXrHLw8XDIeu80T1o5BuIMorHK3hFXXr3E0vXiZb1pn8XsIQ/imb+BsZQQd/5Mo/GsB+ncdge2xpdoXvwuju/ZE4OV8voQQUhEKtxryV/xtdDVsV+bikarg5uHm5ZZRITVbeI3rhIvrtuMfUcmdYNzeDTjcYAy87BrwJVKif9fA0cYbJ1R6wn/pOiz9pi8KQjxgO24PnksOB4qRER+Bv3dNRcDFpvCYHohvbfJxfJILRo0ZhZ9uGGHYDwsQMLYNnq0dgTFrH0oXzBI+/B0O3T1wWGiN8QuCsXBiDwgPe8HGbiUeVKVbk/kKL6EENRXp9qpqW8MOTceYX5PQzW8Jghd/Dcv8ELjbuGJrTPE6q9I2hhHj7nInDFkUDbPR87B52xL4WsRiodvX2BtftCzpOqOSpeHS0MYf86fawxC6GDQ5CPMXeKODhmRSFbeHdHk3Nvnh++O1MfB/y7He0xxK7bqh3Ys92BL6hK8nFRe6GSEJbWDVUYUvIYRUhMKthiRlpkK/jvRy/7fBzcsto2IKaO3qi76RG7Bd5ps8I7qLnevPoa3vSFjK7AMZJgUH5s7CE6ftCF3pB6d+vdB/2HfYcCAIrY9OxYqrxWGQyPTHvBUTMbifHcYErsQ31vE4ftMMc1dMwJA+AzD822As8NHFzT+vI5kNGoZJxv6fZyHcNhiH138H1y/74Mvhk7HuSDBsbs/BnD3P+SWXrzDtLkJmLcapek4YYK1UrbYm3FSF775gfO3cH70HeWDa1lAEmp3BnCVnkF2ttsXhQuhNGIyaiZ9H28Gm+2CM/nUrDqweA1MVIV+nJM1mndHDsgXqQAtGnXvA1rY9GqsKqr09Xig7YPXOn+HjYoevOhsAylZwHmGMy3uO4DF/DpJh4nBs758wdB8GGzVJESGkEhRu/yHut21KImUoC1XLDNOsJyH4q0C+ZgX0HOHtko2tm44jg98J5l/dig0P+mCsqxm7dBmiWzh/DOhra4JXT58hLu6pZHim0AqWJgmIuJ/AVwS0u3ZCCyXp3AJBM5i0qw2YtIARf/GmQKAI3caGbIKnQPJTdHbZF47lwXmkM3QVitcq0HHCSEcRTl64iQK+fRL3F2Nwa1O0NjOBiZEOGup3wPgzevhp5yIMZldVnbZikCvsZC5CFSgZw8WjHxLPXUMUV1DltmmjpYUeorcHInDvNcS8KmTfpzY6DRkAc+3yr0itUDW3R6NuXdFKWaYeu307OY+E6Y1dOBrJFz45ij2Xm8PTxQrKdJUmIW9E4VZDdLUaIOFVEj9WPgGjgGf3GOybl4/dc8ofLu4s5GuXRwsDR3tBc996HGD39wyTgVObtiDTyQeOjfkqRZLiEJ2bjg0jWqBVS2OZoQ8W3GbzJrr43J2acjmHvRQUSvxj4YL5taSneJzfDE0MSs4nEKjAoKkRCqJikciXSej2g3/AXASww7wZw2AKFfSesQEzemlDgdtxV6Otuvq60Ci1s2+k3wRKj2IRz226KrZNINBEv4CDWDkoDzsn2MJUzwDtBo3DgkMPJT3Aaqnm9lBVKhueAgsnjOgUjpCj9yXjUUdDcKPtKDh1oP9lCakK+j+lhnRp3BbX4yIkP9CuELvPvHFACBFbxdBUqcRg0EoRz6PFiLxayfws1W6j4GP6B9aHPACTeBAb9qlj1JjBqFP62329BmjE9k78jqUjNe1lmeFegBVf8S3U12Z7KElIS+fHZaSnsQHfmO2d8eMS9dtggLMznF1c4DQmELO9tXHy1yCcz+RDpBptTUlLK9krZL1KewGhni4kHa5qtE1QrwN8lp/EP0/jcfvPDZhg/gRrXPvA71Blh4fLUd3tUQ6BoCUcPWwREXIYd8WRCN1zA1YjnGBKvTZCqoTCrYb0aNZV8vfg3dOSv0V23DqEgRtG4XTUZcl4UbB1d1Z7PVg7qCHlmRhKqoDDtMpPsAgUzeE+tjfC127Blm1rcaa5Dzy7szOWpmGODp2TceHqQyipq0NDQ0MyqKuk4d71h0greIedpjq37EwcOX4JeTJBw+RdwYkjaejU0aLCH2dzl9cPmDIDvZODMXv9A4i4+avRVuHJ07gk84sJhknDH6HnoN7VAsZcQRXbxgjTEXXlNMISGCiqa6Ol5RD4LgjGt5bJOH1d2nuqWAEKZb+DvMP2kNV0qAf63t+Fo7sOYXd4b3g6SN4RIaQKKNxqSC1lTcm9In+7ulVy55EiHZtYYGLXEfip10Q4tx7ElxYTi4BDy7MR/68Iw+eooYHBm3eChs4+sE9Ziomzw2DrOwIWimXnEQhaYMys8Uhd5A2/jZcQ9TwdydE3se/H4ehnNwl74sR8zeoTCIzhNXM8xKt8MS74IiIT05AUeRFrfX2wWuiDWaNb8TXLJzD0xBx/E/y1cA4OsJuqOm2tVescfp4QjMuPXiA14T5OLhiF7/frwX+yIxqwAVL1tj3GzolDMNRvKS5FJiMj5RFu7FuHg/fqoFcnE75OOXSboaX6I5zYcQDXb8UgnQ2zd90er+nZwe2rGCybvBAPB4/AV6UPNRNCKkThVoO4myC3bPiF5JZaRQFnom0Mu9b9JEMHfQtJmayosAJE/SVke2yqVQo2iXpDMGakHqA5FN4uTfnCsrT6LsQfO+3wfIkT2jXVgWHrbvA7o4cpB/bC3+zdbtas1Wc+ToW4IG2ZA9ob6cKonT2Wptpj15nF6Fen8vfBnYvq5B+A4QqHELDkkuSuK1Vtaz3HJZjfNhRe7Qxg8EU7eKwrwMh9RzG9c/H5rqq0TaDUEd/v3MB+SViOQW0aQ8fADL38z8Dwp/1Y4qwtqVMutf6YutYbhdvc0MvaB/ueSovfZXsUEQjqY7CrE0QZhbAfPhgN6ZAkIVVG95asYZXdOJm7KpK7aKTosCQnN4vB9lmZUKslgPMMVaiov/8dGsOIkJMcjxShFnR06kKtnJ7e22IYIbKSEpGlqQu92tW8yrAcFbWVYVKx1UkPgWZsz2heVxRkJiHxlSp09etCVeYKRVlVaRvDFCArOQmpuWrQ1teGpsxVjJURF2QiPYMNtQa1oCITQu+6PTJDx6HVWDHWR63FIPbfBCGkaijcPoCKHnkzzXpimXDjZL5kEPJzzQbcp650uMkbsbCADex7WOpog+2WJxD2a3eoUc+NkCqjw5IfAHd3/7Ed3PHnmBDM7vUt6qrWxpPUZ5Jp3P7qVbIYsQ8KXw9piUJ0Y8MuJY7B4aACST3y+eDuDXp8oi7q6VlicY4vln9HwUZIdVHP7T8WfkqI85sLJFdNlke/pQLcA+mWFKVxhw/jbp7HY61O6GVadI9++cAweUiIuIGonIYw7WgGHTUKNkKqi8KNEEKI3KHDkoQQQuQOhRshhBC5Q+FGCCFE7lC4EUIIkTsUboQQQuQOhRshhBC5Q+FGCCFE7lC4EUIIkTsUboQQQuQOhRshhBC5Q+FGCCFE7tC9JWuQqBC4/YcQeZnV28QadQVo00cJCu/2/FBCCPlsUbjVoFsnhLi6uxCNmlUvpeIjhegzRgVt+kofavqxEWe/RJZyHdRWkb+71XNPG3jx4C/ceVaAeqaW6NhEk59CCPmU0GHJGsT12Lhgc5upWbVhhiYaGSpCIBBA17jij+bemuHo388RK8LYrmEFGOYxNnv1Zev9imvM+/v+wjC3Mb+7Lpq5b8eLt1huduRhBH3nBYcepmhuZoVBrv5YdiIKWeL310bJ9hmzFTHVbB/DvMKlWT1h3qE33DzdsPhyDj+lav6Lz4V7PM4fs/piyJK/+JI3Y5h0HJvSF8NW3+ZLqu9t1lva+2gHIRWhcPtIiEXA0VU5uHOhAM4zVNDIqOKPJifxNi5dCsWizeeQU8EOUhS2DYtDLrL14pDJl70fRhjgPx1TRlmjOk9RYxgxYo9+iwHdXRD8jxraOU1BwNSR6F7/Hpa7tEWPySfxopoBx8SswcBG1lh2v+R8ku1z/zny+fEqyziJ1UG3YBV0FzGJSdg+vCE/oWr+m89FjJdPLuLms+osTYyURxcRkZDLj7+Nt1lvaVVrR0WfMyGVoXD7CBTmM9gflI3Ye0K4zlGFgWnVDmMmb9+AY6nS17K4Jzn/uW0jHvHj75NAUBsdR8/GtK+MoVSdp0OnHMCP49ZCMOYELp/4HbO/GQ2PURMwfdUfuH7AF8w6T/iFJPGVq4gRIT8jD8L3tc9LS8VztES3ni2gqSCAAju8jf/ic5Fr7/tzJp8FCrf/WG4Wg92B2UhLFMFtrhq0K+mxldDbHW6NDmH93hi+QEZ6KDZtz8HIkc58AbdjTcdBvy4YvDycL5FiYrZhRNdh2Bwt3XMwwiRcXj0Zzj3awNioFboOHo/friRLpnEqWk5u9BH84usIW3NjmFn2x5i5e/Egg18m24v5e9UsHKj7NRbM6g09peLQ4A7BNuoXgMAJRvj35DkkyvR4ipfZHK27fYlxC4/jSbZ0euw2T1g7BuEOorDK3RJWXb/G0fSye7+i9g5bcwfRhwMwdmgXmLTqiIE+i3AhofjwYfjyL/nlPUHwCG55xduEU9SWnm1awMLWAeMCDyI6t+z6qvu5FKnq8l9FbMFU9wHo3LIFOvb3wcqrKSinFZVuu7dR/fWW/XdQFUxhHPZ90xc2I1bidiZT5c+ZkNIo3P5DWeli7AzIRmEBA7d5aqirU42egpotvMZ1wsV12/GPqOT/7HF7N+BwgzHwsmvAl3DEyIiPQFRyqYN1wnTERsTgpZALAjHuLnfCkEXRMBs9D5u3LYGvRSwWun2NvfFF6yi7HNG/a+Bo44H9+VaYtCgYv47pisy9ozBg9BbESA41JuH2X49gPNwF1hpl36NAUAeDFt9ExFYP6PG9QekyvXFCpSf8l67DUnaHVxDiAdtxe/CcDcCGNv6YP9UehtDFoMlBmL/AGx00JLOWIm3v3yE/YOoBdfT/Ogir5rmjwfVZcBq7GbH8odBmX84otbzv0bORZBKED3+HQ3cPHBZaY/yCYCyc2APCw16wsVuJB6W7E9X+XKq+/LywXzGw12Rcqz8E01atwdxRRrg82Rtr/8/efYBHUe19HP8u6QkdQhKIkEiHhA6hB6RKh9B7B0VQ3qui0gWUpgiIl6qA0nvvIiBNLk2qhAAJIQmkAunZzby7m8EUErIBIhD/H595yJw5M3Nmdp3fnpnZ2RtqBVVm+y6rsrbeZ70Pnk3R+rN9VGuGn6jIuFkjqJxHk4XXWYjUJNxeoY0zo7HODd0mW2GXP6unwHJRsftQmt5Yxi+/JweNorvM6qW/UnloXzws1UKT+XFk5xmc+43nywHtaFC/NQO+XsnmHwZS3lKffulQlBA2fTmBc/X/y86fPqZry2a0H/YlK3/8inrRxznpa6h1m5uXofzbLsZ5MmNY5uYpE7jt9Qs754/Eq1ljmnf9D8s2z6LijjHMO6Fg51KThh6lyUceXGs2xNOzKsWsMt6HgdENmLT0E7o086RJl/+w+Lsh2B7awuH7SdMLlKmXZnm1cNEfXBUl2Lh95z0Xsm3pf+j+bhPe7TaaJdsX0uDiJCatVxfwt6y9LqYuX1ECWTt1OnfbL2Hr/A/0++QdWvUay6qfmhOV4n4MU/ZdVmRlvZm/DzKmaAPYPboNg0578vO2b2nhlHRoyurrLMQTEm5vMqdODOoSxcqfdvNI/UQed2Ily641YUj3CmT9EGBPGXcnfH6ZxrQNJ7nzMEHfq7KnRpsWuNlbqHXS0J3lt51RePXrilOKa1Q2NT5izZ4l9HDVlynxxMWChWXqrzYErelLxQrlUgyj2GM4Fac7x2+7oKlnOR7e9cfP765x8M9VFo9yAVy4GqAuwXQFG9TFzSK5fbblK1ERb+7eUwsyom/LkV2xdO7bGccU26dx8KJvJx17j5whPm1vKCuvi6nLTzjPyUPg1bMdBVNc6zSv4EV3D3XE4GXvO5PXa8L7ICO6APZ+0o4+x+qwYvt3vFtUvuApXpyE2yvU+VNbYiNh3cQ4oiLSHCBNkoeWA/pjt3Epm/XHLEV5xL6fVvDYazCdiqlVskCjsaPZ5C3MbxXL6vc8Ke/kTJVWw5ix9TpRGZ3OCrrLrTgX3nLOIPwMNC6UrAjet/3UgiR5aw5m2rSvjcPnre255a9PQMNxLcgPn5hwlvUuTdkyJVMMTZih7y1c9UnnelYm7Kxt1L9U5uZYoJDp2bK/ty91N1ijscS5hCvx3r4EqmXJsvC6mLr8+/e4E18cJ8e03310wOkt9U+Dl73vTF6vCe+DDNxbOIDBq+4QE5Ogf10k2MTLIeH2CuUukIueE+30PRoNa8bFEnE/6wFnVa8fg8sfZOnaayiBW1i20YZ+A1uTL4M7GbU6nfqXKiaGKPVPA02Bagyeu5c/9V2ai4eX8Z7bbRZ1b8LIrenc/mdQsLD+MBdASOiz2l6McpULcnXPIW6kuIZkW6ohHTp2NA7l80ZA5fKUNhwbCxSiiL4XOXJXOKFhEU8NVybXSVrAP6Ggvb5HFURYuDqeQnhYkH7THEjvCwMmvy6mLt+4nwP122+clEI4Ycn3+7z8fWfqek16H6TPxmM8+/7czZjC6xgy6Af+isv6MoRIS8LtFbPJraHbWDsKOpmxZnwswbcT1Smm0Zi50XPIO5xfvIIVPy/mQKnB9KlvpU5NKT8ORW0IvO5NiNoLM9xA4nfiN64Zx/Tj2nC8j+/nbICCmY09ZTzaMHTGQj7yCGb/qatqrTRs3KnuEc3O3UdSfbcr0W8/cyZ9w4G7ir4XYkHj976g5tkZjFtxi9g0vcDEgHV8s/gv3Fo0wHhVztaNajWDOXLiOuY2Ntja2hoHG8swrpy6Tlh8yoCIJyH9y4Evh42hLY/ZvvtYqnYrscfZsz2MGtXdsUvng4TJr4upy7etQOWqj9ixJ3U9Ag+x65T6t0GW9p0JTF2vCe+DjBSsUR83x1qMXTGfOhc+oe/EY3+fzk2Wza+zyHEk3F4DFlYavD6xo0RFc9ZOisP/WpreVSaKdx5Mh5A5vD/xLJ5De+Nuls7BVmNG1YatyLtnCu/N2s7pc3+wf+koRq4No6haB26x+v02tB85h2M3gnkUcpPTG5ew5Uo+Gtcop9ZJTaMpSf9xQ9EtHM7QH37jRlAId8/vYfqIvozb9pACDkn1cpUZwuzJ7pwYUY9W//dfthz8gz/P6w/gKyfi1WgAOxw+Yf5H1Y3fndNoSjNwwnBCZw9i5I/H8L4fTrDPGTZ+0Y1m7Uaw3k/9AODoQhmbm+xZtZlT5+4Q/tQB8cUZt2/8cBIXDGXYwqPcCAwj6MZRFg8dzA/awUwYUFat+TTTXhfTlq/RlKX/mF5ELhjOiKXH8XkQRsCV3UwbvARfZ2MVI5P3nYlMX2/m7wNF0XJxQTs8PL/g8MOnXyuLUv1ZtHwI0d/1YcQGf3RPXs9/4HUWOY+E22vC8JDktiNscfe0ZOPUeB5kpQdXoA0D+zqBXXsGdSmhFj6tSKeZ/PhRSf43tQuNmvdixvFyTPym19/hpjGvzserl+kPyHNpVakYDs4VaDzqAMXHbuLbzvZqraflaTqLg2s6EzGvC1VdilKmjhfLtX1YtX4sNdTnT2o0NlT/v90c3/oBTufm80GH+njUaUyPsVug41JOHppKbX0v9ok8TWdycHU77n/rRZUSDhSvWI+RB5z4dPMGRlVQr8tYN2fM4kEk/NyDxnUHs/FuUvHLlqfJdPat7ULYdx2p6uqIa5UOzAntwJoD39As3zN6Qia+LqYuv2D7eexd4Mm1SS1xK+5IyYZj8Om+hMmeagWVSfsuC0xfb2bvAx2RQXe4dfsuEfFJ86RVqOkMfvmqNHve68PcP9Unl/xDr7PIWeTBydnodX1wcmLsIyKVPOS1Sf/AbHh4cGRwEKEx1tgXtccuxV2Gz2L4ZB4ZFECElT1FC1hjlsF1PwNddChBD82xd8iL5TOeBKIoOqKD7xGizYODQ36s0+n9JMY/JvyR/uBaKDeWz1jni0ravkAi7Rxxypv1GycyY+ryFV00IfdC0RQuSmHbjN9bpuw7JW47g/J1Zo06nlbfDZEsapt0s4vp6834fWCYptWaYWHieyqlf+p1FjmDhFs2kp+8Ea87RRfMtZN/kc79LEYFy9alvL2c4BFvHgk3IYQQOY58JBNCCJHjSLgJIYTIcSTchBBC5DgSbkIIIXIcCTchhBA5joSbEEKIHEfCTQghRI4j4SaEECLHkXATQgiR40i4CSGEyHEk3IQQQuQ4Em5CCCFyHAk3IYQQOY78KkA2kp+8EUKIV0PCLRu9rj9W+qISoyKItMhHXvVXtoUQ4nUjpyWzkaHHZgi2HuPtTBvG2VGkuBkajQbHkhm/NFcWdaN5s07MO6vvGmZAUW6xvH9Tfb2vOam8vM8vinKR6fUdcen5Cw+yuNxY/99Z9llPWtYrT8mSlWjUdiDTNlwgVPv6fL5SlHB2fdqUrj9cVEsy9ipeB0WJ5eCEprT59g+1JHNZ2aaMPM9603oZ7RDCVBJur4lEHexYEM2lI/F0HmdJEdeMX5rowIscO7aT2ct/JTqDA6bu7M98s/aovp4fj9Wyl8OVFqM+59N+dSmolphCd3cjQz2bMvPPYrQdOYN5M0fRotRDNr1Xn/aTjvPoJQbwi0kk5OZRLgTEqOMZezWvQyIRt49yxj8rSzN9mzL2POtNy7R2KHcW0bJIXb67+vp86BFvHgm310BCnMKmWVH4XtHSfZIVzuVNO40Z/MsydoUm/Z2SosRw+OcfuamOv0waTV6qD5jIZ21LYq7vYZrq3LJxbHCayOYtMxnRvR2tvQbz+ZxN7P9vR7xnf8OOdLbjTfEqXoccTdER9yiW16hDL95AEm6vWEykwrppUYQF6ugxxRr7Z/TYUnmnJz2KbGXphjtqQQrhO/npl2j69u2sFiSdEtoyshat555XS5Iod36md+2uLPdJOpIo2iB+/2E0nRtWoqRrWWq3Hs73x4ON0wwyWk6Mz3a+GtoJT7eSVPBozsApG7j2SF2m/iDvd+sW5iXL4GppLPpboQ7fc+HGfFrlVgv0kpdVior13mXYzN3cjko+0imJEZxfNZ4+zSpTqnhxynm046Pvj/Eg8cn6ktrYddFZzv/0IZ3ruOIwaq9xmsGz2ppMi++uqQzrVJeKZSrRuPdEdt6MVqelkMXX4YknbWhUqTTunh0ZNm0LPjFp2wAPL6xgTM8W1CxTmurNBzP/RAhP18p8n2VV1tf7rH2ZMSXBj40fNqVB7/lcfKzg+3Mf6naaxSW8WdDTgzq1P2BH+PNvh/j3knB7hSLDE1k9OYqEeIUeU63J75CFGzSsPek/rAZHl/zCn7rU//P7bVjGtkID6d+ukFpikMijexfwDo5Tx1XacHwv3CFCawiFRC7P9aLNbB8qDJjK8p+/Zai7LzN7fMCGe0/W8fRydH8tolODXmyKq8OI2Qv5emBtHm/oR4sBK7ijDxyNxobqns2w2j6DCRsvE5riHiaNRT6cijtTwDpp25OWNYg9lo0YNWcJc/QHvvi1vfActp77iqJvYzxX5nag8bBtaOu/z6wflzK5RzHOTWlP/6W3jMt40sbTP43k4915afl/c1nax804JbO2PhF5bAqfrDPjneFfM3/WcMrdnE+3XrO5oO9lp5Ll10G/y6//l471e7FNW5fhMxYy8/2GaLf1p0G7+VxL0V2JPfs1LRuP5mTBNny2YBFT+rny++hBLL6hVlBlts+yKmvrzXxfZkTR+rN9VGuGn6jIuFkjqJxHQ+EGo5g+pgPFcaTV6FlMnzGIarbqDEJkheFuSRmyZzi0MkpZ8VmkEh+lPySnMywe9Vj56dPHSkRYXLrzZzQc/exthVZLFP9bi5Wm5kWVkfse/T0tOuqcMsEdperU80rU9mH6I8wgZVtMnBIdE6gsbIXy1sdHUy0r+vJspQZVlK8vGurcUGbVQSn5+fHk6TH3lGMbdyhn7kap46mXEx0ToKzwKqDkbfejcis6eTvCfp+pdGjcT/nxWlJZdOQtZeun7yiOuVBsitdVun44TVm843+K38PkeQzLWtm5gFJiyA4lSN/mJ+VR139QGlkVVf7vUKy+ziPF5+gaZeG2a8ojtU60vvu78z1HhdZLFf8U20rNacqFx6mXn1lb/5638gTlj0fJdR6fnKCUp5wy6Uxy2fO9DveU5Z3yKXk7/KTcTtGGqDsrlHZ5cyvtfvRLmj/GV/nvuzZKoe5rlHsp9sWjs9OUqvpcyPv+HrWeKfss/dc+vSEr6zXldU85pGxHdOQdZeOQCopdhaHK5lsxqetd+06pjZsy5ezTy5BBBlMH6bm9yZw6MahLFCt/2v33DRlxJ1ay7FoThnSvQNZv1LenjLsTPr9MY9qGk9x5mKDvddlTo00L3Owt1Dpp6M7y284ovPp1xSlX8hptanzEmj1L6OGaVKYxd6b55D1cvvE7P45uRO4ba/isfQ0qeHRj3qlwYx105/htFzT1LMfDu/74+d01Dv65yuJRLoALVwP07bGmaC0v+rUoibkultC73vx58hCXgvTtu+aDb9KSjIrUq01ZixR7wcS2GhRsUA/3FF91MCtficrcwP/vHmwKWXkd9Nt4ZFcsnft2xjFFGzQOXvTtpGPvkTPEG5aRcB79ZuHVsx0FU1zbNK/gRXcPdcTAhH2WJSav1/R9+RRdAHs/aUefY3VYsf073i0qX+gUL5+E2yvU+VNbYiNh3cQ4oiLSOWhmKg8tB/THbuNSNuuPYYryiH0/reCx12A6FVOrZIFGY0ezyVuY3yqW1e95Ut7JmSqthjFj63X0HU21VhpBd7kV58JbzhmEXwqGrzjYOdeiw3uT+H7zWf66epiZdXwY7zWKbSH65Qf54RMTzrLepSlbpmSKoQkzLsJVn6TrWrE3dzBtQBMqFi2Ac1kPOo6YzdGAp9/KVuZp2pSFttpZ26h/qczNsSSRxHRPt2Xhdfi7DakvPmo0ljiXcCXe25dAQ8H9e9yJL46TY9rvOjrg9Jb6p4GJ+8xkJq/X9H2Z1r2FAxi86g4xMQn6/SrBJrKHhNsrlLtALnpOtMNC30NYMy6WiPtZDzirev0YXP4gS9deQwncwrKNNvQb2Jp8GdzJqNXp1L9UMTFEqX8aaApUY/Dcvfx59x4XDy/jPbfbLOrehJFbM7idsWBh/WEvgJDQjNuuKDoS4uJJSHE9yRB0uV3q0f+bCXR8uJ0DZ+KhQCGK6HuPI3eFExoW8dRwZXIdlMRzzOzgxYqoZny19RL+YaHcOn+IeX1Kq0t+BhPa+rxMfh0K2ut7bEGEqZ3VlMLDgqCYA4UNI8a2Buq32zgphXDCku/vMWmfZYmp632BfWnjMZ59f+5mTOF1DBn0A3+lvY4pxEsg4faK2eTW0G2sHQWdzFgzPpbg24nqFNNozNzoOeQdzi9ewYqfF3Og1GD61LdSp6aUH4eiNgRe9yZE7YUZbiDxO/Eb14xj+nFtON7H93M2QMHMxp4yHm0YOmMhH3kEs//UVbVWGjbuVPeIZufuI6m+65Xot585k77hwF19WeIZJpTPTa2vzqJL0wNMvHeH29p85M+n78nYulGtZjBHTlzH3MYGW1tb42BjGcaVU9cJi9cHxf2L/HGzOL0+GUOHuqUpZK3Rb0cc3tefbMUzmNLW52Ty62Bj2MbHbN99jNgUbVBij7Nnexg1qrtjZwhE2wpUrvqIHXtS1yPwELtOqX8bmLLPssLU9b7AvixYoz5ujrUYu2I+dS58Qt+Jx9L5nqPhw5D6pxDPQcLtNWBhpcHrEztKVDRn7aQ4/K+l6V1lonjnwXQImcP7E8/iObQ37mZPH9A0GjOqNmxF3j1TeG/Wdk6f+4P9S0cxcm0YRdU6cIvV77eh/cg5HLsRzKOQm5zeuIQtV/LRuEY5tU5qGk1J+o8bim7hcIb+8Bs3gkK4e34P00f0Zdy2hxRw0FfKVY3u79fBd/YgBn2zhv3/8yHgng9ndy9gSM9xXKo9km7VDMsqzcAJwwnV1xv54zG874cT7HOGjV90o1m7Eaz30we/fTncivmzd80Gzt4JJyrcl9MrRzF+1cOkBj2DSW19Aaa9Dvo2jB9O4oKhDFt4lBuBYQTdOMrioYP5QTuYCQPKqvXK0n9MLyIXDGfE0uP4PAgj4Mpupg1egq+zsYqRSfssC0xfb+b7UlG0XFzQDg/PLzj88OmwsyjVn0XLhxD9XR9GbPBP/uDj6EIZm5vsWbWZU+fuEP5U8AmROQm314ThIcltR9ji7mnJxqnxPMhKD65AGwb2dQK79gzqUkItfFqRTjP58aOS/G9qFxo178WM4+WY+E2vv8NNY16dj1cv0x+g59KqUjEcnCvQeNQBio/dxLed7dVaT8vTdBYH13QmYl4XqroUpUwdL5Zr+7Bq/VhqWGr0B0JLKo1ex7apdbg1byDt6xsev1We+l2/5lbNr9ixZjTu6lcB8jSdycHV7bj/rRdVSjhQvGI9Rh5w4tPNGxhVwUzfxjqMWTmNonsHUb+cA4Wd3Oi/050vPq9nnD8zmbX1hZj4OuRpMp19a7sQ9l1Hqro64lqlA3NCO7DmwDc0y5fchoLt57F3gSfXJrXErbgjJRuOwaf7EiZ7qhVUme2zrDJ9vZntSx2RQXe4dfsuEfFJ86RVqOkMfvmqNHve68PcP9Unl1g3Z8ziQST83IPGdQez8W5SsRBZIQ9Ozkav64OTE2MfEankIa9N+gdzRYknMjiI0Bhr7IvaY5fyjsNnMHxSjwwKIMLKnqIFrDFL57qfoo0hLOgeIbG2ODo7ks86/c9Xhut00cH6eto8ODjkxzpNL0iJf0yQXwBR1vqDebF8WGZwjTEjprQ1uyW1IZBIO0ec8mZ8Y4aiiybkXiiawkUpbJvxeymzfWagxG1nUL7OrFHH0+q7IZJFbZNudjF9vRnvS8M0rdYMCxPfQykl6l/j8Ef6EC2UO8uvrxASbtlIfvJGvG4UXTDXTv5FOvezGBUsW5fy9nJCR7z5JNyEEELkOPIRTQghRI4j4SaEECLHkXATQgiR40i4CSGEyHEk3IQQQuQ4Em5CCCFyHAk3IYQQOY6EmxBCiBxHwk0IIUSOI+EmhBAix5FwE0IIkeNIuAkhhMhx5MHJ/6CohCgO3z7JH/cucD8y6Xf8HXIXpFaxKjR2rYOdhZ2xTAghxIuRcPsH6BJ1/HhhHUvOrEHR/1enRDWK5nU0Tgt4FMRJ33No9P8NqdmDgVW6YSa/dSOEEC9Ewi2bPYqPZNTuifwV7MOoev3p4NYM81ypf4RUm6hl6+UDzDu+nLL2JZnXajJ5LXOrU8WbIDEqgkiLfPrXTX5UU4jXgYRbNjL02AZt/5TQqDB+6PgljnmLqFPSF/ToAe9vmUAhu4IsazfzmT24WP/fWfX9D2w4dh7vIAveqlCDZn1HMbxjZQqZvx4HWEUJZ/eYLqxw+Yb171dWS9N3ZVE3Rm8MVcf0b0yrArxVuhxVm/alf6tS2L3Gv8SsKBf5upoHs0su4fqG3hSRX40W4pWTG0qykeFU5I2QW6mC7bq+B7f9yoFUg6HMwFDHUNcwj2HejOjubmSoZ1Nm/lmMtiNnMG/mKFqUesim9+rTftJxHimvy+eVREJuHuVCQIw6nrHowIscu5WfBl260kU/dGpek2Lx/2Nej2o0+vwoj1+bbUqPKy1Gfc6n/epSUC1R7iyiZZG6fHdVPjsK8SpIzy2bRCZE8c6P3fmowUC6VGqllsKqc1v5+fwWwmMeGccL2OSlT9WO9KrWwThusOHP3Xx37Ed+HbiW3OncZHJmUjkaHuzH/w59RkWr5F5CyIY+VOwTybf+m+lV+NX3HhQllJVeTkyrcJQbU2urpekzbtPeQVw4+TFlU/R8QrYPoXrXq3x86XdGln5zekTK7R94p/xSWp89y8cVpScnxD9Nem7Z5OidU8Z/O7o1N/77hCHE9g5aQfPS9Y2D4e+UwWbwZJ4ny0hJUWLwu3UL85JlcLVUC1WFOnzPhRvzaZXicl2Mz3a+GtoJT7dSVKz3LsNm7uZ2VPLnGSUxgvOrxtOnWWVKFS9OOY92fPT9MR4kJtUxnFrcMrIWXRed5fxPH9K5jisOo/YapxkkL78kFTyaM3DKBq49Svt5SYvvrqkM61SXimUq0bj3RHbejFanPVuhZm1ozFkuXo1VS569Tcntvcyd3RPp4elGmfJ16DBgMjt8nu5BPllWo0qlcffsyLBpW/CJSd1+RRvE7z+MpnPDSpR0LUvt1sP5/niwOjV5na3nnjeO+/7ch7qdZnEJbxb09KBO7Q/YEZ68zMzWmdE+T/hjBs1r9+YX3zTtu7eGAbUbMe33OLVECCHhlk3+uHeR2sWrPHXziCkM8xjmNSwjLY3GhuqezbDaPoMJGy8TmqLjrbHIh1NxZwpYJ/UUdH8tolODQeyxbMSoOUuY82FT4tf2wnPYeu4riv4gGs+VuR1oPGwb2vrvM+vHpUzuUYxzU9rTf+kt4zIMpxYf3bvA6Z9G8vHuvLT8v7ks7eNmnJK0/F5siqvDiNkL+XpgbR5v6EeLASu4o4ajQeSxKXyyzox3hn/N/FnDKXdzPt16zeZCXOqDdLoePyQCc6wtk/ZjZtv0pL1nt37OwK+DqDfyWxZ+8wEecWvp2aA7K+8kr1N7/b90rN+Lbdq6DJ+xkJnvN0S7rT8N2s3nmjapnqIkcnmuF21m+1BhwFSW//wtQ919mdnjAzbce7KspHV6ByeFS+EGo5g+pgPFcaTV6FlMnzGIarbGSSatM6N9bl6lHlUerGfFzttqvSR+O5ezNqASdaqn+bQjxL+YnJbMJsN3jMWlUFH+03CwWpLa+H3fGP+d0uI/xn/T+uboUu6EBrCw7TS1JJmi9Wf/l4MZPvtXHjrXpW3H1jRt2oKWDd2xV09TKkoIG/tUZHyBlZye15x86qm+xDtLaV15KtV232Jq3XgCz+ziQHgVejZ/Gwt9HUPg/fp/pWjjNxX/jX0oSJjx1OLw4Glc+PVjylokL39D74qMTPiGC/pwccqVVB7zv+8YOP4K7X5YTHcXdd57E/jj2Fjc1TsJteenUqvOerqducgY96Sy9E5LJoRdZuMXvRi4rQrrry+nTd5QE7YpPGmdR9vx05UNdHdIqqNofZjf0p3vKmzl0txm2BLC+l4VGJX4HRdX98RRbX9i0Bp6VBoB311lXU9H/XbeYcE7ZVjY6DiXJ9Y01lGUYM7uOoe1xzu42Vvox58+/ZreaUnDfKatM2l5T+9zHWcmuuF5ZBhXfvuQt42vlx//bVaKuTV+5fLX9YyvoRBCem6vlOG7beY6Cyy0Vk8Nn9UdkW6wGWjMnWk+eQ+Xb/zOj6MbkfvGGj5rX4MKHt2Ydyo8qZLuHL/tgqae5Xh41x8/v7vGwT9XWTzKBXDhaoC+F2hN0Vpe9GtRUt+OWELvevPnyUNcCrKAaz74Ji3JqEi92n8fZI10Z/ltZxRe/br+HWwGNjU+Ys2eJfRwTS4r2KDe38FmYFa+EpW5gf/fPR/V1W9oXbE8FSuUo5yrA4WLVmP4ASfGrp5N67z66SZs099adaddiptTNeYl6dKrGYG/nsTbUKBf1pFdsXTu2/nvkDHQOHjRt5OOvUfOEG/sCdpTxt0Jn1+mMW3DSe48TNDvN3tqtGlhDLYsMXmdSdLuc43GjBqd+1L+9Bp23FALb+9g/e+l6NOljgSbEClIuGUTxzyFCHgYpI6lT6Pkwv+KwsapcayblP5wdHWCWjs1jf5AZudciw7vTeL7zWf56+phZtbxYbzXKLaF6A+QQX74xISzrHdpypYpmWJowoyL+hzxuWNcTuzNHUwb0ISKRQvgXNaDjiNmczTg6beFlXmaA3nQXW7FufCWc+YHeDtrG/Uvlbk5liSSmOLUpZFjM0ZNnsJk/TB1XFfK62u9M24Z4xrbk8tw4DZxmwwcizpim+ZgX6ToW5jf9OWeYZf+3f7Up/I0GkucS7gS7+1LoHHcjmaTtzC/VSyr3/OkvJMzVVoNY8bW60Rl9Q5OE9f5xFP7XE/j7kXvGudZu+Oqcdx7x1pOV+6HVzX5X1mIlOT/iGxSq1hlTvldMH5BO0P6Y+PpzVp0+irFy5unGpzLmnHfJ5EbJ1LPbzg1lRAXT8Lf12eSgi63Sz36fzOBjg+3c+BMPBQoRBF9r2PkrnBCwyKeGq5MroOSeI6ZHbxYEdWMr7Zewj8slFvnDzGvT2l1yc9QsDAOBBASmsUD/LMUrESLzp3p3KULXgOnMXGQPXu/nsVvj9V1mLBNT4SEhaXqBRk8DHuA1skRY4eroL2+9xREmNrRTSk8TP+hpJi+56iOawpUY/Dcvfx59x4XDy/jPbfbLOrehJFbk7+XZ5IsrDMjGk0ZOvXy5MLabVxOvMHO9aep09uL8tJrEyIVCbds0tAl6drLlsv7jf8+YfgqQMtl/djv/btx/Emw1e9s/fdQt6M1If6JmFtBx8+sjfX+lniGCeVzU+urs+jSHLwT793htjYf+fPpewa2blSrGcyRE9cxt7HB1tbWONhYhnHl1HXC4vUHw/sX+eNmcXp9MoYOdUtTyNpwDScO7+vX1CU+g4071T2i2bn7CNEp2pHot585k77hwN0XCz2NJi8tPh3HO8ELmbj0WtK2mrJNKu3e/RyLUkf0FCWMgzt/xaa2OyUNBTaGZT1m++5jxKZovxJ7nD3bw6hR3d34xXFFG4738f2cDVAws7GnjEcbhs5YyEcewew/ldR7ypjhQ4j6p4GJ68xMifa9aHp1DTvWbGXd+Xfo09G4RUKIFCTcsonh+2mGZ0V+f2Kl8ckjT1R/y533a/dmbOP36Vwx+ftvTyTqYOvcKO79paPbJGsKOac52OWqRvf36+A7exCDvlnD/v/5EHDPh7O7FzCk5zgu1R5Jt2qGcCjNwAnDCdXXG/njMbzvhxPsc4aNX3SjWbsRrPdLBPtyuBXzZ++aDZy9E05UuC+nV45i/KqH6soyptGUpP+4oegWDmfoD79xIyiEu+f3MH1EX8Zte0gBB7XiC9AU78OkUeX4Y+YkNut3oUnbpMqd+1e+fG8hv998QGjAVfbO6MfHm5wYNboThfQBYmz/+OEkLhjKsIVHuREYRtCNoyweOpgftIOZMKCsuqRbrH6/De1HzuHYjWAehdzk9MYlbLmSj8Y1yql10uHoQhmbm+xZtZlT5+4Qrg8z09eZCad29Gh7h+9Gz+R66960LaaWCyH+JuGWjQwPQS5T+G3jI7WeBFw5+5K0q9jMOFQr6m4sS8n7bDzef2j1PTarp4NNz3B9ptLodWybWodb8wbSvn55SpYsT/2uX3Or5lf6T/OjcVe/CpCn6UwOrm7H/W+9qFLCgeIV6zHygBOfbt7AqApmaMzrMGblNIruHUT9cg4UdnKj/053vvi8nnH+zORpOouDazoTMa8LVV2KUqaOF8u1fVi1fiw1XsIzFg3bWmPUZLrl2srkb48Ze4iZbdMTBTp9y/TKO+lfxRnnt6vQa0k8fTfu4POayde78jSZzr61XQj7riNVXR1xrdKBOaEdWHPgG5rlS2q/xrw6H69eRoeQubSqVAwH5wo0HnWA4mM38W1ne2OddFk3Z8ziQST83IPGdQez8W5SsSnrzIxGU5DW3b3QPUqgQ7fWFJZTkkI8Rb4KkM2e9eBkw12RhptGnpyWNIiJVPhlwmOsc2voPM4KS5uMD1yKNoawoHuExNri6OxIPuv0P6sYrtNFB+vrafPg4JAfa7PUy1TiHxPkF0CUtT4siuXDMosHS0XREhkUQISVPUULWGP2DxxsM9qmtLflxz8OIvChFY5F82OV4g7FlJLaH0iknSNOedO/QcbwFYnI4CBCY6yxL2qPXco7R58hUb9vwx/pQ61Q7lT71ZR1PsvjncMoOySRpd6LaaV/rwghUpNw+wdk9JM3n9V9/6lwM3gcobD2S9MCTqSWlUd+vYkStfH6wL7CnE4N+MVjD2e/ro+19NyEeIqclvwHGJ7uP6RaTw4PXMvExh+R3yovt0P9jdMMx6WHwYn4Xkv4ewgL1FJPH3YhfgrbZsUb6wlhePTa7vcdKeDkwTfRQ5n7Hwk2ITIiPbdX7Pw+Lb8tjzfeNZmeomVy0XNamjsmRYYMpw/9zvzGrTw1aFz+yTP6cwZFiSXgwmm8owtTvnoFHNRrq0KIp0m4CSGEyHHktKQQQogcR8JNCCFEjiPhJoQQIseRcBNCCJHjSLgJIYTIcSTchBBC5DgSbkIIIXIcCTchhBA5joSbEEKIHEfCTQghRI4j4SaEECLH+Vc/W9Lb+zY+t3zVsWRVKlfE0fEZP0QphBDitfavDbfzF6+ydt1WihVzwizFj1jGxsYTEfGQoYN78dZbRdVSkV0SoyKItMhH3pfwy91CCPHEvzbcfly+jtx2drR69x21JImiKGzbuV/fq7vFsCG9KerkoE4RL5uiXOTrah7MLrmE6xt6U0R+m0wI8ZL8a8NtwcIVuBR3xrNhHbUkWWJiIpu37eHKlb/UktSsrCxxr1iOTh1bYWFhrpbmfMqdRbxbawUtfzvORxWyFkTpzasojzi3fA4HCvfm4zZvYy7hJoR4SSTc0gk3A0PA+d0NUMdSi4mJZe/+X/GoWY3mzRqqpTmfcvsH3im/lNZnz/JxxSyG2wvMK4QQWfXa3y25fdch/O8FqmNPM0wz1HnZcuXKhUsJ53SH8uVKUdm9Ardu+6m1U1OUcLaMrEXXRZe5s3siPTzdKFO+Dh0GTGaHT4xaK2W9s5z/6UM613HFYdRedao+RH2289XQTni6laJivXcZNnM3t6OSP4so2iB+/2E0nRtWoqRrWWq3Hs73x4PVqcmetZzkNlzCZ9tkhrSvRbmy1Wk5eDZHAhKMdQx8f+5D3U6zuIQ3C3p6UKf2B+wIV5eRGMH5VePp06wypYoXp5xHOz76/hgPEpOmZzTvk3W3nnveWO+JJ+1tVKk07p4dGTZtCz4xKbbbxDYLIf69Xvtwy5Pbjo2b96YbcIYywzRDnZchPj6ewMD7xn8zY2Zmhi5Rp46llcijexc4u/VzBn4dRL2R37Lwmw/wiFtLzwbdWXnnyYE6qd7pn0by8e68tPy/uSzt42acovtrEZ0aDGKPZSNGzVnCnA+bEr+2F57D1nNfMQRDIpfnetFmtg8VBkxl+c/fMtTdl5k9PmDDveQgyGw5T9rwv7WfMGazDc0/mMWCqT0pdGoCXkOW46sGVOEGo5g+pgPFcaTV6FlMnzGIaraGoInnytwONB62DW3995n141Im9yjGuSnt6b/01jPnfbJu7+A4Yz0D7fX/0rF+L7Zp6zJ8xkJmvt8Q7bb+NGg3n2va1PstszYLIf693ojTkocOn+DS5b/o3KklzsWcjGVPgs3drSxNGtc1lmVF2tOSd3z9Wb9xu/GUo42NNV07tzP20jJy5OhJ7vj5M2J4P7UkmaKEstLLieFH2/HTlQ10d1CvMWl9mN/Sne8qbOXS3GbYEpZUL3gaF379mLIWT65FhbCxT0XGF1jJ6XnNyadei0q8s5TWladSbfctptb1Y8E7ZVjY6DiXJ9Y0TleUYM7uOoe1xzu42VuYuJzwpDbcm8iZ37/ATW1D1MEPKd/Gmy9v76K/k9qudE4tKkosgWd2cSC8Cj2bv42Ffh2GwPv1/0rRxm8q/hv7UMhQlu68SftpWoWj3Jha29j+9b0qMCrxOy6u7omjehdrYtAaelQaAd9dZV1Px7/nM6XNQoh/pzfiS9yG8DKE2JMe3IsGW3r27D1EJbfyTJ38ifFfw/gLa9WddkXUv/U05iXp0qsZgb+exFstMyhSr/bfwWakO8dvu6CpZzke3vXHz++ucfDPVRaPcgFcuGq4FmhPGXcnfH6ZxrQN+qB9mIBGY0+NNi2MwWb6cpIUbFD375AwsC1fiYr6Vt69pxZkQKOxpmgtL/q1KIm5LpbQu978efIQl4L0bbjmw9PfInwGfXuP7Iqlc9/OfwebgcbBi76ddOw9coZ4Y28zyfO2WQiR870xTyhJGXAvO9gMHj2OpGQpV6ysrIz/GsZflGNRR2zT3AFYpOhbmN/05V6KS0NW5moYPRHkh09MOMt6l6ZsmZIphibMuAhXfe7oQ8WOZpO3ML9VLKvf86S8kzNVWg1jxtbrRD0JABOW84SdtY36l8rcHH3fD1PO8MXe3MG0AU2oWLQAzmU96DhiNkcDnuOtFXSXW3EuvOVsqRYk0WgscS7hSry3LylPTr9Im4UQOdsbE24GTwLuZQebQYXyZdi564DxO26Gfw3jLyokLCxVT8PgYdgDtE6OPOlcpatAIYroe2Yjd4UTGhbx1HBlctKpVE2Bagyeu5c/9V2Vi4eX8Z7bbRZ1b8LIraHG6aYu50UoieeY2cGLFVHN+GrrJfzDQrl1/hDz+pRWa2RBQXt9jy2IsHB1PIXwsCAo5kBhdVwIIZ7ljQo3A0OovexgM2jVsjE1qrrz4H6I8V/D+IvS7t3PsSh1RE9Rwji481dsartTUi1Ll60b1WoGc+TEdcxtbLC1tTUONpZhXDl1nbB4DYo2HO/j+zkboGBmY08ZjzYMnbGQjzyC2X/qqsnLybp4ErTqnwb3L/LHzeL0+mQMHeqWppC14ZpbHN7Xr6kVUkozb1o2hvY+ZvvuY8Sm+FCgxB5nz/YwalR3xy5NT1gIIdLzxoVbdjEzM6dBg9r06NbB+K9h/EXlzv0rX763kN9vPiA04Cp7Z/Tj401OjBrdyXiTRUY0mtIMnDCc0NmDGPnjMbzvhxPsc4aNX3SjWbsRrPdL1Ne6xer329B+5ByO3QjmUchNTm9cwpYr+Whco1wWlpMFji6UsbnJnlWbOXXuDuGGALIvh1sxf/au2cDZO+FEhftyeuUoxq96qM6kSm/eNDSakvQfP5zEBUMZtvAoNwLDCLpxlMVDB/ODdjATBpRVawohxLP9a8PNxtqaqKjk75xllWFewzKepUCnb5leeSf9qzjj/HYVei2Jp+/GHXxeM/U1pfTkaTqTg6vbcf9bL6qUcKB4xXqMPODEp5s3MKqCGRrz6ny8ehkdQubSqlIxHJwr0HjUAYqP3cS3nZMf+pzZcrLEujljFg8i4eceNK47mI139YFkXocxK6dRdO8g6pdzoLCTG/13uvPF5/XUmVTpzJuePE2ms29tF8K+60hVV0dcq3RgTmgH1hz4hmb5pNcmhDCNPDg5zYOTTaFLVLh3L5Du+l5e1coV1NJkaW9xj38cROBDKxyL5scqi+tSFB3RwfcI0ebBwSE/1map5zfcdh8ZHERojDX2Re2xS3nXZQqZLScrEuMfE/5IH0SFcmOp9kAVfVmQXwBR1voALZbv7/K00ps3PYqiJTIokEg7R5zyPusCpRBCPO1fG24GGf3kjSlKvl2C0qVd1bHU0oabEEKIf9a/Otyyi4SbEEK8WhJu2cBwqtDvzG/cylODxuULqqVCCCH+KRJuQgghchz5KoAQQogcR8JNCCFEjiPhJoQQIseRcBNCCJHjSLgJIYTIcSTchBBC5DgSbkIIIXIcCTchhBA5joSbEEKIHEfCTQghRI4j4SaEECLHkWdLZiNdAlw8qCX2cdZ2sW1+DZWamJMri78lKoQQIomEWzY6t0fLiXUJFHHJWkrdu6GlyUBLKjU1V0teb4lREURa5COv5fP/AKoQQrxMEm7Z6MT6BPyvKvQYb6eWZEL/ShxaGcuFQ/H0nGpFEdf0zxpfWdSN0RtD1TEwz1uMMhXcqFizJV3buJEvi7/2/SIU5SJfV/NgdsklXN/QG3si2D2mCytcvmH9+5WNddK2V2NVAJdyFajWoj/9mrpg/Yxf5P6nKEr4U+0WQry55JrbayJRBzsWRHPpSDydx1lmGGwG0YEXOXYrPw26dKVLly60qv0W+B1gbr861O0+m+PBWf+8otxZRMsidflOH8ZZ40qLUZ/zab+6JP1yXSIhN49yISDGOGaQur1d6dS8OvaPjzOjfXWafX2GGOV1+Hz1dLvT8/z7SQjxT5Jwew0kxClsmhWF7xUt3SdZ4VzehNOY9h50HTKEIUOH8cEnU/luxX5OnlhKg5sT6T12B+FZDQxFR9yjWLRZnE2jyUv1ARP5rG1JzJ/VA/u7vUMZNuozpizcx7FlLfD56gt+8VXrvAmecz8JIf5ZEm6vWEykwrppUYQF6ugxxRr7Z/TYMpOnfHdmzx6O2covWHAuUS1NEuOzna+GdsLTrRQV673LsJm7uR2VdIT2/bkPdTvN4hLeLOjpQZ3aH7AjPGmakhjB+VXj6dOsMqWKF6ecRzs++v4YDxLV6Uo4W0bWovXc88ZxU2k0ZhRt24Um2hOcuxxvLMtsXQaKPrQjzi9nTM8W1CxTmurNBzL39wf8NqkWnl+fVGsledY2m0JJ8GPjh01p0Hs+Fx8rz9xPQojXi4TbKxQZnsjqyVEkxCv0mGpNfocXv/Zk17gnvUrc4OS5QLUEdH8tolODQeyxbMSoOUuYoz9gx6/theew9dzXh0XhBqOYPqYDxXGk1ehZTJ8xiGq2hiCJ58rcDjQetg1t/feZ9eNSJvcoxrkp7em/9Ja69EQe3buAd3CcOp4FugQSsMDSMpeJ64K4s1/RstH/cbJgGz5bsIgp/UpyfHR/Zv56gevB0WqtzLc5M4rWn+2jWjP8REXGzRpB5TyaDPeTEOL1I+H2Cm2cGY11bug22Qq7/C/rpgoXXCvAJZ/bxjFFCWHzlAnc9vqFnfNH4tWsMc27/odlm2dRcccY5p1QsHOpSUOP0uQjD641G+LpWZViVob2JFKw3kjmbtrCyglD6di0OV0/nMvEnrk5vO84oS9wrUxRYri2fDn77Zrg4W64KzTzdSnKPdZMno6/1zK2zf9Avy3v0KrXWFavaMKjP5KWa2DKNj+Log1g9+g2DDrtyc/bvqWFU9L/JhnvJyHE60bCLccxw8IC4uPjSTSEj+4cv+2Cpp7leHjXHz+/u8bBP1dZPMoFcOFqgDrf0zQaa4rW8qJfi5KY62IJvevNnycPcSlIv4JrPmTpUlnAARZMnsTkSROZ+NmHDGpdi4ZjvWk6axpdHU1cV/wFThw2p3OPthRIcX3PrLwX3euoIwYvsM3oAtj7STv6HKvDiu3f8W5R+bKhEG8iCbdXqPOntsRGwrqJcURFvKxrN3fxvQHuJV3JZQiAID98YsJZ1rs0ZcuUTDE0YcZFuOpzR50vfbE3dzBtQBMqFi2Ac1kPOo6YzdGA53jbaB9yPyCAAP1wP9IS1+YfseLkGdYMKPf3jSiZrutBAH5aZxwd0gaOPQ7F1D8NXmCb7y0cwOBVd4iJSQBzCTYh3lQSbq9Q7gK56DnRDgtLDWvGxRJx/8UDTntpN9uvF6Gq21tJBQUKUUR/8B+5K5zQsIinhiuTU3Z5UlMSzzGzgxcroprx1dZL+IeFcuv8Ieb1Ka3WyILinfly0WIWLV7Cwu9nMf6jQbR2L4CZGmwmrcveEWdzf4Ie6NSCJ0IMuZfsBbbZxmM8+/7czZjC6xgy6Af+intZHzqEEP8kCbdXzCa3hm5j7SjoZMaa8bEE3059l2NW6EL/x7djZuLT8ktGNlCfbmLrRrWawRw5cR1zGxtsbW2Ng41lGFdOXScsPuU1o3gStOqfBvcv8sfN4vT6ZAwd6pamkLUGRYnD+/o1tcJLZMq6rKpSp6GWjSs2E5LiDsqEy+tYc0IdMcjSNqdWsEZ93BxrMXbFfOpc+IS+E4/x6Klri2n2kxDitSPh9hqwsNLg9YkdJSqas3ZSHP7X0vZM0hHpx4VTpzl14ji/7lzD0m8+pkOdhnwb6sUPs/vwlvqUEo2mNAMnDCd09iBG/ngM7/vhBPucYeMX3WjWbgTr/dQwdXShjM1N9qzazKlzd5K+J2dfDrdi/uxds4Gzd8KJCvfl9MpRjF/1MGmel8mEdWk0zvT+ciwuuwfRvM8kFv2yhuVzP6b9oOPY11Qr6ZmyzYqi5eKCdnh4fsHhh0/3zixK9WfR8iFEf9eHERv80T0JuPT2kxDitSPh9powPCS57Qhb3D0t2Tg1ngeZ9eBuLqJ/44Y0fqcJ3UbNYt2JEMq8t55Tvy2mSykLtVKSPE1ncnB1O+5/60WVEg4Ur1iPkQec+HTzBkZVUK8rWTdnzOJBJPzcg8Z1B7Pxrj4kzOswZuU0iu4dRP1yDhR2cqP/Tne++Lxe0jwvkanrsq7xGXuO/YhX/r/YtmQhG/9nQZ9li+jlolZQZb7NOiKD7nDr9l0ikr5m95RCTWfwy1el2fNeH+b+qT65JJ39JIR4/cizJbPR6/bgZEXRER18jxBtHhwc8mNt9vTpucT4x4Q/0odDodxYPrkepi8L8gsgylofEsXy/V2eHZ5nXYpyn5/avsXMar9z/ctaammSZ22zofem1RruLs369qS3n4QQrw8Jt2wkP3nzchnC6Ob6oXywqx7zFg6krK3hupzC47MzaN9sBiWX+7K0fV61thDi30zCTbxREny38mH73qx6VJHGtUtj+/gvjh++SaE+S9nxfSeKpdMbFUL8+0i4iTdOYvQ9zv52jMu+oSTY2eNSuRGNKtnL6UEhxN8k3IQQQuQ4crekEEKIHEfCTQghRI4j4SaEECLHkXATQgiR40i4CSGEyHEk3IQQQuQ4Em5CCCFyHAk3IYQQOY6EmxBCiBxHwk0IIUSOI+EmhBAix5FnS2Yj+ckbIYR4NSTcstHr9mOlGUmMiiDSIh95LXPGU/Vz2vYIIbJOwi0bnVifgP9VhR7j7dSSTOhfiUMrY7lwKJ6eU60o4pr+WeMri7oxemOoOpZa0Z4/sHxAGXXsaYoSy6GJbfgu/1fs/L9a+vGLfF3Ng9kll3B9Q2+KPONnY9Ku1zxvMcpUcKNizZZ0beNGvlyvPkzSbo89Eewe04UVLt+w/v3Kxjppt0NjVQCXchWo1qI//Zq6YP0a/HSOooQ/1W4hhOnkmttrIlEHOxZEc+lIPJ3HWWYYbAbRgRc5dis/Dbp0pUuaoWWF/GqtjCQScfsoZ/wfq+OutBj1OZ/2q0tBtUS5s4iWRerynT6YU0q93i60qv0W+B1gbr861O0+m+PBWf+clNG6TJH+vGm3J5GQm0e5EBBjHDNIu/86Na+O/ePjzGhfnWZfnyFGyXpbXr6n252eF9l/QuRkEm6vgYQ4hU2zovC9oqX7JCucy5twGtPeg65DhjBk6NBUQ3ePImoF02g0eak+YCKftS2J+ZMei6Ij7lEs2vSOl3+vdxgffDKV71bs5+SJpTS4OZHeY3cQntVgeNa6MpPOvOluT3pS7L9hoz5jysJ9HFvWAp+vvuAXX7XOm+BF9p8QOZiE2ysWE6mwbloUYYE6ekyxxv4ZPbbn8fDCCsb0bEHNMqWp3nww80+EGM5+/s1w+mvLyFq0nnveOO77cx/qdprFJbxZ0NODOrU/YEf4s4+cecp3Z/bs4Zit/IIF5xLV0iQxPtv5amgnPN1KUbHeuwybuZvbUUnLe9a6lMQIzq8aT59mlSlVvDjlPNrx0ffHeJD47HnTbo+pNBozirbtQhPtCc5djjeWZdYGA0Uf5hHnl6fYxwOZ+/sDfptUC8+vT6q1kjxrX5hCSfBj44dNadB7PhcfK8/1WgnxbyHh9gpFhieyenIUCfEKPaZak9/h5V7riT37NS0bj+ZkwTZ8tmARU/q58vvoQSy+oVYwSuTRvQt4B8cZxwo3GMX0MR0ojiOtRs9i+oxBVLM1Tnomu8Y96VXiBifPBaoloPtrEZ0aDGKPZSNGzVnCHP2BOX5tLzyHree+PhQyWpeixHNlbgcaD9uGtv77zPpxKZN7FOPclPb0X3rLuOyM25l6e7JEl0ACFlha5jKpDQZxZ7+iZaP/S7GPS3J8dH9m/nqB68HRaq3M90VmFK0/20e1ZviJioybNYLKeTTP/VoJ8W8g4fYKbZwZjXVu6DbZCrv8WQy2oMMsmTGd6dO/TjEs4vcHSQdKRQlk7dTp3G2/hK3zP8Cr2Tu06jWWVT81J+qisUq67Fxq0tCjNPnIg2vNhnh6VqWYlSltc8G1AlzyuW0cU5QQNk+ZwG2vX9g5f6R+/Y1p3vU/LNs8i4o7xjDvhPKMdSVSsN5I5m7awsoJQ+nYtDldP5zLxJ65ObzvOKH6MHj+dqZPUWK4tnw5++2a4OFuuEs18zYoyj3WTJ6Ov9cytqXYx6tXNOHRH0nLNTBlXzyLog1g9+g2DDrtyc/bvqWFU9L/ti97HwiRk0i4vani7uNz5QpXUw03CX3SYUk4z8lD4NWzHQVTXHsyr+BFdw915KUyw8IC4uPjSTT0RHTn+G0XNPUsx8O7/vj53TUO/rnK4lEugAtXA9T5nqbRWFO0lhf9WpTEXBdL6F1v/tRvzKUg/Qqu+fBSLokFHGDB5ElMnjSRiZ99yKDWtWg41pums6bR1dHENsRf4MRhczr3aEuBFPvYrLx+H9dRRwxeYF+gC2DvJ+3oc6wOK7Z/x7tF5cuPQphCwu0V6vypLbGRsG5iHFERWbxWUqI701f+zMqff0kxzKL9W+pB9v497sQXx8kx7XflHHB6S/3zpbqL7w1wL+lKLsOBPsgPn5hwlvUuTdkyJVMMTZih7zle9bmjzpe+2Js7mDagCRWLFsC5rAcdR8zmaMBLfLtqH3I/IIAA/XA/0hLX5h+x4uQZ1gwo9/eNKJm24UEAflpnHB3SBo49DsXUPw1eYF/cWziAwavuEBOToP9kIsEmhKkk3F6h3AVy0XOiHRaWGtaMiyXifhYD7lkKFtbHWCChYer438IJC1b/fIm0l3az/XoRqrqpyVmgEEX0B/mRu8L1bYh4argyOWXXJjUl8RwzO3ixIqoZX229hH9YKLfOH2Jen9JqjZegeGe+XLSYRYuXsPD7WYz/aBCt3QtgpgabSW2wd8TZ3J+gBzq14IkQQ+4le4F9YeMxnn1/7mZM4XUMGfQDf8W9xPeIEDmYhNsrZpNbQ7exdhR0MmPN+FiCb6e+2/C52VagctVH7NhzjNiUNywEHmLXKfXvZ4onQav+mQld6P/4dsxMfFp+ycgGak/R1o1qNYM5cuI65jY22NraGgcbyzCunLpOWHzyabyn1nX/In/cLE6vT8bQoW5pCllrUJQ4vK9fUyukZHo7s8SUNlhVpU5DLRtXbCYkxR2UCZfXseaEOmKQpX2RWsEa9XFzrMXYFfOpc+ET+k48xqOnbkDJpn0gxBtMwu01YGGlwesTO0pUNGftpDj8r6XtCaQj0o8Lp05z6uSpVMMfN5O6ahpNWfqP6UXkguGMWHocnwdhBFzZzbTBS/B1NlbJmKMLZWxusmfVZk6du5P6u2tP1nviOL/uXMPSbz6mQ52GfBvqxQ+z+/CW+pQSjaY0AycMJ3T2IEb+eAzv++EE+5xh4xfdaNZuBOv91BBPb1325XAr5s/eNRs4eyecqHBfTq8cxfhVD5PmeeJZ7XxRJrRBo3Gm95djcdk9iOZ9JrHolzUsn/sx7Qcdx76mWknPlH2hKFouLmiHh+cXHH749HZYlOrPouVDiP6uDyM2+KN7sq3ZuQ+EeINJuL0mDA9JbjvCFndPSzZOjedBZj24m4vo37ghjdMMbX9I/n5Xwfbz2LvAk2uTWuJW3JGSDcfg030Jkz3VChmxbs6YxYNI+LkHjesOZuNdtdzgyXrfaUK3UbNYdyKEMu+t59Rvi+lSykKtlCRP05kcXN2O+996UaWEA8Ur1mPkASc+3byBURXU60fprEtjXocxK6dRdO8g6pdzoLCTG/13uvPF5/WS5nniWe18Qaa2wbrGZ+w59iNe+f9i25KFbPyfBX2WLaKXi1pBlfm+0BEZdIdbt+8SkfQ1u6cUajqDX74qzZ73+jD3T/XJJdm4D4R4k8mzJbPR6/LgZEUXTci9UDSFi1LY1vS2JMY/JvyR/sBcKDeWKe4GzCpF0REdfI8QbR4cHPJjbfb0stJbl6IvC/ILIMpaHwbF8mXYhpfVzvSY2oaUFOU+P7V9i5nVfuf6l7XU0iTP2heG3ptWa7jrNOvbkJ37QIg3kYRbNpKfvMnZDGF0c/1QPthVj3kLB1LW1nBdTuHx2Rm0bzaDkst9Wdo+r1pbCPFPknAT4gUk+G7lw/a9WfWoIo1rl8b28V8cP3yTQn2WsuP7ThRLp5cqhMh+Em5CvKDE6Huc/e0Yl31DSbCzx6VyIxpVspfTg0K8QhJuQgghchy5W1IIIUSOI+EmhBAix5FwE0IIkeNIuAkhhMhxJNyEEELkOBJuQgghchwJNyGEEDmOhJsQQogcR8JNCCFEjiPhJoQQIseRx2/9g6LjFH6/pnDhjo7gR0m73T6vhiouZtQvr8HWSp5FKIQQL4OE2z9AlwhrjulYfSweww8lVytpjkP+pE7z/YhEzvloMTxjt2cDS3o0MMNM+tNCCPFCJNyy2eMYGLc2nluBOvq9Y03zKpaYp/mdNq0O9l+IZ8WvsbztZMbU7pbksVEn/oslRkUQaZGPvJbSoxVCZI30EbKRocdmCLawRwrzh+amVfWng83AUGaYZqhjqGuYxzBvRq4s6kbzZp2YdzZBLXmaotxief+m+npfc9LQXXwNhGz/mOYtJ/BrZPrtUR7u5bPmzRi7N1zf/otMr++IS89feJDN7X8V+1NRYjk4oSltvv1DLcmcooSz69OmdP3holoihMiIhFs2MpyKvK3vsU3pZUuRfMm7OkbfWb7sp+X4tQQCwpJTzFDHUNcwj2HejEQHXuTYsZ3MXv4r0RkcaHVnf+abtUf19fx4rJa9aoVquGF1dD6rD6XforB9K/jvqXxUqpFfP+ZKi1Gf82m/uhRMmpxtXs3+TCTi9lHO+GdlaYmE3DzKhYAYdVwIkREJt2wSFYvxGlufd6xTBdtvlxPoM+cxX66N5pcjcQz94TEzNkeToE2abqhrmMcwr2EZzxL8yzJ2hSb9nZKixHD45x+5qY6/Npza0aOtlq0b9/EwTYgoSgi71+/AsmMP3i0EGk1eqg+YyGdtS2L+D/3o5xu3P4UQGZJwyyYnbyT1yFpUsTT+a3D1ro5ZW6IZ3Mya9Z/m5b/Dc7NsZB7uPEhkwZ7kT+NP5nmyjHS905MeRbaydMMdtSCF8J389Es0fft2VguSxfhs56uhnfB0K0XFeu8ybOZubkclBY3htNeWkbXouugiV9d+Ss933HFv0JmPlv2PSCWK8ys+oW/LKpSt4EHXzzdyMyZ1QD1ZdqNKpXH37MiwaVvwSVFHoylI626dYPsG9oephU8E7WLDbhu6dmtJXn2YPWlL67nn1QpJntX++N+n0Kj2SHaGJ69TuTSfNrVr8cGmYLXEsJ1/Mq91LfquuK2W6L3g/sxom594eGEFY3q2oGaZ0lRvPpj5J0J4utazt08IYToJt2xy7raOKq7mqa6x/XIklkbuFrSslhx4Dvqe2sTutlR2MVdLkq7BGeY1LCND1p70H1aDo0t+4U9d6oOf34ZlbCs0kP7t9F2gFHR/LaJTg0HssWzEqDlLmPNhU+LX9sJz2HruG3tSiTy6d4H/rRnD5KMl6PX5ND5qEMfuEV3oN7AfY0+70vWTGUweUgn/xb0ZuPh60oL1tNf/S8f6vdimrcvwGQuZ+X5DtNv606DdfK5pk9uXt3l3OtvuZMPe5LAx8N+5lgOFe9L5HVu1JKkt3sFx6njm7beoXAmXv35h1/FodQ7w/nU9hy5cYPXO34l60lu8cYi1h6IpX8UladzgOfanqdsce/ZrWjYezcmCbfhswSKm9HPl99GDWHxDraDK/PURQphKwi2bhDzSB1eB1Lv3ZoCOaq4W6lgyx/y5aKwPvZQM8xqWkbFcVOw+lKY3lvHL78kBoOgus3rpr1Qe2heP5Aw1nvbbPGUCt71+Yef8kXg1a0zzrv9h2eZZVNwxhnknkg+egUpzps57n9bN2jFw2nw+rHuP3WcqMGXee7Rp0oJuHy1kxmBHzhw+RbD+oKsowWz6cgLnPReybel/6P5uE97tNpol2xfS4OIkJq2/ry5Zz+4duvSwZ8+GXQSpB2xF8WPHukMU79WVBlbGoqeY1P7cDXn33QR2/fYHWmO77vP7gTM07d6dgvsOc1q9X8T/6H7Ol+hIM7ek8SRZ3Z+mbbOiBLJ26nTutl/C1vkf6Nv9Dq16jWXVT82JSnFfSFZeHyFE5iTc/mkpLh9pULAy12JrkfDU8GErM2b2eToIU3HqxKAuUaz8aTeP1KCIO7GSZdeaMKR7hZSr0ncLzvHbLmjqWY6Hd/3x87trHPxzlcWjXAAXrgaoFcG+dg1KmyfNrdG4UK5KXihXGle1F6rRmOFYrDgEhWA8u6hf9pFdsXTu2xnHXMlr1Th40beTjr1HzhCvtk+jsaKhVy8c9q5jz5NV+mxl7e8l6dO5dsbX10xov0ZTgMbvtiB0x69cMKzu0VEO/laPtuMG0EazmyPnDYEXzrGDRyjasTlV0777s7g/TdrmhPOcPARePdtRMMW2mVfworuHOmJgwvYJIUwn4ZZNCuvz4H546mtmpYqace6WeueInqW5joBrWjZOjWPdpPSHo6szvj0d8tByQH/sNi5ls/7YpyiP2PfTCh57DaZTMbXKE0F++MSEs6x3acqWKZliaMIMfQ/iqk/ytSZrixRdlCdy5Ur1ZtGkPNQH3eVWnAtvOaeeT6OxxLmEK/HevgSqZQbmtTvTp9SvrNvhaxy/vn0NZ9z70emptEnBxPbbv9MKT99dHLkOsScOc6BiSzxLetDk3TD2Hb0K0b9z6GA+OjT3wOypIM3K/jRxm+/f4058cZwck087J3HA6S31T4MsvD5CiMxJuGWTavpuzoXbWuMXtJ/o5WnN4Uvx7Dsfbxw30yic3qxFp8+74uXNUw3OZc2475PIjRPJYZgeq3r9GFz+IEvXXkMJ3MKyjTb0G9iafGkP3AUKUQR7Ru4KJzQs4qnhyuQ6asXnUNBe33sJIixcHU8hPCwIijlQWB030JhVw6tvJY6s2c5t5Qrb1pylVp9OVEjRA3qKqe0v2pTWdS+z77dbnPltNw6tGlFWY0u9Zs25tP8ot04fZq95e5rXSb9XbPL+NHWbCxbWx1igvo3GSSmEE5bysmN2vj5C/AtJuGWTOmWSdu2+C0lBZlDxLTM+7WjL4n2xdP8m6YLak2Cr39n676FuR2tC/BMxt4KOn1kb62VEY+ZGzyHvcH7xClb8vJgDpQbTp346F65s3ahWM5gjJ65jbmODra2tcbCxDOPKqeuExT8jWDJjY1j2Y7bvPkasejrPQIk9zp7tYdSo7o5dmnCo2KkvNU6vYeu6Lay95Emf9qXVKRkwsf0aTQmatqvJsf3fsG6PljbvVDWWF2jQnEbH9zFz9Q7iWrekfga71eT9aeo221agctVH7NiTuh6Bh9h1Sv3bIDtfHyH+hSTcsomd/uBpeFbkz7/G8uBh8unJRm4WrP5PHr7wenJXYGqJ+p7e1rlR3PtLR7dJ1hRyzvygVrzzYDqEzOH9iWfxHNobd7On59FoSjNwwnBCZw9i5I/H8L4fTrDPGTZ+0Y1m7Uaw3u8ZXzvIhEZTkv7jh5O4YCjDFh7lRmAYQTeOsnjoYH7QDmbCgLJqzRRKdqK351mmjfgGn3d70ba4Wp6BrLS/TJN2lN+7lB+D2tC4hnqh0KkRLWruYeUvgbz7rudTYZuSafvTtG3WaMrSf0wvIhcMZ8TS4/g8CCPgym6mDV6Cr7OxilF2vj5C/BtJuGUjw0OQXZ3MGL8qOlXAWVloqJTi1v+UvM/G4/2HVt9jszIp2IwKtGFgXyd9orZnUJcSauHT8jSdycHV7bj/rRdVSjhQvGI9Rh5w4tPNGxhVIcV3Fp5DnibT2be2C2HfdaSqqyOuVTowJ7QDaw58Q7N86YWDM+16tiYuSku7Hm1xeEbYPGFy+ys2o30psGzRhDpqD02jeRvPlhX07/jmvNvY8ASUZzB1f5q4zQXbz2PvAk+uTWqJW3FHSjYcg0/3JUz2VCuosvP1EeLfRh6cnM2e9eBkw12RhptGnpyWNIiJVPhlwmOsc2voPM4KSxsTAy4LFEVHdPA9QrR5cHDIj3U6PZPnpShaIoMCibRzxClvJnd7PqfsbP/zMHWbFV00IfdC0RQuSmHbjMPqdds+Id5EEm7/gIx+8mZUK7Onws3gcYTC2i+zN+CEECInk3D7B6X9sdJZfS1ZPzmOvIVy4dYo9Sf+qHCFfYtjcSqdiy4TMvhmsxBCiHRJuL1i5/dp+W15vPGuyfQULZOLntMyuLVPCCFEuiTchBBC5Dhyt6QQQogcR8JNCCFEjiPhJoQQIseRcBNCCJHjSLgJIYTIcSTchBBC5DgSbkIIIXIcCTchhBA5joSbEEKIHEfCTQghRI4jj9/6B6V9cLKBfV4NVVzMqF9eg62VPP1fCCFeBgm3f0BGP3ljcD8ikXM+Wgy/1Wn45W7DD5yaSX9aCCFeiIRbNnvWj5U+odXB/gvxrPg1lredzJja3ZI8NurE11BiTByR5pbktcienmZ2L18IkfNJHyEbGXpshmALe6Qwf2huWlV/OtgMDGWGaYY6hrqGeQzzZuTKukM0H3SAeZczrqQoD1n++R59vfOcNHQXXxJFCWF63424fOLNAxOXG3LoFM2H/Y9fo9Ovrzz247PBexh7LO65lv+8XsV+NPxq98F5e2jz0wO1JHOKEseuWXvoujpELRFCZEbCLRsZTkXe1vfYpvSypUi+5F0do+8sX/bTcvxaAgFhyQdWQx1DXcM8hnkzEh0cwbFrwczeeo/oDA64uivefPNbGMeuRvJYLXs58tKiR1k+bedAQbUkM4XcC2B1+SarTySoJamFHbvJf/+yoFJFS/1Y1pf/vF7NflSIuBfGmfvx6rgpFEL8w7gQnPF7QgiRmoRbNomKxXiNrc871qmC7bfLCfSZ85gv10bzy5E4hv7wmBmbo0lQf6zUUNcwj2FewzKeJXj/X+yKUEdSMPQODm+7zU3DhbyXTKOxpHqnGnz2Tj7MTV2+vQs9aitsPXCXh2lCRFFi2b0/CMv6b/Nugedc/gt6FftRCJG9JNyyyckbST2yFlUMvZEkV+/qmLUlmsHNrFn/aV7+Ozw3y0bm4c6DRBbsiVFrJc/zZBnpqlyMHvnus3RvOv2JR778tF9H36aOakFSiGyZup3WK4LVkiTKvRv07nmQ5X5JoaNoo/h99Uk6991KyXc3Ufu9Y3x/LrltGS0nxu82X004gGfHjVTosZeBP/hwLTJpmRqNFa1bOsGJ2+x/aCxKFuLLhjO56NrSmbz6EMl8+Zuo2Hsfw5b6cjsmafnxZ8/SqOdxdj5MDk7lr8u06bmdD/anbHso897bTt+tj9QSvSzuxyeetKdRp0249zvAsIW38FHbk9LDa38x5pO91GyzieqDjzL/fKy+H/a0Z22fECLrJNyyybnbOqq4mqe6xvbLkVgauVvQslpy4Dnoe2oTu9tS2cVcLUm6BmeY17CMDFk60L9TXo5u8eZPXeqDoN9eb7bleZv+ja3UkiSPgh/jHZEmMLVx+N6OJkK/KkXfq7r886+0+fkxFdpXYfmUGgwtHc3Mz0+w4X7yOtIuR3f7Kp0GnmJTQhFG/F9tvu5QmMcHT9Ni7A3uJCbNl7fe23S2esCGY6m7o/6H73Agd3E617ZQSzJa/mn2WDgy6uPazOnlSPz+k3hO8uG+vs0W5Qri4n+XXefV7q+e9+k7HLoTyerfAol60lu8c4+1F3SUL5cnadzgOfaj9tYVOuq3d5uuCMM/8mBmtyJofztNgw8uc02bvIzYy+dpOew8J/M689nnHkxpn5vfZ/7OYj+1giqz7RNCZJ2EWzYJ0XcOHAqk3r03A3RUc00+iD/hmD8XjfWhl5JhXsMyMqahYqsyNA24xS/nkkNQ0YWxenMolTuVwuPpVWUikiNHH+HcpgpfernQoEYJBoxuyObPy1DeIv2DrKGntem/f3KuUnV2TqtE1wbOtO9Wg5WT3agXd5+TAWpFm2J0aWrBnv2+BKkHbEV5zI69IRRv+TYNkvM+FcPyNy/8k9uN6rFznBte9YrR/N3KLPu2MhVPnGfeeX0l26K865HIrj8eoNUvW1Gi+f3UQ5p6FqXgH4GcVjPP/0wg5ws706x00niSrO1HRYnRb+8lzlepwbYpleje0Jl3W1Vmyfc1aKAPvUl7o9V6UaxdfJ279WqxdVxFfbudadW2GqumFCXqjrGKkUnbJ4TIMgm3f1qKyzcaFKzMtdhaJDw1fNjKjJl9MkmnIq4Maqhj5WY/HqmBEXfem2X3CjOkVYGUqzKRNWVKWeKz+wLT9t7nzuNENBobajR6C7eCGbxVdMH8djIRr3YlccqVvEYb90qsWdiQHs5JZRqNGQ2bl8Dhf3fY8+RGQb87rL1mQ59mDhlfXzMuH5rWzM/DwCj8AiKNg3+u/Hg4x3PhZpTxtGfj+kUIPRbABcNuiAzk4J8FaDu8NG00QRy5mhQix06HUrSxM1XTbkpW9qMuhCOnFDq3fRvHFNurKfQ2fRsq7D0TTLxhGdoQTuqDyau1CwVTbJt5KVe6l1FHDEzYPiFE1km4ZZPCeeF+eOpTgKWKmnHuVvKpM0tzHQHXtGycGse6SekPR1enf4dhEgtadnTF7pg3m/WBoSjx7Ntym8cNStPJQa2SBRqNBc0+aMT8uomsnn6Q8i3XU+W9o8w4GJ58ai+tkEhuaW14yzHzt5J5ZVf6OIay7nCkcfz6r7c5U9yVThWMo+nTL98nQceyyTso23l7iuEwM3w1XPVPulZmX7sYniEBHLkFsecDOfCWfrx4EZrUTmDf/8L1hUEc+p8ZHeoWweypIM3CfjRur/VT22sIb+diNsTfjSTQUBASzR19PSf7tOuywSnlJTwTt08IkTUSbtmkmqsZF25rjV/QfqKXpzWHL+kPnOeTbgM30yic3qxFp8+74uXNUw3OZc2475PIjRPJYZgeq2qlGVwshKW7w1GCb7PsqBn9OhUnXwY9Ia16DexvsTpS9g00+ewZPLYlf+7pxMUf6vDe29EsGn+AkQfj1Bpp5LPCgThC0rnbMC2Nmb2+J5OHI3vucFsJY9vex9Rq40qFFD2gp+iXX0QfPiO/6ULooaeHKx+oSVHEmdblI9n3xyPO/BGIQ30nyurDul4dey6dCOTWxUD2mhWleeX03/Im78d81voeWxxh6ZwyDn+o30f2NhQ2jORP2i+haW+gIZ4wfdb+zdTtE0JkiYRbNqlTJmnX7ruQ/H2mim+Z8WlHWxbvi6X7N0lHxyfBVr+z9d9D3Y7WhPgnYm4FHT+zNtbLiMasID29CnF+801WbLvBAaeS9KmWzjfF0R9sC+ci8PZDQtRemOEGEr8L97lmHNOPa2PxPneXsw8UzGxsKFO5BEM/rsNHZRLYfzFMrZWGdSGql9Gx82hAqu+KJQbcZc73FzkQmDpMKzZzpcaN22zdfYe1fgXp0ySfOiUD1gWpViqBI+fDMbc2x9bGwjjYWMRx5WIEYWrHVqPJQ9OGeTl28hLrTii08TBGDAVqFKPR9XvM3HWPuDrFqJ/B7jR5Pxrbo2P70SBiU2yvEhfEnqNaapQviJ0hEK0LUPltHTuOpa7HA392PdnhBiZunxAiayTcsomd/iBqeFbkz7/G8uBh8unJRm4WrP5PHr7wslVLUkvU9/S2zo3i3l86uk2yppB6zepZircoQ4dH3rz/4yM8O5XG3ezpeTT6A27V6g7kPXOJ95bd4fSVB+zfcIKRe+MoqtaBR6yedpT20/7k2J0YHoVHcHrfX2zxNaOxWwG1TmoaTT76D3VBt/0UQ9cEcCMklrtX/Zg+7QTjjsRTICljkhV3pbf7Y6bNvIFPzbdp66SWZ0Cjyc/A4S6ErtG3dWMg3vrlB/s9YOOcwzT7+CTrA5KDo0ydtyj/P19+DHfSt1fdB/ZOtCgVzMqD8bzboGhS8GTAtP2o395hriRuOcGwtYHcCI4j6E4giyee4AddCSZ45VfrFaD/AGcit5xkxIYgfELjCPD2Zdokb3wLGasYZWX7hBCmk3DLRoaHILs6mTF+VXSqgLOy0FApxa3/KXmfjcf7D62+x2ZlUrAZ5S3OwJaWYOnIoJa51cKnFWleix+75OZ/K07QaMRRZpzPx8SPXf8ON415ET6eXpMOETdo1WMzDq1303h2EMX7e/Jti4x7kHnq1ubgl28RseYYVdtuosyg31muc2HVrGrUSPN8SI0mN+1aFSEuXqFdyxI4PCNsnshT14ODU4pxf9VRquiXX7z7QUb+YcOn05swqlSK+UsXo72jfjfUKkod9e59Qxh51rPTv9PtebdW6lv6n2LifsxTpxb7phQnbPVRqrbbiGuvI8x56MyaRbVplie5PQWb1GHvx/ZcW3IYN327Sw4+h0/LekyuqlZQmbx9QgiTyYOTs9mzHpxsuCvScNPIk9OSBjGRCr9MeIx1bg2dx1lhafPyD26JcfFEKhbktU5/2YqiIzIsmtA4c+yLWGNnblobFCWRyJAoIixtKJrXLJ0bN16M4TRqdFgkITpLHApZYp1Oz+qflLS90UTa2OKUO+PPiYougZD7cWgK2FH4Ga/n67Z9QrzJJNz+ARn95M2oVmZPhZvB4wiFtV9mb8AJIUROJuH2D0r7Y6Wz+lqyfnIceQvlwq1R6u+0RYUr7Fsci1PpXHSZkMnpNCGEEKlIuL1i5/dp+W15vPGuyfQULZOLntMyvt4lhBDiaRJuQgghchy5W1IIIUSOI+EmhBAix5FwE0IIkeNIuAkhhMhxJNyEEELkOBJuQgghchwJNyGEEDmOhJsQQogcR8JNCCFEjiPhJoQQIseRcBNCCJHjyLMls5EuAS4e1BL7OGu72Da/hkpNzMml/u6bEEKIrJFwy0bn9mg5sS6BIi5ZS6l7N7Q0GWhJpabp/1r3v0liVASRFvnIaym/aSeEMJ2EWzY6sT4B/6sKPcbbqSWZ0L8Sh1bGcuFQPD2nWlHENf2zxlcWdWP0xlB1TP8iWhXApVwFqrXoT7+mLli/5F/Azi7G7TjdmsXL+uCSTpsV5SJfV/NgdsklXN/QmyIvcbsUJZzdY7qwwuUb1r9fWS0VQuQUcs3tNZGogx0Lorl0JJ7O4ywzDDaD6MCLHLuVnwZdutJFP3RqXh37x8eZ0b46zb4+Q4zh575fMuXOIloWqct3+rB+WYzbcfU+cer401xpMepzPu1Xl4JqiSlMa2siITePciEgRh1PX3ZstxAi+0m4vQYS4hQ2zYrC94qW7pOscC5vwmlMew+6DhnCkKFDGTbqM6Ys3MexZS3w+eoLfvFV67xMio64R7Fo/8FjvEaTl+oDJvJZ25KYZ6XX9jLb+gq2Wwjx4iTcXrGYSIV106IIC9TRY4o19s/osT2LRmNG0bZdaKI9wbnL8Wqpfvk+2/lqaCcaVSqNu2dHhk3bgk9M6iO1og3i9x9G07lhJUq6lqV26+F8fzxYnQq+P/ehbqdZXMKbBT09qFP7A3aEJy/jyTo83UpRsd67DJu5m9tRSdMNp/+2jKxF10VnOf/Th3Su44rDqL3GaZl5Mm/ruefVkhdv67MoCX5s/LApDXrP5+Jj5YWWJYR4tSTcXqHI8ERWT44iIV6hx1Rr8ju84DUlXQIJWGBpmfSyaq//l471e7FNW5fhMxYy8/2GaLf1p0G7+VxTuyKKksjluV60me1DhQFTWf7ztwx192Vmjw/YcC+pTuEGo5g+pgPFcaTV6FlMnzGIarbGSej+WkSnBoPYY9mIUXOWMEcfDvFre+E5bD33jadHE3l07wKnfxrJx7vz0vL/5rK0j1vSzJlKmtc7OOnE5Yu29VkUrT/bR7Vm+ImKjJs1gsp5NM+9LCHEqyfh9gptnBmNdW7oNtkKu/wvFmyKEsO15cvZb9cED3dz/Xgwm76cwHnPhWxb+h+6v9uEd7uNZsn2hTS4OIlJ6++rc/pxZOcZnPuN58sB7WhQvzUDvl7J5h8GUt5Sa6xh51KThh6lyUceXGs2xNOzKsWsNPp1hLB5ygRue/3Czvkj8WrWmOZd/8OyzbOouGMM804k93IeWHTkh9VfMrhLO9rWdFZLs+r52/osijaA3aPbMOi0Jz9v+5YWTkn/WzzPsoQQrwcJtzdVwAEWTJ7E5EkTmfjZhwxqXYuGY71pOmsaXR3103XnOLIrls59O+OYK/mArHHwom8nHXuPnCHe2LOyp4y7Ez6/TGPahpPceZiARmNPjTYtcLO3SJopI/p1/LYLmnqW4+Fdf/z87hoH/1xl8SgXwIWrAWpFKFKvNmUtXjQYXqCtGdEFsPeTdvQ5VocV27/j3aLy5UIhcgIJt1eo86e2xEbCuolxREUk93JMon3I/YAAAvTD/UhLXJt/xIqTZ1gzoFzSzRdBd7kV58JbzpbqDEk0GkucS7gS7+1LoHHcjmaTtzC/VSyr3/OkvJMzVVoNY8bW60RldtdlkB8+MeEs612asmVKphiaMOMiXPW5o1YEK/PnDJ8UXqitGbi3cACDV90hJiYBzCXYhMgpJNxeodwFctFzoh0WlhrWjIsl4n4WDtDFO/PlosUsWryEhd/PYvxHg2jtXgCzJ3cVFrTX99iCCAtPGk0pPCwIijlQWB3XFKjG4Ll7+fPuPS4eXsZ7brdZ1L0JI7cmf5cuXQUKUUTfmxq5K5zQsIinhiuT66gVX57nbmsGbDzGs+/P3YwpvI4hg37gr7jnC0khxOtFwu0Vs8mtodtYOwo6mbFmfCzBtxPVKS/Ixo1qNR+zffcxYlP0apTY4+zZHkaN6u7Y6YNQ0YbjfXw/ZwMUzGzsKePRhqEzFvKRRzD7T11V53oinoSkS1tJbA3rCObIieuY29hga2trHGwsw7hy6jph8S/3+tQLtTUDBWvUx82xFmNXzKfOhU/oO/EYj57qBZq2LCHE60PC7TVgYaXB6xM7SlQ0Z+2kOPyv6dQpz0+jKUn/8cNJXDCUYQuPciMwjKAbR1k8dDA/aAczYUBZteYtVr/fhvYj53DsRjCPQm5yeuMStlzJR+Ma5dQ6eo4ulLG5yZ5Vmzl17g7h+gDQaEozcMJwQmcPYuSPx/C+H06wzxk2ftGNZu1GsN7PhKCO9OPCqdOcOnkq1XAjJL0e1PO3VVG0XFzQDg/PLzj88OllW5Tqz6LlQ4j+rg8jNvijexJw6SxLCPH6k3B7TRgektx2hC3unpZsnBrPg5fQg8vTZDr71nYh7LuOVHV1xLVKB+aEdmDNgW9oli+pV6Uxr87Hq5fRIWQurSoVw8G5Ao1HHaD42E1829neWMfIujljFg8i4eceNK47mI13k4rzNJ3JwdXtuP+tF1VKOFC8Yj1GHnDi080bGFXBhGtYNxfRv3FDGqcZ5v7x9Pa/WFt1RAbd4dbtu0Qkfw0wlUJNZ/DLV6XZ814f5v6pPrkkg+0WQrze5NmS2eh1eXCyodcSGRRIpJ0jTnnTv7FDUeKJDA4iNMYa+6L22GVwZ2Ni/GPCH+lDrVBuLFM8NURRdEQH3yNEmwcHh/xYm73cU5IpPW9bDftBqzXD4jnu2sxou4UQrycJt2wkP3kjhBCvhoSbEEKIHEeuuQkhhMhxJNyEEELkOBJuQgghchwJNyGEEDmOhJsQQogcR8JNCCFEjiPhJoQQIseRcBNCCJHjSLgJIYTIcSTchBBC5DgSbkIIIXIcCTchhBA5joSbEEKIHEd+FSAbyU/eCCHEqyHhlo1elx8rFUKIfxsJt2x0Yn0C/lcVeoy3U0syoX8lDq2M5cKheHpOtaKIa8ZnjWODAlm1+hobzkXgHZaLt1wL0qxteYY3LUwh89fjl6IVJY7ds39lRbGarO9ZWC1N35V1hxi9P14d078xrSxwcclPtXpl6Fc3D9avwa9fZ2V7hBCvllxze00k6mDHgmguHYmn8zjLZwabLvAWQwf+ykxvO9r2qMa8j8rSwjmeTdMP0H5BEI+U1+XzikKIfxgXgvUbl4no4AiOBVrQoIULXfRDpzqFsI8KZsanu2m2OJiY12KbTNsexf8qLRvv4Lub8rlRiFdFwu01kBCnsGlWFL5XtHSfZIVz+Wefxjy36TwbClZg89xajGjtQuvm5fn886bs/8wJ77WX2RGuVnzT5Lena5dyDOlanmF9qjJlUkuOfV4En5/P8kuAWueNoBAXm4hWsk2IV0bC7RWLiVRYNy2KsEAdPaZYY/+MHpuBomjx84/F/K18uFqohapCTetxYVNdWqU4Cxrjd5uvJhzAs+MmKvbex7ClvtyOST7qKolxnN9xhj6DtlKqxXrK9djPR6sCeZCYVEdRYtkydTtd1z3g/KYTdO61EYdpfsZpBsnL30iFHnsZ+IMP1/TblFoivr+dY9iHO6jYZiuNx/yPnb4J6rSMaTQair7jQhNdOOe8E41lmbXXQNH38iKu/sWYT/ZSs80mqg8+ytyzMfz2/XY8F99XayXJbP9kRtE+ZuO0PTQYc5mLUQq+2w5Td/Q1LhHNgs92UKfncXY8NH15QoiXQ8LtFYoMT2T15CgS4hV6TLUmv0Pm15U0GnOqV7fH6vhlJuwLIzQh+cCpMbfEqagdBaySlqO7fZVOA0+zx8KRUR/XZk4vR+L3n8Rzkg/39QGgKDqurDxI4xn30FYrw6wJdZncwoZzy47Qf+Mj4zIMHgU/5vS203z8uwUt+1RnabuCxvKk5Z9iU0IRRvxfbb7uUJjHB0/TYuwN7qQIm8hzF/lkr4Z3ulRn/kelKXf3Jt0++5MLplzu1SWSgAZLc43J7Y27fJ6Ww85zMq8zn33uwZT2uTk+8ygz/3jM9bDkUM1s/2RG0UayfepBhv+Zj3EfV6SynYbCNSoyvX8ximNBq941mD66DNVs1BmEEP8YCbdXaOPMaKxzQ7fJVtjlN/2GiRId67GqsyWbpuyldMfd9PvmIj8fDyU4RVgYelybF/7J7Ub12DnODa96xWj+bmWWfVuZiifOM++8sRYFq5Vn7vTGrHy/PB3rOdO1X10mNsvF4eP3CU1xgH9gVpwfZtVgcEtX2rrnNi5/03//5Fyl6uycVomuDZxp360GKye7US/uPidTnEYMjy/C+ClV6Fa/KO80rcj8cWUoe+cu+26rFTJg6KVe2+LDfsvCeJQ17J/M26soUaxZ+Bf+DWuxbVxF/XY706ptNVZPc+SRd9JyDUzbPxlTtFHsnn6QQVeL8PO8OrSwT3r97IoVoWHlvOTTh5urmxOeNe0pZmn6ayuEeDkk3N5AGnM7mo9sweVNzfixlwO5fe/w2ad7qdDzEPMuxCVV0gXz20loWjM/DwOj8AuINA7+ufLj4RzPhZtRxl5g0Upv069+Psx1OkIDI/jzwj0uhenfFr6P8E1aklGRqkUom/IuTOPyE/FqVxKnXMnlNu6V9OHSkB7OyWUFqzrgbpE8blayAJWJwv+BWvBEaCALFpxl8vf/Y+K3Jxj0/g4aLo6k6cgadC2c1GvNtL0JIZy4qKFzKxcKpLjD0qzk23Qvp44YmLB/MpQYxd5Zh+hzoRAr9MH2rgk9biHEP0vC7RXq/KktsZGwbmIcUREmnKJLwXA9ys6xCB161OD7ue34a30TZrpFMf6TE2wL1y8rJBKfBB3LJu+gbOftKYbDzPDVcNX/sXE5sfpgnPbFbio2W4dz5710/OoyRx88fbC2MkvzVtEv/5bWhrccM38L2Vml+b6eflmW+n8Sky6jJdPFc/9BNAH64X5ULlw9yrFiWWvWeOXHXA2qTNsbGo2fzgrHwmm3wRqHIuqfBibun/Tc23KawfujiYnT7+fX5GsXQojUJNxeodwFctFzoh0WlhrWjIsl4n7mAWe4WSIhXkdCilvxDEGXu5gj/cdUomNMEAcu6VMjnxVFsGDkN10IPfT0cOUDR5TEYGZ+dJwVsU589W1r/H/txq0NrZjXJre65GfQL9+BOEIi1PGXoUgJvpzcgEVfNmTh+NqM71+e1mWtMVODzaT2FrTB2SyOoJC0+zKWB8HqnwYm7J+M2JSvwL4N7zAm3z2GjL/KX/JVUSFeOxJur5hNbg3dxtpR0MmMNeNjCb6dtjuTRuIDJrRfS61FwejS3PSQeD+S2zoz8ufRv6zWBalWKoEj58MxtzbH1sbCONhYxHHlYgTG+ypCQ/kjyJpeA6rQoWp+Clkl3bThfTvjXsvfrAtRvYyOnUcDiE7RjsSAu8z5/iIHArPhgG9Key0LU8ddYeP224SkuKkl4YYPa66pIwam7J8MFKzgiFvhIoydVo06Ny/S9/v0vluYiL5jKIR4RSTcXgMW+oO01yd2lKhoztpJcfhfe8ZRMVdhunfJj+/aEwz66Sb7Lz0k4P5Dzh65wpAxl7lUtizdKhh6c/kZONyF0DUnGLkxEO8QfXD6PWDjnMM0+/gk6wP0B+MCBXArEMveXbc4ey+OqIeGuyKPM36/Vl1ZxjSafPQf6oJu+ymGrgnghn75d6/6MX3aCcYdiadAdjzAw4T2ajS56T2iHC6n/qD5Z2dZtN2b5StP0X7iA+xLqZX0TNk/ipLIxdX78ej3B4fTeT6oRYmyLJrkQvSG3xmxJyr5w0bh3JSxiGbPjtucuvKY8KeCTwiR3STcXhOGhyS3HWGLu6clG6fG8yCDHpxGY0alfo3YNrQQt9b9QfthuyjZcRf1x17hVgV3dsxyx139KkCeuh4cnFKM+6uOUqXtJop3P8jIP2z4dHoTRpXSoDF3YMxUN4rqg6B+l00UbrmT/kcK8kW/pFv9M5Onbm0OfvkWEWuOUVW//DKDfme5zoVVs6pRI8UNJC+Lqe21dqvKnmW18Mr9kG2bbrDxSi76TK5Hr6JqBVVm+8dwd2ZkcDS3gqKIyKAnV6huLX4Zmps9M44w9y81ZK3eYswXJUjYd5LGg39Hn51CiH+YPFsyG2X3g5MVrZawkEhC4ixwdLQlnxpqaRmu00WH6evpLHEoZIm1Wep6SkI8QQFRRFnZUtzBEssUdxmawtDDiQzRB4ClDUXzmv19jSy7PE97FSWan0ZsYWa5ZlwflfLOkmfvH8O2aXUaLJ7jxpFEfTvDH+tDtIBFlvepEOLFSLhlI/nJm3+eIYxu7vmdD47aM29iOcraGK7LKTy+coH27/9FyQmdWNrUcK+mECInk3ATOU5CwC0+HHWKVVG5aeyWB9voxxy/GE2hprXYMd6VYml6rkKInEfCTeRIiTFRnP0jkMsBcSTYWuNS1olGZW3k9KAQ/xISbkIIIXIcuVtSCCFEjiPhJoQQIseRcBNCCJHjSLgJIYTIcSTchBBC5DgSbkIIIXIcCTchhBA5joSbEEKIHEfCTQghRI4j4SaEECLHkXATQgiR48izJbOR/OSNEEK8GhJu2Si7f6xUCCFE+iTcstGJ9Qn4X1XoMd5OLcmE/pU4tDKWC4fi6TnViiKuGZ81jg0KZNXqa2w4F4F3WC7eci1Is7blGd60MIVM/NVoRYlj9+xfWVGsJut7FlZLs9eVdYcYvT9eHdO/Aa0scHHJT7V6ZehXNw/Wr8FP0ryK/SKEeLnkmttrIlEHOxZEc+lIPJ3HWT4z2HSBtxg68FdmetvRtkc15n1UlhbO8WyafoD2C4J4pJj6eUUhxD+MC8H6lb9kiv9VWjbewXc3U7clOjiCY4EWNGjhQhf90KlOIeyjgpnx6W6aLQ4mxuS2ZyfT9ktG2yiEePUk3F4DCXEKm2ZF4XtFS/dJVjiXf/ZpzHObzrOhYAU2z63FiNYutG5ens8/b8r+z5zwXnuZHeFqxVdKIS42EW16x/389nTtUo4hXcszrE9VpkxqybHPi+Dz81l+CVDrvBGesY1CiFdKwu0Vi4lUWDctirBAHT2mWGP/jB6bgaJo8fOPxfytfLhaqIWqQk3rcWFTXVqlOAsa43ebryYcwLPjJir23sewpb7cjnn20diUeZLrbKRCj70M/MGHa/ptMfDddpi6o69xiWgWfLaDOj2Ps+NhxuvUaDQUfceFJrpwznknGsuUxDjO7zhDn0FbKdViPeV67OejVYE8SExejqLv5UVc/Ysxn+ylZptNVB98lLlnY/jt++14Lr6v1kryPPshJUX7mI3T9tBgzGUuRilZ3kYhxD9Lwu0VigxPZPXkKBLiFXpMtSa/Q+bXmzQac6pXt8fq+GUm7AsjNCH5gKoxt8SpqB0FrJKWo7t9lU4DT7PHwpFRH9dmTi9H4vefxHOSD/czOP1nyjxJdU6xKaEII/6vNl93KMzjg6dpMfYGd/ThU7hGRab3L0ZxLGjVuwbTR5ehmo1x1ozpEklAg6W5Rh9aOq6sPEjjGffQVivDrAl1mdzChnPLjtB/4yN1Boi7fJ6Ww85zMq8zn33uwZT2uTk+8ygz/3jM9bAEtdbz7YeUFG0k26ceZPif+Rj3cUUq22mebxuFEP8YCbdXaOPMaKxzQ7fJVtjlN/1GihId67GqsyWbpuyldMfd9PvmIj8fDyU4xb1BihLL5oV/crtRPXaOc8OrXjGav1uZZd9WpuKJ88w7r1ZMwZR5DHU2/fdPzlWqzs5plejawJn23WqwcrIb9eLuczIA7IoVoWHlvOTTH/hd3ZzwrGlPMcuMt8/QG722xYf9loXxKGuop1CwWnnmTm/MyvfL07GeM1371WVis1wcPn6fUH0gKUoUaxb+hX/DWmwbV1HfVmdata3G6mmOPPJOWq7B8+yHlBRtFLunH2TQ1SL8PK8OLeyTtiOr2yiE+GdJuL2BNOZ2NB/ZgsubmvFjLwdy+97hs0/3UqHnIeZdiEuqpAvmt5PQtGZ+HgZG4RcQaRz8c+XHwzmeCzejkuqlZMo8xjqJeLUriVOu5IO5jXslfdg0pIezCQf40EAWLDjL5O//x8RvTzDo/R00XBxJ05E16Fo4qXdatNLb9KufD3OdTl89gj8v3ONSmP7t6vsIX8MyEkI4cVFD51YuFEhxh6VZybfpXk4dMXie/fBEYhR7Zx2iz4VCrNAH27sm9KyFEK8HCbdXqPOntsRGwrqJcURFZH56LCXDdSo7xyJ06FGD7+e246/1TZjpFsX4T06wLVy/rJBIfBJ0LJu8g7Kdt6cYDjPDV8NV/8fqklIwZR59nVtaG95yfIG3ji6e+w+iCdAP96Ny4epRjhXLWrPGKz/malDF6gN72he7qdhsHc6d99Lxq8scfZAiXEKj8dNZ4Vg4beBY41BE/dPgefaD6t6W0wzeH01MnH5/mvj1CiHE60HC7RXKXSAXPSfaYWGpYc24WCLum3D9R1FIiNeRkOIWPUPQ5S7mSP8xlegYE8SBS4mQz4oiWDDymy6EHnp6uPKBozp3CqbMo6/jQBwhEeo8z6NICb6c3IBFXzZk4fjajO9fntZlrTFTg01JDGbmR8dZEevEV9+2xv/Xbtza0Ip5bXIbpxsVtMHZLI6gkLT7LJYHwabcGL4AAB+0SURBVOqfBs+zH1Q25Suwb8M7jMl3jyHjr/KXfCVUiDeGhNsrZpNbQ7exdhR0MmPN+FiCbyfdLZihxAdMaL+WWouC0aW5GSLxfiS3dWbkz6N/Wa0LUq1UAkfOh2NubY6tjYVxsLGI48rFCFLcb5HMlHmsC1G9jI6dRwOITrH+xIC7zPn+IgcCU7YpEX2nKetCQ/kjyJpeA6rQoWp+Clkl3WTifTtFL8uyMHXcFTZuv01IijsoE274sOaaOmLwPPtBVbCCI26FizB2WjXq3LxI3+/T+w7hc26jECJbSbi9Biz0B2+vT+woUdGctZPi8L/2jKNlrsJ075If37UnGPTTTfZfekjA/YecPXKFIWMuc6lsWbpVMPTm8jNwuAuha04wcmMg3iH64PR7wMY5h2n28UnWB6Q9SJs2j0aTj/5DXdBtP8XQNQHc0Ne5e9WP6dNOMO5IPAWePNCjcG7KWESzZ8dtTl15TPhTofAMBQrgViCWvbtucfZeHFEPH3N623HG79eqFQxtzU3vEeVwOfUHzT87y6Lt3ixfeYr2Ex9gX0qtpGfKNilKIhdX78ej3x8cTuc5oBYlyrJokgvRG35nxJ6o5A8VL7KNQohsJeH2mjA8JLntCFvcPS3ZODWeBxn04DQaMyr1a8S2oYW4te4P2g/bRcmOu6g/9gq3KrizY5Y77upXAfLU9eDglGLcX3WUKm03Ubz7QUb+YcOn05swqlT615BMmSdP3doc/PItItYco6q+TplBv7Nc58KqWdWoYaEu1+otxnxRgoR9J2k8+Hf0uWIyjbkDY6a6UVQfXPW7bKJwy530P1KQL/oVVGsksXaryp5ltfDK/ZBtm26w8Uou+kyuR6+iagVV5tukEBkcza2gKCIy6MkVqluLX4bmZs+MI8z9Sw3ZF9hGIUT2kmdLZqPsfnCyotUSFhJJSJwFjo625FNDLS3DdbroMH09nSUOhSyxNku/XkqmzGPo8USG6APB0oaiec3+vmaWUmJCPOGP9QFTwALLdKY/i6KfNyggiigrW4o7WJo0v6JE89OILcws14zro1LeWfLsbTJsi1anweI5bhx5kW0UQmQPCbdsJD95k30MYXRzz+98cNSeeRPLUdbGcF1O4fGVC7R//y9KTujE0qaWam0hxL+NhJt4YyUE3OLDUadYFZWbxm55sI1+zPGL0RRqWosd410pZkIPVQiRM0m4iTdaYkwUZ/8I5HJAHAm21riUdaJRWRs5PSjEv5yEmxBCiBxH7pYUQgiR40i4CSGEyHEk3IQQQuQ4Em5CCCFyHM1lP3lmkBBCiJxFem5CCCFyHAk3IYQQOY6EmxBCiBxHwk0IIUSOI+EmhBAix5FwE0IIkeP8q78K8OCeD0H3bqtjyVxLu5OngIM6JoQQ4k3zrw03P59L7N2xmWLFnDDLlfwE+djYeCIiHtKhS1/yF3FWS4UQQrxJ/rXh9uvOX8iXx45W776jliQx/ODltp378fa+Rfuu/chX0EmdIoQQ4k3xrw233RuX8raLM54N66glyRITE9m8bQ9XrvyllqRmZWVJ2XLl8WjUDjMzc7VUCCHE60LCLZ1wMzAEnN/dAHUstZiYWPbu/5VKlavjVjN1z08IIcSr99rfLXn62H5CHqQfMgaGaYY6L1uuXLlwKeGc7lC+XCkqu1fgnr+vWjs1RQln/+fVGLnyf1xb8wEftHbG44vd6lSI9d3Kf//Tjl6NXGjdsS3j5mzCN0admEJm9ZLXc4GbW/7D6M7lad2uA1NX/49oJYpr6/6PT7u707xBDUZ+tSHddQghRE702oebra0dx3/dmW7AGcoM0wx1Xob4+HgCA+8b/82MmZkZOp1OHUtLR1TQef5c+z7TD+al4fDv+aqre9IU7wW836Y7B3X16TlhKWP6eZK4tw89+n6Hj9ZYxci0eknrubL1Y+afdKHdB9PpVyeOI5914JPRvfnm7Nu0HDGTD3tV4v6K7nz+8zV1PiGEyNneiNOSF84cw9fnGvXeaUPhIkWNZU+CrUTJ8lSp2cBYlhVpT0ve8fVn/cbtxlOONjbWdO3czthLy8iRoye5dcefVp0HqyXJFCWErQPtGR86ne2bx/C2ellOUR6w+/0yfJk4n13/7UNh9aNF4oNVjG40HKbeYG4npyzUU9cTNpOdmz7BRb8eRbnNqi5vMz34C9YemoabsUzH2WnF6e/9JUeXD6Jg8s2hQgiRI70RX+I2hJchxJ704F402NKzZ+8hypWrwOCRXxj/NYy/qEK16vwdbEa6s5w+EEvLrl3/DiwDjX0XOrbWceTEGRIMHzVMracqWLOWMdgMNBpXSlbICyXL4Gz2pMyMwo4lIDiEiKQiIYTI0d6IcDNIGXAvO9gMHj2OpGjxtzG3sDL+axh/UZYWKZNNL9gP/3hXijlZqQVJNBpLHJ1Lor1zhweGAlPrqawsLNS/UjDLlerF1ej/E0KIf4s3JtwMngTcyw42gwrly3D08D7OHt9t/Ncw/tLlL4J9rkAiIp4+E/wwIgAcHSloGDG1nhBCiHS9UeFmYAi1lx1sBq1aNqZmVXcehgUb/zWMv3TW7lSs+phDvx4lPkVuKXG/c3R/GO7ulbAxdLBMrSeEECJdb1y4ZRfDl7EbNKhNj24djP9mx5ezNZpSdBr9Pok/DmLcysPcvh9KiM8R1n48gFXaoYzoUS5L9YQQQqTvXxtu1tbWREU9/xe/DPMalpFVdg1m8ePCrkQsbkf7moVp1KQNy8M78u3676ifV62kZ2o9IYQQT5MHJ6d5cLIpdIkK9+4F0rJtJ4qXTPr+WlYpipboBwFE2zphnyedG0JUptYTQgiR7F8bbgYZ/eSNKRyLuVKkWEl1TAghxOvkXx1uQgghcia5oUQIIUSOI+EmhBAix5FwE0IIkeNIuAkhhMhxJNyEEELkOBJuQgghchxNTGzKpxcKIYQQbz7puQkhhMhxJNyEEELkOBJuQgghchwJNyGEEDmOhJsQQogcR8JNCCFEjiNfBchGugS4eFBL7OOs7WLb/BoqNTEnl5laIIQQIksk3LLRuT1aTqxLoIhL1lLq3g0tTQZaUqmpuVoihBAiKyTcstGJ9Qn4X1XoMd5OLcmE/pU4tDKWC4fi6TnViiKu6Z81vrKoG6M3hqpjYJ63GGUquFGxZku6tnEjXxZ/Wfx5KUo4u8d0YYXLN6x/v7JaKoQQr55cc3tNJOpgx4JoLh2Jp/M4ywyDzSA68CLHbuWnQZeudOnShVa13wK/A8ztV4e63WdzPPif+rySSMjNo1wIiFHH06fcWUTLInX5Th/0QgjxT5Bwew0kxClsmhWF7xUt3SdZ4VzehNOY9h50HTKEIUOH8cEnU/luxX5OnlhKg5sT6T12B+Gv0w+sKzriHsWilWwTQvxDJNxesZhIhXXToggL1NFjijX2z+ixZSZP+e7Mnj0cs5VfsOBcolqqz5bECM6vGk+fZpUpVbw45Tza8dH3x3iQmDptYny289XQTjSqVBp3z44Mm7YFn5isJZKS4MfGD5vSoPd8Lj5W8P25D3U7zeIS3izo6UGd2h+wI1xSTgiRvSTcXqHI8ERWT44iIV6hx1Rr8ju8+LUyu8Y96VXiBifPBRrHFSWeK3M70HjYNrT132fWj0uZ3KMY56a0p//SW8Y6Btrr/6Vj/V5s09Zl+IyFzHy/Idpt/WnQbj7XTOxyKVp/to9qzfATFRk3awSV82go3GAU08d0oDiOtBo9i+kzBlHNVp1BCCGyiYTbK7RxZjTWuaHbZCvs8r+sm0BccK0Al3xuq+OJFKw3krmbtrBywlA6Nm1O1w/nMrFnbg7vO06oougDMJhNX07gvOdCti39D93fbcK73UazZPtCGlycxKT199VlZUzRBrB7dBsGnfbk523f0sIp6a1l51KThh6lyUceXGs2xNOzKsWs/pkbXoQQ/14SbjmOGRYWEB8fT6I+uDQaa4rW8qJfi5KY62IJvevNnycPcSlIX+maD76GWXTnOLIrls59O+OY4k5LjYMXfTvp2HvkDPHPuoanC2DvJ+3oc6wOK7Z/x7tF5Qt6QohXS8LtFer8qS2xkbBuYhxRES/rOtRdfG+Ae0lXcmmSgir25g6mDWhCxaIFcC7rQccRszkakOKlD7rLrTgX3nK2VAuSaDSWOJdwJd7bl6STnOm7t3AAg1fdISYmAcwl2IQQr56E2yuUu0Auek60w8JSw5pxsUTcf/GA017azfbrRajq9pZxXEk8x8wOXqyIasZXWy/hHxbKrfOHmNentHG6UUF7fY8tiLBwdTyF8LAgKOZAYXU8PTYe49n3527GFF7HkEE/8Fec3DAihHi1JNxeMZvcGrqNtaOgkxlrxscSfDv5Lses0oX+j2/HzMSn5ZeMbKA+3eT+Rf64WZxen4yhQ93SFLLWoChxeF+/ljTdwMaNajUfs333MWJTnH5UYo+zZ3sYNaq7Y6f2AtNTsEZ93BxrMXbFfOpc+IS+E4/x6KnTmPEkaNU/hRAim0m4vQYsrDR4fWJHiYrmrJ0Uh/81nTrlGSL9uHDqNKdOHOfXnWtY+s3HdKjTkG9Dvfhhdh/eenLtzL4cbsX82btmA2fvhBMV7svplaMYv+ph0nQ9jaYk/ccPJ3HBUIYtPMqNwDCCbhxl8dDB/KAdzIQBZY31FEXLxQXt8PD8gsMPn+6dWZTqz6LlQ4j+rg8jNvijexJwji6UsbnJnlWbOXXuzuv1HTwhRI4k4faaMDwkue0IW9w9Ldk4NZ4HmfXgbi6if+OGNH6nCd1GzWLdiRDKvLeeU78tpkspC7WSPrjM6zBm5TSK7h1E/XIOFHZyo/9Od774vJ5aI0meJtPZt7YLYd91pKqrI65VOjAntANrDnxDs3xPem06IoPucOv2XSLi1aI0CjWdwS9flWbPe32Y+6f65BLr5oxZPIiEn3vQuO5gNt5NKhZCiOwiz5bMRq/Tg5OV+McE+QUQZe1A8WL5sMzgNKOhdxYZFEiknSNOeZND8gnDdK3WcEdmxqcpM5Kob0P4I32QFsqd4fqFEOJlkHDLRvKTN0II8WpIuAkhhMhx5JqbEEKIHEfCTQghRI4j4SaEECLHkXATQgiR40i4CSGEyHEk3IQQQuQ4Em5CCCFyHAk3IYQQOY6EmxBCiBxHwk0IIUSOI+EmhBAix5FwE0IIkePIg5P/QTH6Xf3blUTitRpaVrM0lu09F4+luUKjirmwsZSfgRFCiJdBem7/AK0OVv6mo8P0WBbsjscvWEGXqDEOhr8NZYZphjqGukIIIV6M9Nyy2eMY+GJ1PL73dQxoZs077pZYpPmdtgR9oP16KZ6fDsRSwsGMr3paksdGnSiEECLLJNyykaEXNnp5PBGRCtN621I477M7yiGPEhn7SzT5c2uY098S8wx+rPTKom6M3hiqjoF53mKUqeBGxZot6drGjXy5/tnTm8b23OjBmtntKSS/sC2EeA3IaclstPqYzthjm9ordbAZrr1d9tNy/FoCAWGJainGOoa6hnkM82YkOvAix27lp0GXrnTp0oVWtd8CvwPM7VeHut1nczw4659XlDuLaFmkLt9dzfq8xvbcCEWrjgshxKsm4ZZNouMUfUDFM6CpNfb5knfz0SsJ9JnzmJmbY1j/exzD/vuYGZujSVCTwVDXMI9hXsMyMmTvQdchQxgydBgffDKV71bs5+SJpTS4OZHeY3cQrmQxpBQdcY9i0Uo/XgiRA0i4ZZMjVxTjtbV3KiXdFWlw3V/HzC3RjGhlw8qP8jB3SG5WjMrLPX3vbcGeGLVW0jyGeQ3LyIo85bsze/ZwzFZ+wYJzyT1CJTGC86vG06dZZUoVL045j3Z89P0xHiQmLd/35z7U7TSLS3izoKcHdWp/wI7wpGmZzZvSwws/MapNDcqVrkSzrh+y8EQwuhQha8qyFG0Qv/8wms4NK1HStSy1Ww/n++PB6tRkMT7b+WpoJzzdSlGx3rsMm7mb21FPt0kI8e8k4ZZN4nXQomrqm0d+PhJL8yqWNHa3UEugYB4N47rYUtnFXC3BOI9hXsMyssqucU96lbjByXOBxnFFiefK3A40HrYNbf33mfXjUib3KMa5Ke3pv/SWsU7hBqOYPqYDxXGk1ehZTJ8xiGq2ps37N/+1jHxvE/k7T2TBfyfTtfgVpjRvyBdHIo2TTVmWoiRyea4XbWb7UGHAVJb//C1D3X2Z2eMDNtxLDi7dX4vo1GAQeywbMWrOEuZ82JT4tb3wHLae+1ntsQohciS5oSSbxOnMjbf6p9R91iPe1/faGlZMDrdnMculYGX29JWsM5PK0XDvIC6c/JiyaW7gUJQQVnQqyoSyh/Cb3kA/HkvgmV0cCK9Cz+ZvY6GvbwiaX/+vFG38puK/sY/xJhDl9g+8U34prc+e5eOKScs0dV5je6bDf369wNS61uq8kRz8qDIdzn3A+aMfUZq4TJdV8P/buxewqOr8j+PvkdsAmpoBoXhbEy+glZdYNSTCS5mZhffNLUMtM9jtMaPNe6sl6prmXx/R7G9eKJXUymvqqpmGuSpomAkoAhI0XLyAwDDD2ZnhEKCow65IO3xfz/N7Hs453/PzzOAzH37n8hsusvRJb5Y/cZgfZ3RX+9FxfPsJtH5P4uvmYFrOInq0D9Mar+HoR/1oaOrHrCTZdOwPz6bLjvPM6SV/swlR18mnwD2mfhZbmD7ecbI34OJQXGWrKtjuzA4HU3bq9XpKTKMYjUZL08eCeal/G+yNhWSnJnDq+32czjAV/ZRkipNbq9a+bUYQ3MNJXTDvW5+gYcNxP/Ydx3Ot7csN706eJK2bw5xN35N8pdi0nxvdBva3BJuF8QQHtkOfgPZcSU0jJSXV0tLqtcOvfTqxZ9JL64QQdZqEWw0xzzzyyd5CdanUHzztOHm+PLAc7Y2k/2QgenYRG2ZW3b6NKlarrZXKxXPQqU1r6qlJWpj4NXPGBOHTtDFe7fx4fuICvk237ldv9b4tmuKh/lhG49mMliSSeql0+U59aTSu9J21hSUDComaEEAHTy8eGfAqEVvPkl92ujEjhaSCXFa92JZ23m0qtCAi4uBMUnJpnRCiTpNwqyGOdrD7pN7ygHaZ0U9o2ROr58CPpYFlp1E4utmA0ZR3LTrYV2pe7ezITCrh3JHqjd4Mp3fw1Vl3HvVtbllWSk4wb3Awn+b35f2tp0nLyeb8yX18NLqtZfvtVGtfXTamAVplOVlk0Az3B6zvS9O4C2MX7+KUKRHj9q9igu8FIkcEEbpVfa6vcRPcTSO80O25ZOdcvqnFz+pRWieEqNMk3GpIgI+mdOaRU3p1DXTwsuOt511Ysq2AlxZds6wrC7bHh2h/az2f15KVVoK9Ezz/Tuk1LGsYs//FwvB5JD31HqH+6g0qmXH8kNiCP00OZ3DPtjTRmq91FZFw9qfS7ZWYwrhillZn3x+3sS9B/dlEUYzE7v6Si80fxcc8pLOiL8WQS8LhbziermDn7Ia330DGRyznr346vok5U1rk4kuX7joOHjmLvbMzLi4ulubsmEN8zFly9JWvQQoh6iYJtxri4qRhlL8j/7+3EN2V8tvyA3wciJrUgEmDq55fq8QUiFsX53PpZyPDZ2pp4nWLD+u8FGJjjhJz5DD/3PYZH//jLQb36M3C7GCWLRhN87JZStza49ssjV2fbeJ4ci75uRc5uiaMaeuvlG4v82ArvJ0T2bl+MzEnkkufk7N2X7OWV9k4MZwtsWlk65I5tv4vjJ+XxNNTJtDdfCxW9XWeqNcH8lzohxw6p+NqViJHo1eyJb4hgd3aWyo0mra8Mv01sheEEPrJIRIyc9ElHSP63eH0HTSRjSnl77UQou6ScKtBo/ztLHNFTl1/3TK1VhknBw2dK9z6X1HCcT0JPxhMIzanWwebWWIkLwf2JvDJIIaHzWfDkSy8J2wk5sAKhj6k3nxhorHvQfiaOTTdFcLj7T14wNOXl7d14t2/9VIrVNp+hK8IoXjtSAJ7jiU6tRr7mnV9h+WvFxLx9B/wau5N0KRDdJy9h4//3Myy2Zq+NPZdeStqFYOzFjOgczM8vDoSGLaHFlO+YOEQN7UKGvSZx96oQWQuDOaRlh608OlF6B5P3t68ibCOFZ69EELUWfIoQA273cTJ5jsizTeNlJ2WNCvIU1g3/Rra+hqGTHXC0fnunGZT9NfISEknX2sKg2YNcax422YFJaa63KumAGlS/7caa/c1Mxbk8MuvxTRu5o6r/c111vRlfkQgT5dBdoEWt6ZuuJr+GKiK+dTndd0lsgwN8PBohNbu1sclhKhbJNzuAfMEyua5Itd/q//tAe0QU9BVFW5m1y4rfP7e3Q84IYSoKyTc7qEbv6zU/BzbxllF3NekHr5PlJ9KNMvPVdi9ohDPtvUYOr38+TEhhBB3JuFWy07uNnBgtd5y12RVmnrXY9Qc6++YFEIIIeEmhBDCBsndkkIIIWyOhJsQQgibI+EmhBDC5ki4CSGEsDkSbkIIIWyOhJsQQgibI+EmhBDC5ki4CSGEsDkSbkIIIWyOhJsQQgibI+EmhBDC5sjckjXIWAxxew0UXqveW+zSSEPnIHvqyfduCiHEf0TCrQad2GngyIZi3FtVL6UunTMQ9IojnftU/W3d90pJ/mXyHBpyn+Ptv0/O2johhLhXJNxq0JGNxaSdURg5zVVdcwem38S+NYXE7tMzarYT7q2rPmscHzmcN6Oz1aXKmo5axuox3urSf05R4vigix8L2qzk7KYXcb/Ft29bW/ffUpRcdoQP5dNW/2Dj6w+ra4UQompyze13osQIXy+9zumDeoZMdbxlsJld/yWOQ+cb4T90GENvaE91bKRWWU9JjuQp954sMgVxudb0D/sbb7/Uk/vVNdbW1YwSshK/JTa9QF2uWtXHKISoayTcfgeKixS+mJ/PxXgDI2Y64dXBitOYbn4MGzeOcePHV2oj/NzVgmpQjBRdLcRQIQ80mvvoOmYG7zzbBvuy0Zi1dbWpimMUQtQ9Em61rCBPYcOcfHJ+MTLy71rcbjNiqw7zabwtoY8xLPI0SV/OYtxzj9G+XVeeGruAg+nFahVcXDuani/M5zQJLB3lR48/vsHXucpv+z+z+GS16soUJH3F++NfIMD3IXx6Pc2r83ZwIb88cRRDBt8te5MhvTvTpnU7/vjMa/zfYZ261TpKcQrRf+mD/4tLiLum3PIYhRB1j4RbLcrLLSFqVj7FeoWRs7U08ribI58Srl6K5V+fTyZ8szP93pjP0tmjaBIzneBxq7lYUvqh/4B/GHPDB9OCBxnw5nzmRoTQxaV8/wRdUbXqzIw/R/KCfwg7HZ8g7MOVfGgKIP3nfyLg1Y1kKuZALOHHxcEMXJBExzGzWb12IeM7XWTeyDfYdMm6MFIMaXwV9gyvHfFh6vyJPNxAc5tjFELUNRJutSh63nW09WH4LCdcG1Uz2DL2szJiLnPnflChRfLdr5XD4Zfr/sz8eDJD+wYQNHQSKxaNw2XfFvZnlm53bdWd3n5taUgDWnfvTUDAozRzuvlYrK1TlCw2/306F4LXsW1JKMF9A+k3bBKrNs/H5+twPjpiPr4UDm47htdL03hvzCD8H3+GMR+sYfOyV+jgaLD0czuKIZ0dbw4k5GgAa79cSH/P0v/G1h6jEML2Sbj9ryrKJCk+njOVWiLZ5QMoi/v9e+LrUP4B79KhMz4kkHpJXXG3GU9wYDv0CWjPldQ0UlJSLS2tXjv82qcTeybdVOSGdydPktbNYc6m70m+UoxG40a3gf3xdXMo7edWjOnsmjyI0Yd68OlXi3i6qTwMKIS4mYRbLRrytguFebBhRhH5l6t5bajlCOauWcuatesqtPk817zySMVV66z+pLK3xwEF9azk3ZeRQlJBLqtebEs77zYVWhARcXAmKdkUZK70nbWFJQMKiZoQQAdPLx4Z8CoRW8+Sr9z+wC4tH8PY9ckUFBSbXosEmxCiahJutah+43qMmuGKg6OGz6YWcjmzphLnHmrcBHfTyCx0ey7ZOZdvavGzeljKNI27MHbxLk6ZhpBx+1cxwfcCkSOCCN1a9fN7ZZz9prH71A7CH9jAuJBl/FxkA++ZEOKuk3CrZc71NQyf4sr9nnZ8Nq0Q3YUSdcu9pqf4zpe7TO5Q5+JLl+46Dh45i72zMy4uLpbm7JhDfMxZcvQaFEMuCYe/4Xi6gp2zG95+AxkfsZy/+un4JuaM2lHV7u/2OL4PPsaUT5fQI3Yyf55xiKs3jfasfS1CCFsl4fY74OCkIXiyKy197Pl8ZhFpPxnVLbeRl0JszFFivo+p1H5IzFELquHBVng7J7Jz/WZiTiSTe6tTg1bUaTRteWX6a2QvCCH0k0MkZOaiSzpG9LvD6TtoIhtTzOF9nqjXB/Jc6IccOqfjalYiR6NXsiW+IYHd2lv6URQDcUsH4RfwLvuv3PzvODz0MpGrx3F90WgmbkrDWHYs1r4WIYRNk3D7nTBPkvzsRBc6BTgSPVvPr3cawSVG8nJgbwJvaM8uq/y8mVW0/QhfEULx2pEE9hxLdKq6/kZW1jXoM4+9UYPIXBjMIy09aOHTi9A9nry9eRNhHe3Q2HflrahVDM5azIDOzfDw6khg2B5aTPmChUPc1F6M5GUkc/5CKpf16qobNOkTwbr327JzwmgWn1JnLrH2tQghbJrMLVmD/tcmTi7RXyP3qimcmtTH8TazjVhbpyhGrusukWVogIdHI7R2lWsVRU+eLoPsAi1uTd1wrXBXp5l59GYw2OFww3prWHuMQgjbJOFWg+Qrb4QQonZIuAkhhLA5cs1NCCGEzZFwE0IIYXMk3IQQQtgcCTchhBA2R8JNCCGEjYF/A2Ls77dz1CzSAAAAAElFTkSuQmCC;" vertex="1" parent="1">
          <mxGeometry width="439" height="815" as="geometry" />
        </mxCell>
        <mxCell id="86SCbqVBHxB96HFJQSEO-5" value="" style="endArrow=none;dashed=1;html=1;rounded=0;" edge="1" parent="1">
          <mxGeometry width="50" height="50" relative="1" as="geometry">
            <mxPoint x="440" y="20" as="sourcePoint" />
            <mxPoint x="800" y="20" as="targetPoint" />
          </mxGeometry>
        </mxCell>
        <mxCell id="86SCbqVBHxB96HFJQSEO-6" value="" style="endArrow=none;dashed=1;html=1;rounded=0;" edge="1" parent="1">
          <mxGeometry width="50" height="50" relative="1" as="geometry">
            <mxPoint x="439" y="280" as="sourcePoint" />
            <mxPoint x="799" y="280" as="targetPoint" />
          </mxGeometry>
        </mxCell>
        <mxCell id="86SCbqVBHxB96HFJQSEO-7" value="" style="endArrow=none;dashed=1;html=1;rounded=0;" edge="1" parent="1">
          <mxGeometry width="50" height="50" relative="1" as="geometry">
            <mxPoint x="439" y="460" as="sourcePoint" />
            <mxPoint x="799" y="460" as="targetPoint" />
          </mxGeometry>
        </mxCell>
        <mxCell id="86SCbqVBHxB96HFJQSEO-8" value="package" style="shape=folder;fontStyle=1;spacingTop=10;tabWidth=40;tabHeight=14;tabPosition=left;html=1;whiteSpace=wrap;fillColor=#60a917;strokeColor=#2D7600;fontColor=#ffffff;" vertex="1" parent="1">
          <mxGeometry width="60" height="40" as="geometry" />
        </mxCell>
        <mxCell id="86SCbqVBHxB96HFJQSEO-9" value="package" style="shape=folder;fontStyle=1;spacingTop=10;tabWidth=40;tabHeight=14;tabPosition=left;html=1;whiteSpace=wrap;fillColor=#60a917;fontColor=#ffffff;strokeColor=#2D7600;" vertex="1" parent="1">
          <mxGeometry y="270" width="60" height="40" as="geometry" />
        </mxCell>
        <mxCell id="86SCbqVBHxB96HFJQSEO-10" value="package" style="shape=folder;fontStyle=1;spacingTop=10;tabWidth=40;tabHeight=14;tabPosition=left;html=1;whiteSpace=wrap;fillColor=#60a917;fontColor=#ffffff;strokeColor=#2D7600;" vertex="1" parent="1">
          <mxGeometry y="450" width="60" height="40" as="geometry" />
        </mxCell>
        <mxCell id="86SCbqVBHxB96HFJQSEO-11" value="메모 데이터 레포지토리 구현체" style="text;html=1;align=center;verticalAlign=middle;whiteSpace=wrap;rounded=1;fillColor=#d5e8d4;strokeColor=#82b366;gradientColor=#97d077;" vertex="1" parent="1">
          <mxGeometry x="324" y="70" width="180" height="20" as="geometry" />
        </mxCell>
        <mxCell id="86SCbqVBHxB96HFJQSEO-12" value="API 호출 담당 Interface" style="text;html=1;align=center;verticalAlign=middle;whiteSpace=wrap;rounded=1;fillColor=#f5f5f5;strokeColor=#666666;fontColor=#333333;" vertex="1" parent="1">
          <mxGeometry x="335" y="40" width="150" height="20" as="geometry" />
        </mxCell>
        <mxCell id="86SCbqVBHxB96HFJQSEO-13" value="Retrofit 인스턴스 생성" style="text;html=1;align=center;verticalAlign=middle;whiteSpace=wrap;rounded=1;fillColor=#f5f5f5;strokeColor=#666666;fontColor=#333333;" vertex="1" parent="1">
          <mxGeometry x="335" y="100" width="140" height="20" as="geometry" />
        </mxCell>
        <mxCell id="86SCbqVBHxB96HFJQSEO-14" value="검색 관련 레포지토리 구현체" style="text;html=1;align=center;verticalAlign=middle;whiteSpace=wrap;rounded=1;fillColor=#d5e8d4;strokeColor=#82b366;gradientColor=#97d077;" vertex="1" parent="1">
          <mxGeometry x="316" y="130" width="188" height="20" as="geometry" />
        </mxCell>
        <mxCell id="86SCbqVBHxB96HFJQSEO-15" value="ROOM Database 및 Dao 를 제공하는 Hilt 모듈" style="text;html=1;align=center;verticalAlign=middle;whiteSpace=wrap;rounded=1;fillColor=#f9f7ed;strokeColor=default;" vertex="1" parent="1">
          <mxGeometry x="300.75" y="190" width="280" height="20" as="geometry" />
        </mxCell>
        <mxCell id="86SCbqVBHxB96HFJQSEO-17" value="Retrofit과 같은 네트워크 모듈을 제공하는 Hilt 모듈" style="text;html=1;align=center;verticalAlign=middle;whiteSpace=wrap;rounded=1;fillColor=#f9f7ed;strokeColor=#36393d;" vertex="1" parent="1">
          <mxGeometry x="309.5" y="220" width="280" height="20" as="geometry" />
        </mxCell>
        <mxCell id="86SCbqVBHxB96HFJQSEO-18" value="Hilt와 연결된 앱 전체의 컨텍스트 관리" style="text;html=1;align=center;verticalAlign=middle;whiteSpace=wrap;rounded=1;fillColor=#f9f7ed;strokeColor=#36393d;" vertex="1" parent="1">
          <mxGeometry x="309.5" y="250" width="221" height="20" as="geometry" />
        </mxCell>
        <mxCell id="86SCbqVBHxB96HFJQSEO-20" value="애플리케이션 전반에 걸쳐 사용되는 상수 값을 저장" style="text;html=1;align=center;verticalAlign=middle;whiteSpace=wrap;rounded=1;fillColor=#e3c800;fontColor=#000000;strokeColor=#B09500;" vertex="1" parent="1">
          <mxGeometry x="311" y="310" width="280" height="20" as="geometry" />
        </mxCell>
        <mxCell id="86SCbqVBHxB96HFJQSEO-21" value="세부 정보를 API 응답으로 받아 처리하는 데이터 클래스(Track , Artist)" style="text;html=1;align=center;verticalAlign=middle;whiteSpace=wrap;rounded=1;fillColor=#e3c800;fontColor=#000000;strokeColor=#B09500;" vertex="1" parent="1">
          <mxGeometry x="316" y="370" width="430" height="20" as="geometry" />
        </mxCell>
        <mxCell id="86SCbqVBHxB96HFJQSEO-23" value="세부 정보를 API 응답으로 받아 처리하는 데이터 클래스 (Image URL)" style="text;html=1;align=center;verticalAlign=middle;whiteSpace=wrap;rounded=1;fillColor=#e3c800;fontColor=#000000;strokeColor=#B09500;" vertex="1" parent="1">
          <mxGeometry x="316" y="397.5" width="404" height="20" as="geometry" />
        </mxCell>
        <mxCell id="86SCbqVBHxB96HFJQSEO-24" value="검색 관련 레포지토리 인터페이스" style="text;html=1;align=center;verticalAlign=middle;whiteSpace=wrap;rounded=1;fillColor=#d5e8d4;strokeColor=#82b366;" vertex="1" parent="1">
          <mxGeometry x="316" y="430" width="188" height="20" as="geometry" />
        </mxCell>
        <mxCell id="86SCbqVBHxB96HFJQSEO-25" value="메모 데이터 레포지토리 인터페이스" style="text;html=1;align=center;verticalAlign=middle;whiteSpace=wrap;rounded=1;fillColor=#d5e8d4;strokeColor=#82b366;" vertex="1" parent="1">
          <mxGeometry x="316" y="340" width="249.5" height="20" as="geometry" />
        </mxCell>
        <mxCell id="86SCbqVBHxB96HFJQSEO-28" value="&lt;span style=&quot;text-align: left;&quot;&gt;비즈니스 로직과 데이터를 UI에 연결하는 역할&lt;/span&gt;" style="text;html=1;align=center;verticalAlign=middle;whiteSpace=wrap;rounded=1;fillColor=#dae8fc;strokeColor=#6c8ebf;gradientColor=#7ea6e0;" vertex="1" parent="1">
          <mxGeometry x="300.75" y="550" width="269.25" height="20" as="geometry" />
        </mxCell>
        <mxCell id="86SCbqVBHxB96HFJQSEO-29" value="&lt;span style=&quot;text-align: left;&quot;&gt;비즈니스 로직과 데이터를 UI에 연결하는 역할&lt;/span&gt;" style="text;html=1;align=center;verticalAlign=middle;whiteSpace=wrap;rounded=1;fillColor=#dae8fc;strokeColor=#6c8ebf;gradientColor=#7ea6e0;" vertex="1" parent="1">
          <mxGeometry x="300.75" y="585" width="269.25" height="20" as="geometry" />
        </mxCell>
        <mxCell id="86SCbqVBHxB96HFJQSEO-30" value="&lt;div style=&quot;text-align: left;&quot;&gt;&lt;span style=&quot;background-color: initial;&quot;&gt;Database 엑세스를 담당하는 DAO 인터페이스&lt;/span&gt;&lt;/div&gt;" style="text;html=1;align=center;verticalAlign=middle;whiteSpace=wrap;rounded=1;fillColor=#fff2cc;strokeColor=#d6b656;gradientColor=#ffd966;" vertex="1" parent="1">
          <mxGeometry x="270.38" y="720" width="269.25" height="20" as="geometry" />
        </mxCell>
        <mxCell id="86SCbqVBHxB96HFJQSEO-31" value="&lt;div style=&quot;text-align: left;&quot;&gt;&lt;span style=&quot;background-color: initial;&quot;&gt;Database 설정 클래스&lt;/span&gt;&lt;/div&gt;" style="text;html=1;align=center;verticalAlign=middle;whiteSpace=wrap;rounded=1;fillColor=#fff2cc;strokeColor=#d6b656;gradientColor=#ffd966;" vertex="1" parent="1">
          <mxGeometry x="270.37" y="760" width="269.25" height="20" as="geometry" />
        </mxCell>
        <mxCell id="86SCbqVBHxB96HFJQSEO-32" value="&lt;div style=&quot;text-align: left;&quot;&gt;Entity (table) 클래스들&lt;/div&gt;" style="text;html=1;align=center;verticalAlign=middle;whiteSpace=wrap;rounded=1;fillColor=#fff2cc;strokeColor=#d6b656;gradientColor=#ffd966;" vertex="1" parent="1">
          <mxGeometry x="270.37" y="790" width="269.25" height="20" as="geometry" />
        </mxCell>
      </root>
    </mxGraphModel>
  </diagram>
</mxfile>
